SplineFontDB: 3.0
FontName: Segment14
FullName: Segment14
FamilyName: Segment14
Weight: Regular
Copyright: Paul Flo Williams, 2009
Version: 1.002
ItalicAngle: 0
UnderlinePosition: -100
UnderlineWidth: 20
Ascent: 800
Descent: 200
sfntRevision: 0x00010041
LayerCount: 2
Layer: 0 0 "Back"  1
Layer: 1 0 "Fore"  0
XUID: [1021 957 1792205591 13996591]
FSType: 0
OS2Version: 3
OS2_WeightWidthSlopeOnly: 0
OS2_UseTypoMetrics: 1
CreationTime: 1256739726
ModificationTime: 1307106598
PfmFamily: 81
TTFWeight: 400
TTFWidth: 5
LineGap: 90
VLineGap: 0
Panose: 4 6 5 9 2 11 2 2 4 4
OS2TypoAscent: 0
OS2TypoAOffset: 1
OS2TypoDescent: 0
OS2TypoDOffset: 1
OS2TypoLinegap: 90
OS2WinAscent: 0
OS2WinAOffset: 1
OS2WinDescent: 0
OS2WinDOffset: 1
HheadAscent: 0
HheadAOffset: 1
HheadDescent: 0
HheadDOffset: 1
OS2SubXSize: 650
OS2SubYSize: 699
OS2SubXOff: 0
OS2SubYOff: 140
OS2SupXSize: 650
OS2SupYSize: 699
OS2SupXOff: 0
OS2SupYOff: 479
OS2StrikeYSize: 49
OS2StrikeYPos: 258
OS2Vendor: 'HDAD'
OS2CodePages: 00000001.00000000
OS2UnicodeRanges: 80000023.00000040.00000000.00000000
MarkAttachClasses: 1
DEI: 91125

StartChar: .notdef
Encoding: 65536 -1 0
Width: 650
Flags: W
LayerCount: 2
Fore
SplineSet
50 0 m 1
 50 533 l 1
 600 533 l 1
 600 0 l 1
 50 0 l 1
100 50 m 1
 550 50 l 1
 550 483 l 1
 100 483 l 1
 100 50 l 1
EndSplineSet
EndChar

StartChar: exclam
Encoding: 33 33 2
Width: 650
GlyphClass: 2
Flags: W
LayerCount: 2
Fore
SplineSet
80 760 m 2
 470 760 l 2
 485 760 495 755 495 748 c 0
 495 735 465 702 455 702 c 2
 440 702 l 2
 420 702 420 688 405 688 c 2
 300 688 l 2
 280 688 280 700 260 700 c 0
 240 700 230 688 220 688 c 2
 160 688 l 2
 140 688 130 710 110 710 c 0
 80 710 65 745 65 750 c 0
 65 755 70 760 80 760 c 2
242 400 m 0
 230 400 216 420 216 430 c 2
 220 500 l 1
 220 530 205 550 205 585 c 1
 209 650 l 2
 211 675 240 690 255 690 c 0
 270 690 290 675 290 655 c 1
 283 540 l 2
 282 520 268 500 267 470 c 2
 265 435 l 2
 264 425 255 400 242 400 c 0
174 440 m 1
 111 553 l 2
 104 564 99 580 99 600 c 2
 102 680 l 2
 103 690 110 700 117 700 c 0
 125 700 132 690 137 680 c 2
 192 565 l 1
 202 547 210 535 210 515 c 1
 206 440 l 2
 205 430 199 420 194 420 c 0
 189 420 184 425 174 440 c 1
EndSplineSet
EndChar

StartChar: quotedbl
Encoding: 34 34 3
Width: 650
GlyphClass: 2
Flags: W
LayerCount: 2
Fore
SplineSet
24 440 m 2
 36 690 l 1
 38 710 45 730 53 730 c 0
 63 730 93 695 93 670 c 1
 89 590 l 1
 89 560 109 550 109 520 c 1
 106 460 l 2
 104 432 80 405 55 405 c 0
 35 405 24 425 24 440 c 2
242 400 m 0
 230 400 216 420 216 430 c 2
 220 500 l 1
 220 530 205 550 205 585 c 1
 209 650 l 2
 211 675 240 690 255 690 c 0
 270 690 290 675 290 655 c 1
 283 540 l 2
 282 520 268 500 267 470 c 2
 265 435 l 2
 264 425 255 400 242 400 c 0
EndSplineSet
EndChar

StartChar: numbersign
Encoding: 35 35 4
Width: 650
GlyphClass: 2
Flags: W
LayerCount: 2
Fore
SplineSet
440 0 m 2
 35 0 l 2
 25 0 20 5 20 10 c 0
 20 15 30 22 40 32 c 1
 50 40 60 50 80 50 c 0
 100 50 115 75 140 75 c 2
 160 75 l 2
 200 75 200 60 230 60 c 0
 260 60 260 75 280 75 c 2
 350 75 l 2
 390 75 400 55 410 55 c 0
 420 55 430 50 440 40 c 0
 450 30 460 20 460 10 c 0
 460 5 450 0 440 0 c 2
424 90 m 2
 427 150 l 1
 427 176 410 194 410 220 c 1
 414 300 l 2
 416 335 455 355 465 355 c 0
 481 355 497 330 497 310 c 1
 484 60 l 2
 483 48 476 40 468 40 c 0
 444 40 424 70 424 90 c 2
424 450 m 2
 428 535 l 1
 430 555 450 575 452 600 c 1
 455 680 l 1
 457 700 498 725 505 725 c 0
 512 725 519 713 519 700 c 2
 503 420 l 2
 502 409 487 400 471 400 c 0
 461 400 424 430 424 450 c 2
165 340 m 2
 119 340 l 2
 93 340 69 359 69 380 c 0
 69 401 92 420 117 420 c 2
 167 420 l 2
 192 420 215 401 215 380 c 0
 215 359 191 340 165 340 c 2
225 70 m 0
 207 70 185 95 185 110 c 2
 188 170 l 2
 191 215 205 215 205 250 c 1
 207 280 l 2
 209 320 213 350 235 350 c 0
 252 350 260 300 260 280 c 0
 260 255 265 230 265 200 c 2
 262 110 l 2
 261 90 245 70 225 70 c 0
405 340 m 2
 309 340 l 2
 283 340 259 359 259 380 c 0
 259 401 282 420 307 420 c 2
 407 420 l 2
 432 420 455 401 455 380 c 0
 455 359 431 340 405 340 c 2
242 400 m 0
 230 400 216 420 216 430 c 2
 220 500 l 1
 220 530 205 550 205 585 c 1
 209 650 l 2
 211 675 240 690 255 690 c 0
 270 690 290 675 290 655 c 1
 283 540 l 2
 282 520 268 500 267 470 c 2
 265 435 l 2
 264 425 255 400 242 400 c 0
EndSplineSet
EndChar

StartChar: dollar
Encoding: 36 36 5
Width: 650
GlyphClass: 2
Flags: W
LayerCount: 2
Fore
SplineSet
440 0 m 2
 35 0 l 2
 25 0 20 5 20 10 c 0
 20 15 30 22 40 32 c 1
 50 40 60 50 80 50 c 0
 100 50 115 75 140 75 c 2
 160 75 l 2
 200 75 200 60 230 60 c 0
 260 60 260 75 280 75 c 2
 350 75 l 2
 390 75 400 55 410 55 c 0
 420 55 430 50 440 40 c 0
 450 30 460 20 460 10 c 0
 460 5 450 0 440 0 c 2
424 90 m 2
 427 150 l 1
 427 176 410 194 410 220 c 1
 414 300 l 2
 416 335 455 355 465 355 c 0
 481 355 497 330 497 310 c 1
 484 60 l 2
 483 48 476 40 468 40 c 0
 444 40 424 70 424 90 c 2
80 760 m 2
 470 760 l 2
 485 760 495 755 495 748 c 0
 495 735 465 702 455 702 c 2
 440 702 l 2
 420 702 420 688 405 688 c 2
 300 688 l 2
 280 688 280 700 260 700 c 0
 240 700 230 688 220 688 c 2
 160 688 l 2
 140 688 130 710 110 710 c 0
 80 710 65 745 65 750 c 0
 65 755 70 760 80 760 c 2
24 440 m 2
 36 690 l 1
 38 710 45 730 53 730 c 0
 63 730 93 695 93 670 c 1
 89 590 l 1
 89 560 109 550 109 520 c 1
 106 460 l 2
 104 432 80 405 55 405 c 0
 35 405 24 425 24 440 c 2
165 340 m 2
 119 340 l 2
 93 340 69 359 69 380 c 0
 69 401 92 420 117 420 c 2
 167 420 l 2
 192 420 215 401 215 380 c 0
 215 359 191 340 165 340 c 2
225 70 m 0
 207 70 185 95 185 110 c 2
 188 170 l 2
 191 215 205 215 205 250 c 1
 207 280 l 2
 209 320 213 350 235 350 c 0
 252 350 260 300 260 280 c 0
 260 255 265 230 265 200 c 2
 262 110 l 2
 261 90 245 70 225 70 c 0
405 340 m 2
 309 340 l 2
 283 340 259 359 259 380 c 0
 259 401 282 420 307 420 c 2
 407 420 l 2
 432 420 455 401 455 380 c 0
 455 359 431 340 405 340 c 2
242 400 m 0
 230 400 216 420 216 430 c 2
 220 500 l 1
 220 530 205 550 205 585 c 1
 209 650 l 2
 211 675 240 690 255 690 c 0
 270 690 290 675 290 655 c 1
 283 540 l 2
 282 520 268 500 267 470 c 2
 265 435 l 2
 264 425 255 400 242 400 c 0
EndSplineSet
EndChar

StartChar: percent
Encoding: 37 37 6
Width: 650
GlyphClass: 2
Flags: W
LayerCount: 2
Fore
SplineSet
440 0 m 2
 35 0 l 2
 25 0 20 5 20 10 c 0
 20 15 30 22 40 32 c 1
 50 40 60 50 80 50 c 0
 100 50 115 75 140 75 c 2
 160 75 l 2
 200 75 200 60 230 60 c 0
 260 60 260 75 280 75 c 2
 350 75 l 2
 390 75 400 55 410 55 c 0
 420 55 430 50 440 40 c 0
 450 30 460 20 460 10 c 0
 460 5 450 0 440 0 c 2
424 90 m 2
 427 150 l 1
 427 176 410 194 410 220 c 1
 414 300 l 2
 416 335 455 355 465 355 c 0
 481 355 497 330 497 310 c 1
 484 60 l 2
 483 48 476 40 468 40 c 0
 444 40 424 70 424 90 c 2
80 760 m 2
 470 760 l 2
 485 760 495 755 495 748 c 0
 495 735 465 702 455 702 c 2
 440 702 l 2
 420 702 420 688 405 688 c 2
 300 688 l 2
 280 688 280 700 260 700 c 0
 240 700 230 688 220 688 c 2
 160 688 l 2
 140 688 130 710 110 710 c 0
 80 710 65 745 65 750 c 0
 65 755 70 760 80 760 c 2
24 440 m 2
 36 690 l 1
 38 710 45 730 53 730 c 0
 63 730 93 695 93 670 c 1
 89 590 l 1
 89 560 109 550 109 520 c 1
 106 460 l 2
 104 432 80 405 55 405 c 0
 35 405 24 425 24 440 c 2
165 340 m 2
 119 340 l 2
 93 340 69 359 69 380 c 0
 69 401 92 420 117 420 c 2
 167 420 l 2
 192 420 215 401 215 380 c 0
 215 359 191 340 165 340 c 2
72 80 m 2
 75 145 l 1
 78 175 88 182 98 198 c 2
 163 308 l 1
 171 318 181 338 196 338 c 0
 200 338 203 328 203 318 c 2
 198 240 l 2
 196 220 188 210 186 208 c 2
 111 80 l 2
 105 68 93 60 83 60 c 0
 75 60 72 70 72 80 c 2
225 70 m 0
 207 70 185 95 185 110 c 2
 188 170 l 2
 191 215 205 215 205 250 c 1
 207 280 l 2
 209 320 213 350 235 350 c 0
 252 350 260 300 260 280 c 0
 260 255 265 230 265 200 c 2
 262 110 l 2
 261 90 245 70 225 70 c 0
405 340 m 2
 309 340 l 2
 283 340 259 359 259 380 c 0
 259 401 282 420 307 420 c 2
 407 420 l 2
 432 420 455 401 455 380 c 0
 455 359 431 340 405 340 c 2
323 427 m 2
 295 427 l 2
 280 427 273 435 273 450 c 1
 275 470 282 485 295 500 c 1
 403 663 l 2
 413 678 423 688 431 688 c 0
 441 688 447 673 447 653 c 1
 444 603 l 2
 442 576 433 566 423 553 c 1
 355 445 l 2
 348 435 338 427 323 427 c 2
242 400 m 0
 230 400 216 420 216 430 c 2
 220 500 l 1
 220 530 205 550 205 585 c 1
 209 650 l 2
 211 675 240 690 255 690 c 0
 270 690 290 675 290 655 c 1
 283 540 l 2
 282 520 268 500 267 470 c 2
 265 435 l 2
 264 425 255 400 242 400 c 0
EndSplineSet
EndChar

StartChar: ampersand
Encoding: 38 38 7
Width: 650
GlyphClass: 2
Flags: W
LayerCount: 2
Fore
SplineSet
3 45 m 2
 16 315 l 2
 18 336 38 355 55 355 c 0
 75 355 96 330 96 305 c 1
 92 225 l 2
 90 195 72 185 70 165 c 1
 66 80 l 2
 64 55 31 30 21 30 c 0
 14 30 3 35 3 45 c 2
440 0 m 2
 35 0 l 2
 25 0 20 5 20 10 c 0
 20 15 30 22 40 32 c 1
 50 40 60 50 80 50 c 0
 100 50 115 75 140 75 c 2
 160 75 l 2
 200 75 200 60 230 60 c 0
 260 60 260 75 280 75 c 2
 350 75 l 2
 390 75 400 55 410 55 c 0
 420 55 430 50 440 40 c 0
 450 30 460 20 460 10 c 0
 460 5 450 0 440 0 c 2
424 90 m 2
 427 150 l 1
 427 176 410 194 410 220 c 1
 414 300 l 2
 416 335 455 355 465 355 c 0
 481 355 497 330 497 310 c 1
 484 60 l 2
 483 48 476 40 468 40 c 0
 444 40 424 70 424 90 c 2
80 760 m 2
 470 760 l 2
 485 760 495 755 495 748 c 0
 495 735 465 702 455 702 c 2
 440 702 l 2
 420 702 420 688 405 688 c 2
 300 688 l 2
 280 688 280 700 260 700 c 0
 240 700 230 688 220 688 c 2
 160 688 l 2
 140 688 130 710 110 710 c 0
 80 710 65 745 65 750 c 0
 65 755 70 760 80 760 c 2
165 340 m 2
 119 340 l 2
 93 340 69 359 69 380 c 0
 69 401 92 420 117 420 c 2
 167 420 l 2
 192 420 215 401 215 380 c 0
 215 359 191 340 165 340 c 2
383 80 m 2
 280 260 l 2
 271 276 267 283 267 298 c 2
 268 318 l 2
 269 328 276 333 283 333 c 2
 311 333 l 2
 331 333 336 320 339 318 c 1
 399 208 l 2
 414 180 419 167 419 152 c 2
 416 92 l 1
 414 77 407 67 402 67 c 0
 398 67 387 73 383 80 c 2
242 400 m 0
 230 400 216 420 216 430 c 2
 220 500 l 1
 220 530 205 550 205 585 c 1
 209 650 l 2
 211 675 240 690 255 690 c 0
 270 690 290 675 290 655 c 1
 283 540 l 2
 282 520 268 500 267 470 c 2
 265 435 l 2
 264 425 255 400 242 400 c 0
174 440 m 1
 111 553 l 2
 104 564 99 580 99 600 c 2
 102 680 l 2
 103 690 110 700 117 700 c 0
 125 700 132 690 137 680 c 2
 192 565 l 1
 202 547 210 535 210 515 c 1
 206 440 l 2
 205 430 199 420 194 420 c 0
 189 420 184 425 174 440 c 1
EndSplineSet
EndChar

StartChar: quoteright
Encoding: 39 39 8
AltUni2: 002019.ffffffff.0
Width: 650
GlyphClass: 2
Flags: W
LayerCount: 2
Fore
SplineSet
323 427 m 2
 295 427 l 2
 280 427 273 435 273 450 c 1
 275 470 282 485 295 500 c 1
 403 663 l 2
 413 678 423 688 431 688 c 0
 441 688 447 673 447 653 c 1
 444 603 l 2
 442 576 433 566 423 553 c 1
 355 445 l 2
 348 435 338 427 323 427 c 2
EndSplineSet
EndChar

StartChar: parenleft
Encoding: 40 40 9
Width: 650
GlyphClass: 2
Flags: W
LayerCount: 2
Fore
SplineSet
383 80 m 2
 280 260 l 2
 271 276 267 283 267 298 c 2
 268 318 l 2
 269 328 276 333 283 333 c 2
 311 333 l 2
 331 333 336 320 339 318 c 1
 399 208 l 2
 414 180 419 167 419 152 c 2
 416 92 l 1
 414 77 407 67 402 67 c 0
 398 67 387 73 383 80 c 2
323 427 m 2
 295 427 l 2
 280 427 273 435 273 450 c 1
 275 470 282 485 295 500 c 1
 403 663 l 2
 413 678 423 688 431 688 c 0
 441 688 447 673 447 653 c 1
 444 603 l 2
 442 576 433 566 423 553 c 1
 355 445 l 2
 348 435 338 427 323 427 c 2
EndSplineSet
EndChar

StartChar: parenright
Encoding: 41 41 10
Width: 650
GlyphClass: 2
Flags: W
LayerCount: 2
Fore
SplineSet
72 80 m 2
 75 145 l 1
 78 175 88 182 98 198 c 2
 163 308 l 1
 171 318 181 338 196 338 c 0
 200 338 203 328 203 318 c 2
 198 240 l 2
 196 220 188 210 186 208 c 2
 111 80 l 2
 105 68 93 60 83 60 c 0
 75 60 72 70 72 80 c 2
174 440 m 1
 111 553 l 2
 104 564 99 580 99 600 c 2
 102 680 l 2
 103 690 110 700 117 700 c 0
 125 700 132 690 137 680 c 2
 192 565 l 1
 202 547 210 535 210 515 c 1
 206 440 l 2
 205 430 199 420 194 420 c 0
 189 420 184 425 174 440 c 1
EndSplineSet
EndChar

StartChar: asterisk
Encoding: 42 42 11
Width: 650
GlyphClass: 2
Flags: W
LayerCount: 2
Fore
SplineSet
165 340 m 2
 119 340 l 2
 93 340 69 359 69 380 c 0
 69 401 92 420 117 420 c 2
 167 420 l 2
 192 420 215 401 215 380 c 0
 215 359 191 340 165 340 c 2
72 80 m 2
 75 145 l 1
 78 175 88 182 98 198 c 2
 163 308 l 1
 171 318 181 338 196 338 c 0
 200 338 203 328 203 318 c 2
 198 240 l 2
 196 220 188 210 186 208 c 2
 111 80 l 2
 105 68 93 60 83 60 c 0
 75 60 72 70 72 80 c 2
225 70 m 0
 207 70 185 95 185 110 c 2
 188 170 l 2
 191 215 205 215 205 250 c 1
 207 280 l 2
 209 320 213 350 235 350 c 0
 252 350 260 300 260 280 c 0
 260 255 265 230 265 200 c 2
 262 110 l 2
 261 90 245 70 225 70 c 0
383 80 m 2
 280 260 l 2
 271 276 267 283 267 298 c 2
 268 318 l 2
 269 328 276 333 283 333 c 2
 311 333 l 2
 331 333 336 320 339 318 c 1
 399 208 l 2
 414 180 419 167 419 152 c 2
 416 92 l 1
 414 77 407 67 402 67 c 0
 398 67 387 73 383 80 c 2
405 340 m 2
 309 340 l 2
 283 340 259 359 259 380 c 0
 259 401 282 420 307 420 c 2
 407 420 l 2
 432 420 455 401 455 380 c 0
 455 359 431 340 405 340 c 2
323 427 m 2
 295 427 l 2
 280 427 273 435 273 450 c 1
 275 470 282 485 295 500 c 1
 403 663 l 2
 413 678 423 688 431 688 c 0
 441 688 447 673 447 653 c 1
 444 603 l 2
 442 576 433 566 423 553 c 1
 355 445 l 2
 348 435 338 427 323 427 c 2
242 400 m 0
 230 400 216 420 216 430 c 2
 220 500 l 1
 220 530 205 550 205 585 c 1
 209 650 l 2
 211 675 240 690 255 690 c 0
 270 690 290 675 290 655 c 1
 283 540 l 2
 282 520 268 500 267 470 c 2
 265 435 l 2
 264 425 255 400 242 400 c 0
174 440 m 1
 111 553 l 2
 104 564 99 580 99 600 c 2
 102 680 l 2
 103 690 110 700 117 700 c 0
 125 700 132 690 137 680 c 2
 192 565 l 1
 202 547 210 535 210 515 c 1
 206 440 l 2
 205 430 199 420 194 420 c 0
 189 420 184 425 174 440 c 1
EndSplineSet
EndChar

StartChar: plus
Encoding: 43 43 12
Width: 650
GlyphClass: 2
Flags: W
LayerCount: 2
Fore
SplineSet
165 340 m 2
 119 340 l 2
 93 340 69 359 69 380 c 0
 69 401 92 420 117 420 c 2
 167 420 l 2
 192 420 215 401 215 380 c 0
 215 359 191 340 165 340 c 2
225 70 m 0
 207 70 185 95 185 110 c 2
 188 170 l 2
 191 215 205 215 205 250 c 1
 207 280 l 2
 209 320 213 350 235 350 c 0
 252 350 260 300 260 280 c 0
 260 255 265 230 265 200 c 2
 262 110 l 2
 261 90 245 70 225 70 c 0
405 340 m 2
 309 340 l 2
 283 340 259 359 259 380 c 0
 259 401 282 420 307 420 c 2
 407 420 l 2
 432 420 455 401 455 380 c 0
 455 359 431 340 405 340 c 2
242 400 m 0
 230 400 216 420 216 430 c 2
 220 500 l 1
 220 530 205 550 205 585 c 1
 209 650 l 2
 211 675 240 690 255 690 c 0
 270 690 290 675 290 655 c 1
 283 540 l 2
 282 520 268 500 267 470 c 2
 265 435 l 2
 264 425 255 400 242 400 c 0
EndSplineSet
EndChar

StartChar: comma
Encoding: 44 44 13
Width: 650
GlyphClass: 2
Flags: W
LayerCount: 2
Fore
SplineSet
72 80 m 2
 75 145 l 1
 78 175 88 182 98 198 c 2
 163 308 l 1
 171 318 181 338 196 338 c 0
 200 338 203 328 203 318 c 2
 198 240 l 2
 196 220 188 210 186 208 c 2
 111 80 l 2
 105 68 93 60 83 60 c 0
 75 60 72 70 72 80 c 2
EndSplineSet
EndChar

StartChar: hyphen
Encoding: 45 45 14
AltUni2: 0000ad.ffffffff.0
Width: 650
GlyphClass: 2
Flags: W
LayerCount: 2
Fore
SplineSet
165 340 m 2
 119 340 l 2
 93 340 69 359 69 380 c 0
 69 401 92 420 117 420 c 2
 167 420 l 2
 192 420 215 401 215 380 c 0
 215 359 191 340 165 340 c 2
405 340 m 2
 309 340 l 2
 283 340 259 359 259 380 c 0
 259 401 282 420 307 420 c 2
 407 420 l 2
 432 420 455 401 455 380 c 0
 455 359 431 340 405 340 c 2
EndSplineSet
EndChar

StartChar: period
Encoding: 46 46 15
Width: 650
GlyphClass: 2
Flags: W
LayerCount: 2
Fore
SplineSet
165 340 m 2
 119 340 l 2
 93 340 69 359 69 380 c 0
 69 401 92 420 117 420 c 2
 167 420 l 2
 192 420 215 401 215 380 c 0
 215 359 191 340 165 340 c 2
405 340 m 2
 309 340 l 2
 283 340 259 359 259 380 c 0
 259 401 282 420 307 420 c 2
 407 420 l 2
 432 420 455 401 455 380 c 0
 455 359 431 340 405 340 c 2
EndSplineSet
EndChar

StartChar: slash
Encoding: 47 47 16
Width: 650
GlyphClass: 2
Flags: W
LayerCount: 2
Fore
SplineSet
72 80 m 2
 75 145 l 1
 78 175 88 182 98 198 c 2
 163 308 l 1
 171 318 181 338 196 338 c 0
 200 338 203 328 203 318 c 2
 198 240 l 2
 196 220 188 210 186 208 c 2
 111 80 l 2
 105 68 93 60 83 60 c 0
 75 60 72 70 72 80 c 2
323 427 m 2
 295 427 l 2
 280 427 273 435 273 450 c 1
 275 470 282 485 295 500 c 1
 403 663 l 2
 413 678 423 688 431 688 c 0
 441 688 447 673 447 653 c 1
 444 603 l 2
 442 576 433 566 423 553 c 1
 355 445 l 2
 348 435 338 427 323 427 c 2
EndSplineSet
EndChar

StartChar: zero
Encoding: 48 48 17
Width: 650
GlyphClass: 2
Flags: W
LayerCount: 2
Fore
SplineSet
3 45 m 2
 16 315 l 2
 18 336 38 355 55 355 c 0
 75 355 96 330 96 305 c 1
 92 225 l 2
 90 195 72 185 70 165 c 1
 66 80 l 2
 64 55 31 30 21 30 c 0
 14 30 3 35 3 45 c 2
440 0 m 2
 35 0 l 2
 25 0 20 5 20 10 c 0
 20 15 30 22 40 32 c 1
 50 40 60 50 80 50 c 0
 100 50 115 75 140 75 c 2
 160 75 l 2
 200 75 200 60 230 60 c 0
 260 60 260 75 280 75 c 2
 350 75 l 2
 390 75 400 55 410 55 c 0
 420 55 430 50 440 40 c 0
 450 30 460 20 460 10 c 0
 460 5 450 0 440 0 c 2
424 90 m 2
 427 150 l 1
 427 176 410 194 410 220 c 1
 414 300 l 2
 416 335 455 355 465 355 c 0
 481 355 497 330 497 310 c 1
 484 60 l 2
 483 48 476 40 468 40 c 0
 444 40 424 70 424 90 c 2
424 450 m 2
 428 535 l 1
 430 555 450 575 452 600 c 1
 455 680 l 1
 457 700 498 725 505 725 c 0
 512 725 519 713 519 700 c 2
 503 420 l 2
 502 409 487 400 471 400 c 0
 461 400 424 430 424 450 c 2
80 760 m 2
 470 760 l 2
 485 760 495 755 495 748 c 0
 495 735 465 702 455 702 c 2
 440 702 l 2
 420 702 420 688 405 688 c 2
 300 688 l 2
 280 688 280 700 260 700 c 0
 240 700 230 688 220 688 c 2
 160 688 l 2
 140 688 130 710 110 710 c 0
 80 710 65 745 65 750 c 0
 65 755 70 760 80 760 c 2
24 440 m 2
 36 690 l 1
 38 710 45 730 53 730 c 0
 63 730 93 695 93 670 c 1
 89 590 l 1
 89 560 109 550 109 520 c 1
 106 460 l 2
 104 432 80 405 55 405 c 0
 35 405 24 425 24 440 c 2
72 80 m 2
 75 145 l 1
 78 175 88 182 98 198 c 2
 163 308 l 1
 171 318 181 338 196 338 c 0
 200 338 203 328 203 318 c 2
 198 240 l 2
 196 220 188 210 186 208 c 2
 111 80 l 2
 105 68 93 60 83 60 c 0
 75 60 72 70 72 80 c 2
323 427 m 2
 295 427 l 2
 280 427 273 435 273 450 c 1
 275 470 282 485 295 500 c 1
 403 663 l 2
 413 678 423 688 431 688 c 0
 441 688 447 673 447 653 c 1
 444 603 l 2
 442 576 433 566 423 553 c 1
 355 445 l 2
 348 435 338 427 323 427 c 2
EndSplineSet
EndChar

StartChar: one
Encoding: 49 49 18
Width: 650
GlyphClass: 2
Flags: W
LayerCount: 2
Fore
SplineSet
225 70 m 0
 207 70 185 95 185 110 c 2
 188 170 l 2
 191 215 205 215 205 250 c 1
 207 280 l 2
 209 320 213 350 235 350 c 0
 252 350 260 300 260 280 c 0
 260 255 265 230 265 200 c 2
 262 110 l 2
 261 90 245 70 225 70 c 0
242 400 m 0
 230 400 216 420 216 430 c 2
 220 500 l 1
 220 530 205 550 205 585 c 1
 209 650 l 2
 211 675 240 690 255 690 c 0
 270 690 290 675 290 655 c 1
 283 540 l 2
 282 520 268 500 267 470 c 2
 265 435 l 2
 264 425 255 400 242 400 c 0
EndSplineSet
EndChar

StartChar: two
Encoding: 50 50 19
Width: 650
GlyphClass: 2
Flags: W
LayerCount: 2
Fore
SplineSet
3 45 m 2
 16 315 l 2
 18 336 38 355 55 355 c 0
 75 355 96 330 96 305 c 1
 92 225 l 2
 90 195 72 185 70 165 c 1
 66 80 l 2
 64 55 31 30 21 30 c 0
 14 30 3 35 3 45 c 2
440 0 m 2
 35 0 l 2
 25 0 20 5 20 10 c 0
 20 15 30 22 40 32 c 1
 50 40 60 50 80 50 c 0
 100 50 115 75 140 75 c 2
 160 75 l 2
 200 75 200 60 230 60 c 0
 260 60 260 75 280 75 c 2
 350 75 l 2
 390 75 400 55 410 55 c 0
 420 55 430 50 440 40 c 0
 450 30 460 20 460 10 c 0
 460 5 450 0 440 0 c 2
424 450 m 2
 428 535 l 1
 430 555 450 575 452 600 c 1
 455 680 l 1
 457 700 498 725 505 725 c 0
 512 725 519 713 519 700 c 2
 503 420 l 2
 502 409 487 400 471 400 c 0
 461 400 424 430 424 450 c 2
80 760 m 2
 470 760 l 2
 485 760 495 755 495 748 c 0
 495 735 465 702 455 702 c 2
 440 702 l 2
 420 702 420 688 405 688 c 2
 300 688 l 2
 280 688 280 700 260 700 c 0
 240 700 230 688 220 688 c 2
 160 688 l 2
 140 688 130 710 110 710 c 0
 80 710 65 745 65 750 c 0
 65 755 70 760 80 760 c 2
165 340 m 2
 119 340 l 2
 93 340 69 359 69 380 c 0
 69 401 92 420 117 420 c 2
 167 420 l 2
 192 420 215 401 215 380 c 0
 215 359 191 340 165 340 c 2
405 340 m 2
 309 340 l 2
 283 340 259 359 259 380 c 0
 259 401 282 420 307 420 c 2
 407 420 l 2
 432 420 455 401 455 380 c 0
 455 359 431 340 405 340 c 2
EndSplineSet
EndChar

StartChar: three
Encoding: 51 51 20
Width: 650
GlyphClass: 2
Flags: W
LayerCount: 2
Fore
SplineSet
440 0 m 2
 35 0 l 2
 25 0 20 5 20 10 c 0
 20 15 30 22 40 32 c 1
 50 40 60 50 80 50 c 0
 100 50 115 75 140 75 c 2
 160 75 l 2
 200 75 200 60 230 60 c 0
 260 60 260 75 280 75 c 2
 350 75 l 2
 390 75 400 55 410 55 c 0
 420 55 430 50 440 40 c 0
 450 30 460 20 460 10 c 0
 460 5 450 0 440 0 c 2
424 90 m 2
 427 150 l 1
 427 176 410 194 410 220 c 1
 414 300 l 2
 416 335 455 355 465 355 c 0
 481 355 497 330 497 310 c 1
 484 60 l 2
 483 48 476 40 468 40 c 0
 444 40 424 70 424 90 c 2
424 450 m 2
 428 535 l 1
 430 555 450 575 452 600 c 1
 455 680 l 1
 457 700 498 725 505 725 c 0
 512 725 519 713 519 700 c 2
 503 420 l 2
 502 409 487 400 471 400 c 0
 461 400 424 430 424 450 c 2
80 760 m 2
 470 760 l 2
 485 760 495 755 495 748 c 0
 495 735 465 702 455 702 c 2
 440 702 l 2
 420 702 420 688 405 688 c 2
 300 688 l 2
 280 688 280 700 260 700 c 0
 240 700 230 688 220 688 c 2
 160 688 l 2
 140 688 130 710 110 710 c 0
 80 710 65 745 65 750 c 0
 65 755 70 760 80 760 c 2
165 340 m 2
 119 340 l 2
 93 340 69 359 69 380 c 0
 69 401 92 420 117 420 c 2
 167 420 l 2
 192 420 215 401 215 380 c 0
 215 359 191 340 165 340 c 2
405 340 m 2
 309 340 l 2
 283 340 259 359 259 380 c 0
 259 401 282 420 307 420 c 2
 407 420 l 2
 432 420 455 401 455 380 c 0
 455 359 431 340 405 340 c 2
EndSplineSet
EndChar

StartChar: four
Encoding: 52 52 21
Width: 650
GlyphClass: 2
Flags: W
LayerCount: 2
Fore
SplineSet
424 90 m 2
 427 150 l 1
 427 176 410 194 410 220 c 1
 414 300 l 2
 416 335 455 355 465 355 c 0
 481 355 497 330 497 310 c 1
 484 60 l 2
 483 48 476 40 468 40 c 0
 444 40 424 70 424 90 c 2
424 450 m 2
 428 535 l 1
 430 555 450 575 452 600 c 1
 455 680 l 1
 457 700 498 725 505 725 c 0
 512 725 519 713 519 700 c 2
 503 420 l 2
 502 409 487 400 471 400 c 0
 461 400 424 430 424 450 c 2
24 440 m 2
 36 690 l 1
 38 710 45 730 53 730 c 0
 63 730 93 695 93 670 c 1
 89 590 l 1
 89 560 109 550 109 520 c 1
 106 460 l 2
 104 432 80 405 55 405 c 0
 35 405 24 425 24 440 c 2
165 340 m 2
 119 340 l 2
 93 340 69 359 69 380 c 0
 69 401 92 420 117 420 c 2
 167 420 l 2
 192 420 215 401 215 380 c 0
 215 359 191 340 165 340 c 2
405 340 m 2
 309 340 l 2
 283 340 259 359 259 380 c 0
 259 401 282 420 307 420 c 2
 407 420 l 2
 432 420 455 401 455 380 c 0
 455 359 431 340 405 340 c 2
EndSplineSet
EndChar

StartChar: five
Encoding: 53 53 22
Width: 650
GlyphClass: 2
Flags: W
LayerCount: 2
Fore
SplineSet
440 0 m 2
 35 0 l 2
 25 0 20 5 20 10 c 0
 20 15 30 22 40 32 c 1
 50 40 60 50 80 50 c 0
 100 50 115 75 140 75 c 2
 160 75 l 2
 200 75 200 60 230 60 c 0
 260 60 260 75 280 75 c 2
 350 75 l 2
 390 75 400 55 410 55 c 0
 420 55 430 50 440 40 c 0
 450 30 460 20 460 10 c 0
 460 5 450 0 440 0 c 2
424 90 m 2
 427 150 l 1
 427 176 410 194 410 220 c 1
 414 300 l 2
 416 335 455 355 465 355 c 0
 481 355 497 330 497 310 c 1
 484 60 l 2
 483 48 476 40 468 40 c 0
 444 40 424 70 424 90 c 2
80 760 m 2
 470 760 l 2
 485 760 495 755 495 748 c 0
 495 735 465 702 455 702 c 2
 440 702 l 2
 420 702 420 688 405 688 c 2
 300 688 l 2
 280 688 280 700 260 700 c 0
 240 700 230 688 220 688 c 2
 160 688 l 2
 140 688 130 710 110 710 c 0
 80 710 65 745 65 750 c 0
 65 755 70 760 80 760 c 2
24 440 m 2
 36 690 l 1
 38 710 45 730 53 730 c 0
 63 730 93 695 93 670 c 1
 89 590 l 1
 89 560 109 550 109 520 c 1
 106 460 l 2
 104 432 80 405 55 405 c 0
 35 405 24 425 24 440 c 2
165 340 m 2
 119 340 l 2
 93 340 69 359 69 380 c 0
 69 401 92 420 117 420 c 2
 167 420 l 2
 192 420 215 401 215 380 c 0
 215 359 191 340 165 340 c 2
405 340 m 2
 309 340 l 2
 283 340 259 359 259 380 c 0
 259 401 282 420 307 420 c 2
 407 420 l 2
 432 420 455 401 455 380 c 0
 455 359 431 340 405 340 c 2
EndSplineSet
EndChar

StartChar: six
Encoding: 54 54 23
Width: 650
GlyphClass: 2
Flags: W
LayerCount: 2
Fore
SplineSet
80 760 m 2
 470 760 l 2
 485 760 495 755 495 748 c 0
 495 735 465 702 455 702 c 2
 440 702 l 2
 420 702 420 688 405 688 c 2
 300 688 l 2
 280 688 280 700 260 700 c 0
 240 700 230 688 220 688 c 2
 160 688 l 2
 140 688 130 710 110 710 c 0
 80 710 65 745 65 750 c 0
 65 755 70 760 80 760 c 2
24 440 m 2
 36 690 l 1
 38 710 45 730 53 730 c 0
 63 730 93 695 93 670 c 1
 89 590 l 1
 89 560 109 550 109 520 c 1
 106 460 l 2
 104 432 80 405 55 405 c 0
 35 405 24 425 24 440 c 2
3 45 m 2
 16 315 l 2
 18 336 38 355 55 355 c 0
 75 355 96 330 96 305 c 1
 92 225 l 2
 90 195 72 185 70 165 c 1
 66 80 l 2
 64 55 31 30 21 30 c 0
 14 30 3 35 3 45 c 2
440 0 m 2
 35 0 l 2
 25 0 20 5 20 10 c 0
 20 15 30 22 40 32 c 1
 50 40 60 50 80 50 c 0
 100 50 115 75 140 75 c 2
 160 75 l 2
 200 75 200 60 230 60 c 0
 260 60 260 75 280 75 c 2
 350 75 l 2
 390 75 400 55 410 55 c 0
 420 55 430 50 440 40 c 0
 450 30 460 20 460 10 c 0
 460 5 450 0 440 0 c 2
424 90 m 2
 427 150 l 1
 427 176 410 194 410 220 c 1
 414 300 l 2
 416 335 455 355 465 355 c 0
 481 355 497 330 497 310 c 1
 484 60 l 2
 483 48 476 40 468 40 c 0
 444 40 424 70 424 90 c 2
405 340 m 2
 309 340 l 2
 283 340 259 359 259 380 c 0
 259 401 282 420 307 420 c 2
 407 420 l 2
 432 420 455 401 455 380 c 0
 455 359 431 340 405 340 c 2
165 340 m 2
 119 340 l 2
 93 340 69 359 69 380 c 0
 69 401 92 420 117 420 c 2
 167 420 l 2
 192 420 215 401 215 380 c 0
 215 359 191 340 165 340 c 2
EndSplineSet
EndChar

StartChar: seven
Encoding: 55 55 24
Width: 650
GlyphClass: 2
Flags: W
LayerCount: 2
Fore
SplineSet
424 90 m 2
 427 150 l 1
 427 176 410 194 410 220 c 1
 414 300 l 2
 416 335 455 355 465 355 c 0
 481 355 497 330 497 310 c 1
 484 60 l 2
 483 48 476 40 468 40 c 0
 444 40 424 70 424 90 c 2
424 450 m 2
 428 535 l 1
 430 555 450 575 452 600 c 1
 455 680 l 1
 457 700 498 725 505 725 c 0
 512 725 519 713 519 700 c 2
 503 420 l 2
 502 409 487 400 471 400 c 0
 461 400 424 430 424 450 c 2
80 760 m 2
 470 760 l 2
 485 760 495 755 495 748 c 0
 495 735 465 702 455 702 c 2
 440 702 l 2
 420 702 420 688 405 688 c 2
 300 688 l 2
 280 688 280 700 260 700 c 0
 240 700 230 688 220 688 c 2
 160 688 l 2
 140 688 130 710 110 710 c 0
 80 710 65 745 65 750 c 0
 65 755 70 760 80 760 c 2
EndSplineSet
EndChar

StartChar: eight
Encoding: 56 56 25
Width: 650
GlyphClass: 2
Flags: W
LayerCount: 2
Fore
SplineSet
3 45 m 2
 16 315 l 2
 18 336 38 355 55 355 c 0
 75 355 96 330 96 305 c 1
 92 225 l 2
 90 195 72 185 70 165 c 1
 66 80 l 2
 64 55 31 30 21 30 c 0
 14 30 3 35 3 45 c 2
440 0 m 2
 35 0 l 2
 25 0 20 5 20 10 c 0
 20 15 30 22 40 32 c 1
 50 40 60 50 80 50 c 0
 100 50 115 75 140 75 c 2
 160 75 l 2
 200 75 200 60 230 60 c 0
 260 60 260 75 280 75 c 2
 350 75 l 2
 390 75 400 55 410 55 c 0
 420 55 430 50 440 40 c 0
 450 30 460 20 460 10 c 0
 460 5 450 0 440 0 c 2
424 90 m 2
 427 150 l 1
 427 176 410 194 410 220 c 1
 414 300 l 2
 416 335 455 355 465 355 c 0
 481 355 497 330 497 310 c 1
 484 60 l 2
 483 48 476 40 468 40 c 0
 444 40 424 70 424 90 c 2
424 450 m 2
 428 535 l 1
 430 555 450 575 452 600 c 1
 455 680 l 1
 457 700 498 725 505 725 c 0
 512 725 519 713 519 700 c 2
 503 420 l 2
 502 409 487 400 471 400 c 0
 461 400 424 430 424 450 c 2
80 760 m 2
 470 760 l 2
 485 760 495 755 495 748 c 0
 495 735 465 702 455 702 c 2
 440 702 l 2
 420 702 420 688 405 688 c 2
 300 688 l 2
 280 688 280 700 260 700 c 0
 240 700 230 688 220 688 c 2
 160 688 l 2
 140 688 130 710 110 710 c 0
 80 710 65 745 65 750 c 0
 65 755 70 760 80 760 c 2
24 440 m 2
 36 690 l 1
 38 710 45 730 53 730 c 0
 63 730 93 695 93 670 c 1
 89 590 l 1
 89 560 109 550 109 520 c 1
 106 460 l 2
 104 432 80 405 55 405 c 0
 35 405 24 425 24 440 c 2
165 340 m 2
 119 340 l 2
 93 340 69 359 69 380 c 0
 69 401 92 420 117 420 c 2
 167 420 l 2
 192 420 215 401 215 380 c 0
 215 359 191 340 165 340 c 2
405 340 m 2
 309 340 l 2
 283 340 259 359 259 380 c 0
 259 401 282 420 307 420 c 2
 407 420 l 2
 432 420 455 401 455 380 c 0
 455 359 431 340 405 340 c 2
EndSplineSet
EndChar

StartChar: nine
Encoding: 57 57 26
Width: 650
GlyphClass: 2
Flags: W
LayerCount: 2
Fore
SplineSet
440 0 m 2
 35 0 l 2
 25 0 20 5 20 10 c 0
 20 15 30 22 40 32 c 1
 50 40 60 50 80 50 c 0
 100 50 115 75 140 75 c 2
 160 75 l 2
 200 75 200 60 230 60 c 0
 260 60 260 75 280 75 c 2
 350 75 l 2
 390 75 400 55 410 55 c 0
 420 55 430 50 440 40 c 0
 450 30 460 20 460 10 c 0
 460 5 450 0 440 0 c 2
424 90 m 2
 427 150 l 1
 427 176 410 194 410 220 c 1
 414 300 l 2
 416 335 455 355 465 355 c 0
 481 355 497 330 497 310 c 1
 484 60 l 2
 483 48 476 40 468 40 c 0
 444 40 424 70 424 90 c 2
424 450 m 2
 428 535 l 1
 430 555 450 575 452 600 c 1
 455 680 l 1
 457 700 498 725 505 725 c 0
 512 725 519 713 519 700 c 2
 503 420 l 2
 502 409 487 400 471 400 c 0
 461 400 424 430 424 450 c 2
80 760 m 2
 470 760 l 2
 485 760 495 755 495 748 c 0
 495 735 465 702 455 702 c 2
 440 702 l 2
 420 702 420 688 405 688 c 2
 300 688 l 2
 280 688 280 700 260 700 c 0
 240 700 230 688 220 688 c 2
 160 688 l 2
 140 688 130 710 110 710 c 0
 80 710 65 745 65 750 c 0
 65 755 70 760 80 760 c 2
24 440 m 2
 36 690 l 1
 38 710 45 730 53 730 c 0
 63 730 93 695 93 670 c 1
 89 590 l 1
 89 560 109 550 109 520 c 1
 106 460 l 2
 104 432 80 405 55 405 c 0
 35 405 24 425 24 440 c 2
165 340 m 2
 119 340 l 2
 93 340 69 359 69 380 c 0
 69 401 92 420 117 420 c 2
 167 420 l 2
 192 420 215 401 215 380 c 0
 215 359 191 340 165 340 c 2
405 340 m 2
 309 340 l 2
 283 340 259 359 259 380 c 0
 259 401 282 420 307 420 c 2
 407 420 l 2
 432 420 455 401 455 380 c 0
 455 359 431 340 405 340 c 2
EndSplineSet
EndChar

StartChar: colon
Encoding: 58 58 27
Width: 650
GlyphClass: 2
Flags: W
LayerCount: 2
Fore
SplineSet
80 760 m 2
 470 760 l 2
 485 760 495 755 495 748 c 0
 495 735 465 702 455 702 c 2
 440 702 l 2
 420 702 420 688 405 688 c 2
 300 688 l 2
 280 688 280 700 260 700 c 0
 240 700 230 688 220 688 c 2
 160 688 l 2
 140 688 130 710 110 710 c 0
 80 710 65 745 65 750 c 0
 65 755 70 760 80 760 c 2
EndSplineSet
EndChar

StartChar: semicolon
Encoding: 59 59 28
Width: 650
GlyphClass: 2
Flags: W
LayerCount: 2
Fore
SplineSet
80 760 m 2
 470 760 l 2
 485 760 495 755 495 748 c 0
 495 735 465 702 455 702 c 2
 440 702 l 2
 420 702 420 688 405 688 c 2
 300 688 l 2
 280 688 280 700 260 700 c 0
 240 700 230 688 220 688 c 2
 160 688 l 2
 140 688 130 710 110 710 c 0
 80 710 65 745 65 750 c 0
 65 755 70 760 80 760 c 2
72 80 m 2
 75 145 l 1
 78 175 88 182 98 198 c 2
 163 308 l 1
 171 318 181 338 196 338 c 0
 200 338 203 328 203 318 c 2
 198 240 l 2
 196 220 188 210 186 208 c 2
 111 80 l 2
 105 68 93 60 83 60 c 0
 75 60 72 70 72 80 c 2
EndSplineSet
EndChar

StartChar: less
Encoding: 60 60 29
Width: 650
GlyphClass: 2
Flags: W
LayerCount: 2
Fore
SplineSet
440 0 m 2
 35 0 l 2
 25 0 20 5 20 10 c 0
 20 15 30 22 40 32 c 1
 50 40 60 50 80 50 c 0
 100 50 115 75 140 75 c 2
 160 75 l 2
 200 75 200 60 230 60 c 0
 260 60 260 75 280 75 c 2
 350 75 l 2
 390 75 400 55 410 55 c 0
 420 55 430 50 440 40 c 0
 450 30 460 20 460 10 c 0
 460 5 450 0 440 0 c 2
72 80 m 2
 75 145 l 1
 78 175 88 182 98 198 c 2
 163 308 l 1
 171 318 181 338 196 338 c 0
 200 338 203 328 203 318 c 2
 198 240 l 2
 196 220 188 210 186 208 c 2
 111 80 l 2
 105 68 93 60 83 60 c 0
 75 60 72 70 72 80 c 2
323 427 m 2
 295 427 l 2
 280 427 273 435 273 450 c 1
 275 470 282 485 295 500 c 1
 403 663 l 2
 413 678 423 688 431 688 c 0
 441 688 447 673 447 653 c 1
 444 603 l 2
 442 576 433 566 423 553 c 1
 355 445 l 2
 348 435 338 427 323 427 c 2
EndSplineSet
EndChar

StartChar: equal
Encoding: 61 61 30
Width: 650
GlyphClass: 2
Flags: W
LayerCount: 2
Fore
SplineSet
440 0 m 2
 35 0 l 2
 25 0 20 5 20 10 c 0
 20 15 30 22 40 32 c 1
 50 40 60 50 80 50 c 0
 100 50 115 75 140 75 c 2
 160 75 l 2
 200 75 200 60 230 60 c 0
 260 60 260 75 280 75 c 2
 350 75 l 2
 390 75 400 55 410 55 c 0
 420 55 430 50 440 40 c 0
 450 30 460 20 460 10 c 0
 460 5 450 0 440 0 c 2
165 340 m 2
 119 340 l 2
 93 340 69 359 69 380 c 0
 69 401 92 420 117 420 c 2
 167 420 l 2
 192 420 215 401 215 380 c 0
 215 359 191 340 165 340 c 2
405 340 m 2
 309 340 l 2
 283 340 259 359 259 380 c 0
 259 401 282 420 307 420 c 2
 407 420 l 2
 432 420 455 401 455 380 c 0
 455 359 431 340 405 340 c 2
EndSplineSet
EndChar

StartChar: greater
Encoding: 62 62 31
Width: 650
GlyphClass: 2
Flags: W
LayerCount: 2
Fore
SplineSet
440 0 m 2
 35 0 l 2
 25 0 20 5 20 10 c 0
 20 15 30 22 40 32 c 1
 50 40 60 50 80 50 c 0
 100 50 115 75 140 75 c 2
 160 75 l 2
 200 75 200 60 230 60 c 0
 260 60 260 75 280 75 c 2
 350 75 l 2
 390 75 400 55 410 55 c 0
 420 55 430 50 440 40 c 0
 450 30 460 20 460 10 c 0
 460 5 450 0 440 0 c 2
383 80 m 2
 280 260 l 2
 271 276 267 283 267 298 c 2
 268 318 l 2
 269 328 276 333 283 333 c 2
 311 333 l 2
 331 333 336 320 339 318 c 1
 399 208 l 2
 414 180 419 167 419 152 c 2
 416 92 l 1
 414 77 407 67 402 67 c 0
 398 67 387 73 383 80 c 2
174 440 m 1
 111 553 l 2
 104 564 99 580 99 600 c 2
 102 680 l 2
 103 690 110 700 117 700 c 0
 125 700 132 690 137 680 c 2
 192 565 l 1
 202 547 210 535 210 515 c 1
 206 440 l 2
 205 430 199 420 194 420 c 0
 189 420 184 425 174 440 c 1
EndSplineSet
EndChar

StartChar: question
Encoding: 63 63 32
Width: 650
GlyphClass: 2
Flags: W
LayerCount: 2
Fore
SplineSet
424 450 m 2
 428 535 l 1
 430 555 450 575 452 600 c 1
 455 680 l 1
 457 700 498 725 505 725 c 0
 512 725 519 713 519 700 c 2
 503 420 l 2
 502 409 487 400 471 400 c 0
 461 400 424 430 424 450 c 2
80 760 m 2
 470 760 l 2
 485 760 495 755 495 748 c 0
 495 735 465 702 455 702 c 2
 440 702 l 2
 420 702 420 688 405 688 c 2
 300 688 l 2
 280 688 280 700 260 700 c 0
 240 700 230 688 220 688 c 2
 160 688 l 2
 140 688 130 710 110 710 c 0
 80 710 65 745 65 750 c 0
 65 755 70 760 80 760 c 2
225 70 m 0
 207 70 185 95 185 110 c 2
 188 170 l 2
 191 215 205 215 205 250 c 1
 207 280 l 2
 209 320 213 350 235 350 c 0
 252 350 260 300 260 280 c 0
 260 255 265 230 265 200 c 2
 262 110 l 2
 261 90 245 70 225 70 c 0
405 340 m 2
 309 340 l 2
 283 340 259 359 259 380 c 0
 259 401 282 420 307 420 c 2
 407 420 l 2
 432 420 455 401 455 380 c 0
 455 359 431 340 405 340 c 2
EndSplineSet
EndChar

StartChar: at
Encoding: 64 64 33
Width: 650
GlyphClass: 2
Flags: W
LayerCount: 2
Fore
SplineSet
3 45 m 2
 16 315 l 2
 18 336 38 355 55 355 c 0
 75 355 96 330 96 305 c 1
 92 225 l 2
 90 195 72 185 70 165 c 1
 66 80 l 2
 64 55 31 30 21 30 c 0
 14 30 3 35 3 45 c 2
440 0 m 2
 35 0 l 2
 25 0 20 5 20 10 c 0
 20 15 30 22 40 32 c 1
 50 40 60 50 80 50 c 0
 100 50 115 75 140 75 c 2
 160 75 l 2
 200 75 200 60 230 60 c 0
 260 60 260 75 280 75 c 2
 350 75 l 2
 390 75 400 55 410 55 c 0
 420 55 430 50 440 40 c 0
 450 30 460 20 460 10 c 0
 460 5 450 0 440 0 c 2
424 90 m 2
 427 150 l 1
 427 176 410 194 410 220 c 1
 414 300 l 2
 416 335 455 355 465 355 c 0
 481 355 497 330 497 310 c 1
 484 60 l 2
 483 48 476 40 468 40 c 0
 444 40 424 70 424 90 c 2
424 450 m 2
 428 535 l 1
 430 555 450 575 452 600 c 1
 455 680 l 1
 457 700 498 725 505 725 c 0
 512 725 519 713 519 700 c 2
 503 420 l 2
 502 409 487 400 471 400 c 0
 461 400 424 430 424 450 c 2
80 760 m 2
 470 760 l 2
 485 760 495 755 495 748 c 0
 495 735 465 702 455 702 c 2
 440 702 l 2
 420 702 420 688 405 688 c 2
 300 688 l 2
 280 688 280 700 260 700 c 0
 240 700 230 688 220 688 c 2
 160 688 l 2
 140 688 130 710 110 710 c 0
 80 710 65 745 65 750 c 0
 65 755 70 760 80 760 c 2
165 340 m 2
 119 340 l 2
 93 340 69 359 69 380 c 0
 69 401 92 420 117 420 c 2
 167 420 l 2
 192 420 215 401 215 380 c 0
 215 359 191 340 165 340 c 2
225 70 m 0
 207 70 185 95 185 110 c 2
 188 170 l 2
 191 215 205 215 205 250 c 1
 207 280 l 2
 209 320 213 350 235 350 c 0
 252 350 260 300 260 280 c 0
 260 255 265 230 265 200 c 2
 262 110 l 2
 261 90 245 70 225 70 c 0
EndSplineSet
EndChar

StartChar: A
Encoding: 65 65 34
Width: 650
GlyphClass: 2
Flags: W
LayerCount: 2
Fore
SplineSet
3 45 m 2
 16 315 l 2
 18 336 38 355 55 355 c 0
 75 355 96 330 96 305 c 1
 92 225 l 2
 90 195 72 185 70 165 c 1
 66 80 l 2
 64 55 31 30 21 30 c 0
 14 30 3 35 3 45 c 2
24 440 m 2
 36 690 l 1
 38 710 45 730 53 730 c 0
 63 730 93 695 93 670 c 1
 89 590 l 1
 89 560 109 550 109 520 c 1
 106 460 l 2
 104 432 80 405 55 405 c 0
 35 405 24 425 24 440 c 2
80 760 m 2
 470 760 l 2
 485 760 495 755 495 748 c 0
 495 735 465 702 455 702 c 2
 440 702 l 2
 420 702 420 688 405 688 c 2
 300 688 l 2
 280 688 280 700 260 700 c 0
 240 700 230 688 220 688 c 2
 160 688 l 2
 140 688 130 710 110 710 c 0
 80 710 65 745 65 750 c 0
 65 755 70 760 80 760 c 2
424 450 m 2
 428 535 l 1
 430 555 450 575 452 600 c 1
 455 680 l 1
 457 700 498 725 505 725 c 0
 512 725 519 713 519 700 c 2
 503 420 l 2
 502 409 487 400 471 400 c 0
 461 400 424 430 424 450 c 2
424 90 m 2
 427 150 l 1
 427 176 410 194 410 220 c 1
 414 300 l 2
 416 335 455 355 465 355 c 0
 481 355 497 330 497 310 c 1
 484 60 l 2
 483 48 476 40 468 40 c 0
 444 40 424 70 424 90 c 2
165 340 m 2
 119 340 l 2
 93 340 69 359 69 380 c 0
 69 401 92 420 117 420 c 2
 167 420 l 2
 192 420 215 401 215 380 c 0
 215 359 191 340 165 340 c 2
405 340 m 2
 309 340 l 2
 283 340 259 359 259 380 c 0
 259 401 282 420 307 420 c 2
 407 420 l 2
 432 420 455 401 455 380 c 0
 455 359 431 340 405 340 c 2
EndSplineSet
EndChar

StartChar: B
Encoding: 66 66 35
Width: 650
GlyphClass: 2
Flags: W
LayerCount: 2
Fore
SplineSet
440 0 m 2
 35 0 l 2
 25 0 20 5 20 10 c 0
 20 15 30 22 40 32 c 1
 50 40 60 50 80 50 c 0
 100 50 115 75 140 75 c 2
 160 75 l 2
 200 75 200 60 230 60 c 0
 260 60 260 75 280 75 c 2
 350 75 l 2
 390 75 400 55 410 55 c 0
 420 55 430 50 440 40 c 0
 450 30 460 20 460 10 c 0
 460 5 450 0 440 0 c 2
424 90 m 2
 427 150 l 1
 427 176 410 194 410 220 c 1
 414 300 l 2
 416 335 455 355 465 355 c 0
 481 355 497 330 497 310 c 1
 484 60 l 2
 483 48 476 40 468 40 c 0
 444 40 424 70 424 90 c 2
424 450 m 2
 428 535 l 1
 430 555 450 575 452 600 c 1
 455 680 l 1
 457 700 498 725 505 725 c 0
 512 725 519 713 519 700 c 2
 503 420 l 2
 502 409 487 400 471 400 c 0
 461 400 424 430 424 450 c 2
80 760 m 2
 470 760 l 2
 485 760 495 755 495 748 c 0
 495 735 465 702 455 702 c 2
 440 702 l 2
 420 702 420 688 405 688 c 2
 300 688 l 2
 280 688 280 700 260 700 c 0
 240 700 230 688 220 688 c 2
 160 688 l 2
 140 688 130 710 110 710 c 0
 80 710 65 745 65 750 c 0
 65 755 70 760 80 760 c 2
225 70 m 0
 207 70 185 95 185 110 c 2
 188 170 l 2
 191 215 205 215 205 250 c 1
 207 280 l 2
 209 320 213 350 235 350 c 0
 252 350 260 300 260 280 c 0
 260 255 265 230 265 200 c 2
 262 110 l 2
 261 90 245 70 225 70 c 0
242 400 m 0
 230 400 216 420 216 430 c 2
 220 500 l 1
 220 530 205 550 205 585 c 1
 209 650 l 2
 211 675 240 690 255 690 c 0
 270 690 290 675 290 655 c 1
 283 540 l 2
 282 520 268 500 267 470 c 2
 265 435 l 2
 264 425 255 400 242 400 c 0
405 340 m 2
 309 340 l 2
 283 340 259 359 259 380 c 0
 259 401 282 420 307 420 c 2
 407 420 l 2
 432 420 455 401 455 380 c 0
 455 359 431 340 405 340 c 2
EndSplineSet
EndChar

StartChar: C
Encoding: 67 67 36
Width: 650
GlyphClass: 2
Flags: W
LayerCount: 2
Fore
SplineSet
80 760 m 2
 470 760 l 2
 485 760 495 755 495 748 c 0
 495 735 465 702 455 702 c 2
 440 702 l 2
 420 702 420 688 405 688 c 2
 300 688 l 2
 280 688 280 700 260 700 c 0
 240 700 230 688 220 688 c 2
 160 688 l 2
 140 688 130 710 110 710 c 0
 80 710 65 745 65 750 c 0
 65 755 70 760 80 760 c 2
24 440 m 2
 36 690 l 1
 38 710 45 730 53 730 c 0
 63 730 93 695 93 670 c 1
 89 590 l 1
 89 560 109 550 109 520 c 1
 106 460 l 2
 104 432 80 405 55 405 c 0
 35 405 24 425 24 440 c 2
3 45 m 2
 16 315 l 2
 18 336 38 355 55 355 c 0
 75 355 96 330 96 305 c 1
 92 225 l 2
 90 195 72 185 70 165 c 1
 66 80 l 2
 64 55 31 30 21 30 c 0
 14 30 3 35 3 45 c 2
440 0 m 2
 35 0 l 2
 25 0 20 5 20 10 c 0
 20 15 30 22 40 32 c 1
 50 40 60 50 80 50 c 0
 100 50 115 75 140 75 c 2
 160 75 l 2
 200 75 200 60 230 60 c 0
 260 60 260 75 280 75 c 2
 350 75 l 2
 390 75 400 55 410 55 c 0
 420 55 430 50 440 40 c 0
 450 30 460 20 460 10 c 0
 460 5 450 0 440 0 c 2
EndSplineSet
EndChar

StartChar: D
Encoding: 68 68 37
Width: 650
GlyphClass: 2
Flags: W
LayerCount: 2
Fore
SplineSet
440 0 m 2
 35 0 l 2
 25 0 20 5 20 10 c 0
 20 15 30 22 40 32 c 1
 50 40 60 50 80 50 c 0
 100 50 115 75 140 75 c 2
 160 75 l 2
 200 75 200 60 230 60 c 0
 260 60 260 75 280 75 c 2
 350 75 l 2
 390 75 400 55 410 55 c 0
 420 55 430 50 440 40 c 0
 450 30 460 20 460 10 c 0
 460 5 450 0 440 0 c 2
424 90 m 2
 427 150 l 1
 427 176 410 194 410 220 c 1
 414 300 l 2
 416 335 455 355 465 355 c 0
 481 355 497 330 497 310 c 1
 484 60 l 2
 483 48 476 40 468 40 c 0
 444 40 424 70 424 90 c 2
424 450 m 2
 428 535 l 1
 430 555 450 575 452 600 c 1
 455 680 l 1
 457 700 498 725 505 725 c 0
 512 725 519 713 519 700 c 2
 503 420 l 2
 502 409 487 400 471 400 c 0
 461 400 424 430 424 450 c 2
80 760 m 2
 470 760 l 2
 485 760 495 755 495 748 c 0
 495 735 465 702 455 702 c 2
 440 702 l 2
 420 702 420 688 405 688 c 2
 300 688 l 2
 280 688 280 700 260 700 c 0
 240 700 230 688 220 688 c 2
 160 688 l 2
 140 688 130 710 110 710 c 0
 80 710 65 745 65 750 c 0
 65 755 70 760 80 760 c 2
225 70 m 0
 207 70 185 95 185 110 c 2
 188 170 l 2
 191 215 205 215 205 250 c 1
 207 280 l 2
 209 320 213 350 235 350 c 0
 252 350 260 300 260 280 c 0
 260 255 265 230 265 200 c 2
 262 110 l 2
 261 90 245 70 225 70 c 0
242 400 m 0
 230 400 216 420 216 430 c 2
 220 500 l 1
 220 530 205 550 205 585 c 1
 209 650 l 2
 211 675 240 690 255 690 c 0
 270 690 290 675 290 655 c 1
 283 540 l 2
 282 520 268 500 267 470 c 2
 265 435 l 2
 264 425 255 400 242 400 c 0
EndSplineSet
EndChar

StartChar: E
Encoding: 69 69 38
Width: 650
GlyphClass: 2
Flags: W
LayerCount: 2
Fore
SplineSet
80 760 m 2
 470 760 l 2
 485 760 495 755 495 748 c 0
 495 735 465 702 455 702 c 2
 440 702 l 2
 420 702 420 688 405 688 c 2
 300 688 l 2
 280 688 280 700 260 700 c 0
 240 700 230 688 220 688 c 2
 160 688 l 2
 140 688 130 710 110 710 c 0
 80 710 65 745 65 750 c 0
 65 755 70 760 80 760 c 2
24 440 m 2
 36 690 l 1
 38 710 45 730 53 730 c 0
 63 730 93 695 93 670 c 1
 89 590 l 1
 89 560 109 550 109 520 c 1
 106 460 l 2
 104 432 80 405 55 405 c 0
 35 405 24 425 24 440 c 2
3 45 m 2
 16 315 l 2
 18 336 38 355 55 355 c 0
 75 355 96 330 96 305 c 1
 92 225 l 2
 90 195 72 185 70 165 c 1
 66 80 l 2
 64 55 31 30 21 30 c 0
 14 30 3 35 3 45 c 2
440 0 m 2
 35 0 l 2
 25 0 20 5 20 10 c 0
 20 15 30 22 40 32 c 1
 50 40 60 50 80 50 c 0
 100 50 115 75 140 75 c 2
 160 75 l 2
 200 75 200 60 230 60 c 0
 260 60 260 75 280 75 c 2
 350 75 l 2
 390 75 400 55 410 55 c 0
 420 55 430 50 440 40 c 0
 450 30 460 20 460 10 c 0
 460 5 450 0 440 0 c 2
165 340 m 2
 119 340 l 2
 93 340 69 359 69 380 c 0
 69 401 92 420 117 420 c 2
 167 420 l 2
 192 420 215 401 215 380 c 0
 215 359 191 340 165 340 c 2
EndSplineSet
EndChar

StartChar: F
Encoding: 70 70 39
Width: 650
GlyphClass: 2
Flags: W
LayerCount: 2
Fore
SplineSet
80 760 m 2
 470 760 l 2
 485 760 495 755 495 748 c 0
 495 735 465 702 455 702 c 2
 440 702 l 2
 420 702 420 688 405 688 c 2
 300 688 l 2
 280 688 280 700 260 700 c 0
 240 700 230 688 220 688 c 2
 160 688 l 2
 140 688 130 710 110 710 c 0
 80 710 65 745 65 750 c 0
 65 755 70 760 80 760 c 2
24 440 m 2
 36 690 l 1
 38 710 45 730 53 730 c 0
 63 730 93 695 93 670 c 1
 89 590 l 1
 89 560 109 550 109 520 c 1
 106 460 l 2
 104 432 80 405 55 405 c 0
 35 405 24 425 24 440 c 2
3 45 m 2
 16 315 l 2
 18 336 38 355 55 355 c 0
 75 355 96 330 96 305 c 1
 92 225 l 2
 90 195 72 185 70 165 c 1
 66 80 l 2
 64 55 31 30 21 30 c 0
 14 30 3 35 3 45 c 2
165 340 m 2
 119 340 l 2
 93 340 69 359 69 380 c 0
 69 401 92 420 117 420 c 2
 167 420 l 2
 192 420 215 401 215 380 c 0
 215 359 191 340 165 340 c 2
EndSplineSet
EndChar

StartChar: G
Encoding: 71 71 40
Width: 650
GlyphClass: 2
Flags: W
LayerCount: 2
Fore
SplineSet
80 760 m 2
 470 760 l 2
 485 760 495 755 495 748 c 0
 495 735 465 702 455 702 c 2
 440 702 l 2
 420 702 420 688 405 688 c 2
 300 688 l 2
 280 688 280 700 260 700 c 0
 240 700 230 688 220 688 c 2
 160 688 l 2
 140 688 130 710 110 710 c 0
 80 710 65 745 65 750 c 0
 65 755 70 760 80 760 c 2
24 440 m 2
 36 690 l 1
 38 710 45 730 53 730 c 0
 63 730 93 695 93 670 c 1
 89 590 l 1
 89 560 109 550 109 520 c 1
 106 460 l 2
 104 432 80 405 55 405 c 0
 35 405 24 425 24 440 c 2
3 45 m 2
 16 315 l 2
 18 336 38 355 55 355 c 0
 75 355 96 330 96 305 c 1
 92 225 l 2
 90 195 72 185 70 165 c 1
 66 80 l 2
 64 55 31 30 21 30 c 0
 14 30 3 35 3 45 c 2
440 0 m 2
 35 0 l 2
 25 0 20 5 20 10 c 0
 20 15 30 22 40 32 c 1
 50 40 60 50 80 50 c 0
 100 50 115 75 140 75 c 2
 160 75 l 2
 200 75 200 60 230 60 c 0
 260 60 260 75 280 75 c 2
 350 75 l 2
 390 75 400 55 410 55 c 0
 420 55 430 50 440 40 c 0
 450 30 460 20 460 10 c 0
 460 5 450 0 440 0 c 2
424 90 m 2
 427 150 l 1
 427 176 410 194 410 220 c 1
 414 300 l 2
 416 335 455 355 465 355 c 0
 481 355 497 330 497 310 c 1
 484 60 l 2
 483 48 476 40 468 40 c 0
 444 40 424 70 424 90 c 2
405 340 m 2
 309 340 l 2
 283 340 259 359 259 380 c 0
 259 401 282 420 307 420 c 2
 407 420 l 2
 432 420 455 401 455 380 c 0
 455 359 431 340 405 340 c 2
EndSplineSet
EndChar

StartChar: H
Encoding: 72 72 41
Width: 650
GlyphClass: 2
Flags: W
LayerCount: 2
Fore
SplineSet
24 440 m 2
 36 690 l 1
 38 710 45 730 53 730 c 0
 63 730 93 695 93 670 c 1
 89 590 l 1
 89 560 109 550 109 520 c 1
 106 460 l 2
 104 432 80 405 55 405 c 0
 35 405 24 425 24 440 c 2
3 45 m 2
 16 315 l 2
 18 336 38 355 55 355 c 0
 75 355 96 330 96 305 c 1
 92 225 l 2
 90 195 72 185 70 165 c 1
 66 80 l 2
 64 55 31 30 21 30 c 0
 14 30 3 35 3 45 c 2
165 340 m 2
 119 340 l 2
 93 340 69 359 69 380 c 0
 69 401 92 420 117 420 c 2
 167 420 l 2
 192 420 215 401 215 380 c 0
 215 359 191 340 165 340 c 2
405 340 m 2
 309 340 l 2
 283 340 259 359 259 380 c 0
 259 401 282 420 307 420 c 2
 407 420 l 2
 432 420 455 401 455 380 c 0
 455 359 431 340 405 340 c 2
424 450 m 2
 428 535 l 1
 430 555 450 575 452 600 c 1
 455 680 l 1
 457 700 498 725 505 725 c 0
 512 725 519 713 519 700 c 2
 503 420 l 2
 502 409 487 400 471 400 c 0
 461 400 424 430 424 450 c 2
424 90 m 2
 427 150 l 1
 427 176 410 194 410 220 c 1
 414 300 l 2
 416 335 455 355 465 355 c 0
 481 355 497 330 497 310 c 1
 484 60 l 2
 483 48 476 40 468 40 c 0
 444 40 424 70 424 90 c 2
EndSplineSet
EndChar

StartChar: I
Encoding: 73 73 42
Width: 650
GlyphClass: 2
Flags: W
LayerCount: 2
Fore
SplineSet
440 0 m 2
 35 0 l 2
 25 0 20 5 20 10 c 0
 20 15 30 22 40 32 c 1
 50 40 60 50 80 50 c 0
 100 50 115 75 140 75 c 2
 160 75 l 2
 200 75 200 60 230 60 c 0
 260 60 260 75 280 75 c 2
 350 75 l 2
 390 75 400 55 410 55 c 0
 420 55 430 50 440 40 c 0
 450 30 460 20 460 10 c 0
 460 5 450 0 440 0 c 2
80 760 m 2
 470 760 l 2
 485 760 495 755 495 748 c 0
 495 735 465 702 455 702 c 2
 440 702 l 2
 420 702 420 688 405 688 c 2
 300 688 l 2
 280 688 280 700 260 700 c 0
 240 700 230 688 220 688 c 2
 160 688 l 2
 140 688 130 710 110 710 c 0
 80 710 65 745 65 750 c 0
 65 755 70 760 80 760 c 2
225 70 m 0
 207 70 185 95 185 110 c 2
 188 170 l 2
 191 215 205 215 205 250 c 1
 207 280 l 2
 209 320 213 350 235 350 c 0
 252 350 260 300 260 280 c 0
 260 255 265 230 265 200 c 2
 262 110 l 2
 261 90 245 70 225 70 c 0
242 400 m 0
 230 400 216 420 216 430 c 2
 220 500 l 1
 220 530 205 550 205 585 c 1
 209 650 l 2
 211 675 240 690 255 690 c 0
 270 690 290 675 290 655 c 1
 283 540 l 2
 282 520 268 500 267 470 c 2
 265 435 l 2
 264 425 255 400 242 400 c 0
EndSplineSet
EndChar

StartChar: J
Encoding: 74 74 43
Width: 650
GlyphClass: 2
Flags: W
LayerCount: 2
Fore
SplineSet
3 45 m 2
 16 315 l 2
 18 336 38 355 55 355 c 0
 75 355 96 330 96 305 c 1
 92 225 l 2
 90 195 72 185 70 165 c 1
 66 80 l 2
 64 55 31 30 21 30 c 0
 14 30 3 35 3 45 c 2
440 0 m 2
 35 0 l 2
 25 0 20 5 20 10 c 0
 20 15 30 22 40 32 c 1
 50 40 60 50 80 50 c 0
 100 50 115 75 140 75 c 2
 160 75 l 2
 200 75 200 60 230 60 c 0
 260 60 260 75 280 75 c 2
 350 75 l 2
 390 75 400 55 410 55 c 0
 420 55 430 50 440 40 c 0
 450 30 460 20 460 10 c 0
 460 5 450 0 440 0 c 2
424 90 m 2
 427 150 l 1
 427 176 410 194 410 220 c 1
 414 300 l 2
 416 335 455 355 465 355 c 0
 481 355 497 330 497 310 c 1
 484 60 l 2
 483 48 476 40 468 40 c 0
 444 40 424 70 424 90 c 2
424 450 m 2
 428 535 l 1
 430 555 450 575 452 600 c 1
 455 680 l 1
 457 700 498 725 505 725 c 0
 512 725 519 713 519 700 c 2
 503 420 l 2
 502 409 487 400 471 400 c 0
 461 400 424 430 424 450 c 2
EndSplineSet
EndChar

StartChar: K
Encoding: 75 75 44
Width: 650
GlyphClass: 2
Flags: W
LayerCount: 2
Fore
SplineSet
24 440 m 2
 36 690 l 1
 38 710 45 730 53 730 c 0
 63 730 93 695 93 670 c 1
 89 590 l 1
 89 560 109 550 109 520 c 1
 106 460 l 2
 104 432 80 405 55 405 c 0
 35 405 24 425 24 440 c 2
3 45 m 2
 16 315 l 2
 18 336 38 355 55 355 c 0
 75 355 96 330 96 305 c 1
 92 225 l 2
 90 195 72 185 70 165 c 1
 66 80 l 2
 64 55 31 30 21 30 c 0
 14 30 3 35 3 45 c 2
165 340 m 2
 119 340 l 2
 93 340 69 359 69 380 c 0
 69 401 92 420 117 420 c 2
 167 420 l 2
 192 420 215 401 215 380 c 0
 215 359 191 340 165 340 c 2
383 80 m 2
 280 260 l 2
 271 276 267 283 267 298 c 2
 268 318 l 2
 269 328 276 333 283 333 c 2
 311 333 l 2
 331 333 336 320 339 318 c 1
 399 208 l 2
 414 180 419 167 419 152 c 2
 416 92 l 1
 414 77 407 67 402 67 c 0
 398 67 387 73 383 80 c 2
323 427 m 2
 295 427 l 2
 280 427 273 435 273 450 c 1
 275 470 282 485 295 500 c 1
 403 663 l 2
 413 678 423 688 431 688 c 0
 441 688 447 673 447 653 c 1
 444 603 l 2
 442 576 433 566 423 553 c 1
 355 445 l 2
 348 435 338 427 323 427 c 2
EndSplineSet
EndChar

StartChar: L
Encoding: 76 76 45
Width: 650
GlyphClass: 2
Flags: W
LayerCount: 2
Fore
SplineSet
24 440 m 2
 36 690 l 1
 38 710 45 730 53 730 c 0
 63 730 93 695 93 670 c 1
 89 590 l 1
 89 560 109 550 109 520 c 1
 106 460 l 2
 104 432 80 405 55 405 c 0
 35 405 24 425 24 440 c 2
3 45 m 2
 16 315 l 2
 18 336 38 355 55 355 c 0
 75 355 96 330 96 305 c 1
 92 225 l 2
 90 195 72 185 70 165 c 1
 66 80 l 2
 64 55 31 30 21 30 c 0
 14 30 3 35 3 45 c 2
440 0 m 2
 35 0 l 2
 25 0 20 5 20 10 c 0
 20 15 30 22 40 32 c 1
 50 40 60 50 80 50 c 0
 100 50 115 75 140 75 c 2
 160 75 l 2
 200 75 200 60 230 60 c 0
 260 60 260 75 280 75 c 2
 350 75 l 2
 390 75 400 55 410 55 c 0
 420 55 430 50 440 40 c 0
 450 30 460 20 460 10 c 0
 460 5 450 0 440 0 c 2
EndSplineSet
EndChar

StartChar: M
Encoding: 77 77 46
Width: 650
GlyphClass: 2
Flags: W
LayerCount: 2
Fore
SplineSet
3 45 m 2
 16 315 l 2
 18 336 38 355 55 355 c 0
 75 355 96 330 96 305 c 1
 92 225 l 2
 90 195 72 185 70 165 c 1
 66 80 l 2
 64 55 31 30 21 30 c 0
 14 30 3 35 3 45 c 2
24 440 m 2
 36 690 l 1
 38 710 45 730 53 730 c 0
 63 730 93 695 93 670 c 1
 89 590 l 1
 89 560 109 550 109 520 c 1
 106 460 l 2
 104 432 80 405 55 405 c 0
 35 405 24 425 24 440 c 2
174 440 m 1
 111 553 l 2
 104 564 99 580 99 600 c 2
 102 680 l 2
 103 690 110 700 117 700 c 0
 125 700 132 690 137 680 c 2
 192 565 l 1
 202 547 210 535 210 515 c 1
 206 440 l 2
 205 430 199 420 194 420 c 0
 189 420 184 425 174 440 c 1
323 427 m 2
 295 427 l 2
 280 427 273 435 273 450 c 1
 275 470 282 485 295 500 c 1
 403 663 l 2
 413 678 423 688 431 688 c 0
 441 688 447 673 447 653 c 1
 444 603 l 2
 442 576 433 566 423 553 c 1
 355 445 l 2
 348 435 338 427 323 427 c 2
424 450 m 2
 428 535 l 1
 430 555 450 575 452 600 c 1
 455 680 l 1
 457 700 498 725 505 725 c 0
 512 725 519 713 519 700 c 2
 503 420 l 2
 502 409 487 400 471 400 c 0
 461 400 424 430 424 450 c 2
424 90 m 2
 427 150 l 1
 427 176 410 194 410 220 c 1
 414 300 l 2
 416 335 455 355 465 355 c 0
 481 355 497 330 497 310 c 1
 484 60 l 2
 483 48 476 40 468 40 c 0
 444 40 424 70 424 90 c 2
EndSplineSet
EndChar

StartChar: N
Encoding: 78 78 47
Width: 650
GlyphClass: 2
Flags: W
LayerCount: 2
Fore
SplineSet
3 45 m 2
 16 315 l 2
 18 336 38 355 55 355 c 0
 75 355 96 330 96 305 c 1
 92 225 l 2
 90 195 72 185 70 165 c 1
 66 80 l 2
 64 55 31 30 21 30 c 0
 14 30 3 35 3 45 c 2
24 440 m 2
 36 690 l 1
 38 710 45 730 53 730 c 0
 63 730 93 695 93 670 c 1
 89 590 l 1
 89 560 109 550 109 520 c 1
 106 460 l 2
 104 432 80 405 55 405 c 0
 35 405 24 425 24 440 c 2
174 440 m 1
 111 553 l 2
 104 564 99 580 99 600 c 2
 102 680 l 2
 103 690 110 700 117 700 c 0
 125 700 132 690 137 680 c 2
 192 565 l 1
 202 547 210 535 210 515 c 1
 206 440 l 2
 205 430 199 420 194 420 c 0
 189 420 184 425 174 440 c 1
383 80 m 2
 280 260 l 2
 271 276 267 283 267 298 c 2
 268 318 l 2
 269 328 276 333 283 333 c 2
 311 333 l 2
 331 333 336 320 339 318 c 1
 399 208 l 2
 414 180 419 167 419 152 c 2
 416 92 l 1
 414 77 407 67 402 67 c 0
 398 67 387 73 383 80 c 2
424 90 m 2
 427 150 l 1
 427 176 410 194 410 220 c 1
 414 300 l 2
 416 335 455 355 465 355 c 0
 481 355 497 330 497 310 c 1
 484 60 l 2
 483 48 476 40 468 40 c 0
 444 40 424 70 424 90 c 2
424 450 m 2
 428 535 l 1
 430 555 450 575 452 600 c 1
 455 680 l 1
 457 700 498 725 505 725 c 0
 512 725 519 713 519 700 c 2
 503 420 l 2
 502 409 487 400 471 400 c 0
 461 400 424 430 424 450 c 2
EndSplineSet
EndChar

StartChar: O
Encoding: 79 79 48
Width: 650
GlyphClass: 2
Flags: W
LayerCount: 2
Fore
SplineSet
3 45 m 2
 16 315 l 2
 18 336 38 355 55 355 c 0
 75 355 96 330 96 305 c 1
 92 225 l 2
 90 195 72 185 70 165 c 1
 66 80 l 2
 64 55 31 30 21 30 c 0
 14 30 3 35 3 45 c 2
440 0 m 2
 35 0 l 2
 25 0 20 5 20 10 c 0
 20 15 30 22 40 32 c 1
 50 40 60 50 80 50 c 0
 100 50 115 75 140 75 c 2
 160 75 l 2
 200 75 200 60 230 60 c 0
 260 60 260 75 280 75 c 2
 350 75 l 2
 390 75 400 55 410 55 c 0
 420 55 430 50 440 40 c 0
 450 30 460 20 460 10 c 0
 460 5 450 0 440 0 c 2
424 90 m 2
 427 150 l 1
 427 176 410 194 410 220 c 1
 414 300 l 2
 416 335 455 355 465 355 c 0
 481 355 497 330 497 310 c 1
 484 60 l 2
 483 48 476 40 468 40 c 0
 444 40 424 70 424 90 c 2
424 450 m 2
 428 535 l 1
 430 555 450 575 452 600 c 1
 455 680 l 1
 457 700 498 725 505 725 c 0
 512 725 519 713 519 700 c 2
 503 420 l 2
 502 409 487 400 471 400 c 0
 461 400 424 430 424 450 c 2
80 760 m 2
 470 760 l 2
 485 760 495 755 495 748 c 0
 495 735 465 702 455 702 c 2
 440 702 l 2
 420 702 420 688 405 688 c 2
 300 688 l 2
 280 688 280 700 260 700 c 0
 240 700 230 688 220 688 c 2
 160 688 l 2
 140 688 130 710 110 710 c 0
 80 710 65 745 65 750 c 0
 65 755 70 760 80 760 c 2
24 440 m 2
 36 690 l 1
 38 710 45 730 53 730 c 0
 63 730 93 695 93 670 c 1
 89 590 l 1
 89 560 109 550 109 520 c 1
 106 460 l 2
 104 432 80 405 55 405 c 0
 35 405 24 425 24 440 c 2
EndSplineSet
EndChar

StartChar: P
Encoding: 80 80 49
Width: 650
GlyphClass: 2
Flags: W
LayerCount: 2
Fore
SplineSet
3 45 m 2
 16 315 l 2
 18 336 38 355 55 355 c 0
 75 355 96 330 96 305 c 1
 92 225 l 2
 90 195 72 185 70 165 c 1
 66 80 l 2
 64 55 31 30 21 30 c 0
 14 30 3 35 3 45 c 2
24 440 m 2
 36 690 l 1
 38 710 45 730 53 730 c 0
 63 730 93 695 93 670 c 1
 89 590 l 1
 89 560 109 550 109 520 c 1
 106 460 l 2
 104 432 80 405 55 405 c 0
 35 405 24 425 24 440 c 2
80 760 m 2
 470 760 l 2
 485 760 495 755 495 748 c 0
 495 735 465 702 455 702 c 2
 440 702 l 2
 420 702 420 688 405 688 c 2
 300 688 l 2
 280 688 280 700 260 700 c 0
 240 700 230 688 220 688 c 2
 160 688 l 2
 140 688 130 710 110 710 c 0
 80 710 65 745 65 750 c 0
 65 755 70 760 80 760 c 2
424 450 m 2
 428 535 l 1
 430 555 450 575 452 600 c 1
 455 680 l 1
 457 700 498 725 505 725 c 0
 512 725 519 713 519 700 c 2
 503 420 l 2
 502 409 487 400 471 400 c 0
 461 400 424 430 424 450 c 2
405 340 m 2
 309 340 l 2
 283 340 259 359 259 380 c 0
 259 401 282 420 307 420 c 2
 407 420 l 2
 432 420 455 401 455 380 c 0
 455 359 431 340 405 340 c 2
165 340 m 2
 119 340 l 2
 93 340 69 359 69 380 c 0
 69 401 92 420 117 420 c 2
 167 420 l 2
 192 420 215 401 215 380 c 0
 215 359 191 340 165 340 c 2
EndSplineSet
EndChar

StartChar: Q
Encoding: 81 81 50
Width: 650
GlyphClass: 2
Flags: W
LayerCount: 2
Fore
SplineSet
3 45 m 2
 16 315 l 2
 18 336 38 355 55 355 c 0
 75 355 96 330 96 305 c 1
 92 225 l 2
 90 195 72 185 70 165 c 1
 66 80 l 2
 64 55 31 30 21 30 c 0
 14 30 3 35 3 45 c 2
440 0 m 2
 35 0 l 2
 25 0 20 5 20 10 c 0
 20 15 30 22 40 32 c 1
 50 40 60 50 80 50 c 0
 100 50 115 75 140 75 c 2
 160 75 l 2
 200 75 200 60 230 60 c 0
 260 60 260 75 280 75 c 2
 350 75 l 2
 390 75 400 55 410 55 c 0
 420 55 430 50 440 40 c 0
 450 30 460 20 460 10 c 0
 460 5 450 0 440 0 c 2
424 90 m 2
 427 150 l 1
 427 176 410 194 410 220 c 1
 414 300 l 2
 416 335 455 355 465 355 c 0
 481 355 497 330 497 310 c 1
 484 60 l 2
 483 48 476 40 468 40 c 0
 444 40 424 70 424 90 c 2
424 450 m 2
 428 535 l 1
 430 555 450 575 452 600 c 1
 455 680 l 1
 457 700 498 725 505 725 c 0
 512 725 519 713 519 700 c 2
 503 420 l 2
 502 409 487 400 471 400 c 0
 461 400 424 430 424 450 c 2
80 760 m 2
 470 760 l 2
 485 760 495 755 495 748 c 0
 495 735 465 702 455 702 c 2
 440 702 l 2
 420 702 420 688 405 688 c 2
 300 688 l 2
 280 688 280 700 260 700 c 0
 240 700 230 688 220 688 c 2
 160 688 l 2
 140 688 130 710 110 710 c 0
 80 710 65 745 65 750 c 0
 65 755 70 760 80 760 c 2
24 440 m 2
 36 690 l 1
 38 710 45 730 53 730 c 0
 63 730 93 695 93 670 c 1
 89 590 l 1
 89 560 109 550 109 520 c 1
 106 460 l 2
 104 432 80 405 55 405 c 0
 35 405 24 425 24 440 c 2
383 80 m 2
 280 260 l 2
 271 276 267 283 267 298 c 2
 268 318 l 2
 269 328 276 333 283 333 c 2
 311 333 l 2
 331 333 336 320 339 318 c 1
 399 208 l 2
 414 180 419 167 419 152 c 2
 416 92 l 1
 414 77 407 67 402 67 c 0
 398 67 387 73 383 80 c 2
EndSplineSet
EndChar

StartChar: R
Encoding: 82 82 51
Width: 650
GlyphClass: 2
Flags: W
LayerCount: 2
Fore
SplineSet
3 45 m 2
 16 315 l 2
 18 336 38 355 55 355 c 0
 75 355 96 330 96 305 c 1
 92 225 l 2
 90 195 72 185 70 165 c 1
 66 80 l 2
 64 55 31 30 21 30 c 0
 14 30 3 35 3 45 c 2
165 340 m 2
 119 340 l 2
 93 340 69 359 69 380 c 0
 69 401 92 420 117 420 c 2
 167 420 l 2
 192 420 215 401 215 380 c 0
 215 359 191 340 165 340 c 2
383 80 m 2
 280 260 l 2
 271 276 267 283 267 298 c 2
 268 318 l 2
 269 328 276 333 283 333 c 2
 311 333 l 2
 331 333 336 320 339 318 c 1
 399 208 l 2
 414 180 419 167 419 152 c 2
 416 92 l 1
 414 77 407 67 402 67 c 0
 398 67 387 73 383 80 c 2
405 340 m 2
 309 340 l 2
 283 340 259 359 259 380 c 0
 259 401 282 420 307 420 c 2
 407 420 l 2
 432 420 455 401 455 380 c 0
 455 359 431 340 405 340 c 2
424 450 m 2
 428 535 l 1
 430 555 450 575 452 600 c 1
 455 680 l 1
 457 700 498 725 505 725 c 0
 512 725 519 713 519 700 c 2
 503 420 l 2
 502 409 487 400 471 400 c 0
 461 400 424 430 424 450 c 2
80 760 m 2
 470 760 l 2
 485 760 495 755 495 748 c 0
 495 735 465 702 455 702 c 2
 440 702 l 2
 420 702 420 688 405 688 c 2
 300 688 l 2
 280 688 280 700 260 700 c 0
 240 700 230 688 220 688 c 2
 160 688 l 2
 140 688 130 710 110 710 c 0
 80 710 65 745 65 750 c 0
 65 755 70 760 80 760 c 2
24 440 m 2
 36 690 l 1
 38 710 45 730 53 730 c 0
 63 730 93 695 93 670 c 1
 89 590 l 1
 89 560 109 550 109 520 c 1
 106 460 l 2
 104 432 80 405 55 405 c 0
 35 405 24 425 24 440 c 2
EndSplineSet
EndChar

StartChar: S
Encoding: 83 83 52
Width: 650
GlyphClass: 2
Flags: W
LayerCount: 2
Fore
SplineSet
80 760 m 2
 470 760 l 2
 485 760 495 755 495 748 c 0
 495 735 465 702 455 702 c 2
 440 702 l 2
 420 702 420 688 405 688 c 2
 300 688 l 2
 280 688 280 700 260 700 c 0
 240 700 230 688 220 688 c 2
 160 688 l 2
 140 688 130 710 110 710 c 0
 80 710 65 745 65 750 c 0
 65 755 70 760 80 760 c 2
24 440 m 2
 36 690 l 1
 38 710 45 730 53 730 c 0
 63 730 93 695 93 670 c 1
 89 590 l 1
 89 560 109 550 109 520 c 1
 106 460 l 2
 104 432 80 405 55 405 c 0
 35 405 24 425 24 440 c 2
165 340 m 2
 119 340 l 2
 93 340 69 359 69 380 c 0
 69 401 92 420 117 420 c 2
 167 420 l 2
 192 420 215 401 215 380 c 0
 215 359 191 340 165 340 c 2
405 340 m 2
 309 340 l 2
 283 340 259 359 259 380 c 0
 259 401 282 420 307 420 c 2
 407 420 l 2
 432 420 455 401 455 380 c 0
 455 359 431 340 405 340 c 2
424 90 m 2
 427 150 l 1
 427 176 410 194 410 220 c 1
 414 300 l 2
 416 335 455 355 465 355 c 0
 481 355 497 330 497 310 c 1
 484 60 l 2
 483 48 476 40 468 40 c 0
 444 40 424 70 424 90 c 2
440 0 m 2
 35 0 l 2
 25 0 20 5 20 10 c 0
 20 15 30 22 40 32 c 1
 50 40 60 50 80 50 c 0
 100 50 115 75 140 75 c 2
 160 75 l 2
 200 75 200 60 230 60 c 0
 260 60 260 75 280 75 c 2
 350 75 l 2
 390 75 400 55 410 55 c 0
 420 55 430 50 440 40 c 0
 450 30 460 20 460 10 c 0
 460 5 450 0 440 0 c 2
EndSplineSet
EndChar

StartChar: T
Encoding: 84 84 53
Width: 650
GlyphClass: 2
Flags: W
LayerCount: 2
Fore
SplineSet
80 760 m 2
 470 760 l 2
 485 760 495 755 495 748 c 0
 495 735 465 702 455 702 c 2
 440 702 l 2
 420 702 420 688 405 688 c 2
 300 688 l 2
 280 688 280 700 260 700 c 0
 240 700 230 688 220 688 c 2
 160 688 l 2
 140 688 130 710 110 710 c 0
 80 710 65 745 65 750 c 0
 65 755 70 760 80 760 c 2
242 400 m 0
 230 400 216 420 216 430 c 2
 220 500 l 1
 220 530 205 550 205 585 c 1
 209 650 l 2
 211 675 240 690 255 690 c 0
 270 690 290 675 290 655 c 1
 283 540 l 2
 282 520 268 500 267 470 c 2
 265 435 l 2
 264 425 255 400 242 400 c 0
225 70 m 0
 207 70 185 95 185 110 c 2
 188 170 l 2
 191 215 205 215 205 250 c 1
 207 280 l 2
 209 320 213 350 235 350 c 0
 252 350 260 300 260 280 c 0
 260 255 265 230 265 200 c 2
 262 110 l 2
 261 90 245 70 225 70 c 0
EndSplineSet
EndChar

StartChar: U
Encoding: 85 85 54
Width: 650
GlyphClass: 2
Flags: W
LayerCount: 2
Fore
SplineSet
24 440 m 2
 36 690 l 1
 38 710 45 730 53 730 c 0
 63 730 93 695 93 670 c 1
 89 590 l 1
 89 560 109 550 109 520 c 1
 106 460 l 2
 104 432 80 405 55 405 c 0
 35 405 24 425 24 440 c 2
3 45 m 2
 16 315 l 2
 18 336 38 355 55 355 c 0
 75 355 96 330 96 305 c 1
 92 225 l 2
 90 195 72 185 70 165 c 1
 66 80 l 2
 64 55 31 30 21 30 c 0
 14 30 3 35 3 45 c 2
440 0 m 2
 35 0 l 2
 25 0 20 5 20 10 c 0
 20 15 30 22 40 32 c 1
 50 40 60 50 80 50 c 0
 100 50 115 75 140 75 c 2
 160 75 l 2
 200 75 200 60 230 60 c 0
 260 60 260 75 280 75 c 2
 350 75 l 2
 390 75 400 55 410 55 c 0
 420 55 430 50 440 40 c 0
 450 30 460 20 460 10 c 0
 460 5 450 0 440 0 c 2
424 90 m 2
 427 150 l 1
 427 176 410 194 410 220 c 1
 414 300 l 2
 416 335 455 355 465 355 c 0
 481 355 497 330 497 310 c 1
 484 60 l 2
 483 48 476 40 468 40 c 0
 444 40 424 70 424 90 c 2
424 450 m 2
 428 535 l 1
 430 555 450 575 452 600 c 1
 455 680 l 1
 457 700 498 725 505 725 c 0
 512 725 519 713 519 700 c 2
 503 420 l 2
 502 409 487 400 471 400 c 0
 461 400 424 430 424 450 c 2
EndSplineSet
EndChar

StartChar: V
Encoding: 86 86 55
Width: 650
GlyphClass: 2
Flags: W
LayerCount: 2
Fore
SplineSet
24 440 m 2
 36 690 l 1
 38 710 45 730 53 730 c 0
 63 730 93 695 93 670 c 1
 89 590 l 1
 89 560 109 550 109 520 c 1
 106 460 l 2
 104 432 80 405 55 405 c 0
 35 405 24 425 24 440 c 2
3 45 m 2
 16 315 l 2
 18 336 38 355 55 355 c 0
 75 355 96 330 96 305 c 1
 92 225 l 2
 90 195 72 185 70 165 c 1
 66 80 l 2
 64 55 31 30 21 30 c 0
 14 30 3 35 3 45 c 2
72 80 m 2
 75 145 l 1
 78 175 88 182 98 198 c 2
 163 308 l 1
 171 318 181 338 196 338 c 0
 200 338 203 328 203 318 c 2
 198 240 l 2
 196 220 188 210 186 208 c 2
 111 80 l 2
 105 68 93 60 83 60 c 0
 75 60 72 70 72 80 c 2
323 427 m 2
 295 427 l 2
 280 427 273 435 273 450 c 1
 275 470 282 485 295 500 c 1
 403 663 l 2
 413 678 423 688 431 688 c 0
 441 688 447 673 447 653 c 1
 444 603 l 2
 442 576 433 566 423 553 c 1
 355 445 l 2
 348 435 338 427 323 427 c 2
EndSplineSet
EndChar

StartChar: W
Encoding: 87 87 56
Width: 650
GlyphClass: 2
Flags: W
LayerCount: 2
Fore
SplineSet
24 440 m 2
 36 690 l 1
 38 710 45 730 53 730 c 0
 63 730 93 695 93 670 c 1
 89 590 l 1
 89 560 109 550 109 520 c 1
 106 460 l 2
 104 432 80 405 55 405 c 0
 35 405 24 425 24 440 c 2
3 45 m 2
 16 315 l 2
 18 336 38 355 55 355 c 0
 75 355 96 330 96 305 c 1
 92 225 l 2
 90 195 72 185 70 165 c 1
 66 80 l 2
 64 55 31 30 21 30 c 0
 14 30 3 35 3 45 c 2
72 80 m 2
 75 145 l 1
 78 175 88 182 98 198 c 2
 163 308 l 1
 171 318 181 338 196 338 c 0
 200 338 203 328 203 318 c 2
 198 240 l 2
 196 220 188 210 186 208 c 2
 111 80 l 2
 105 68 93 60 83 60 c 0
 75 60 72 70 72 80 c 2
383 80 m 2
 280 260 l 2
 271 276 267 283 267 298 c 2
 268 318 l 2
 269 328 276 333 283 333 c 2
 311 333 l 2
 331 333 336 320 339 318 c 1
 399 208 l 2
 414 180 419 167 419 152 c 2
 416 92 l 1
 414 77 407 67 402 67 c 0
 398 67 387 73 383 80 c 2
424 90 m 2
 427 150 l 1
 427 176 410 194 410 220 c 1
 414 300 l 2
 416 335 455 355 465 355 c 0
 481 355 497 330 497 310 c 1
 484 60 l 2
 483 48 476 40 468 40 c 0
 444 40 424 70 424 90 c 2
424 450 m 2
 428 535 l 1
 430 555 450 575 452 600 c 1
 455 680 l 1
 457 700 498 725 505 725 c 0
 512 725 519 713 519 700 c 2
 503 420 l 2
 502 409 487 400 471 400 c 0
 461 400 424 430 424 450 c 2
EndSplineSet
EndChar

StartChar: X
Encoding: 88 88 57
Width: 650
GlyphClass: 2
Flags: W
LayerCount: 2
Fore
SplineSet
72 80 m 2
 75 145 l 1
 78 175 88 182 98 198 c 2
 163 308 l 1
 171 318 181 338 196 338 c 0
 200 338 203 328 203 318 c 2
 198 240 l 2
 196 220 188 210 186 208 c 2
 111 80 l 2
 105 68 93 60 83 60 c 0
 75 60 72 70 72 80 c 2
383 80 m 2
 280 260 l 2
 271 276 267 283 267 298 c 2
 268 318 l 2
 269 328 276 333 283 333 c 2
 311 333 l 2
 331 333 336 320 339 318 c 1
 399 208 l 2
 414 180 419 167 419 152 c 2
 416 92 l 1
 414 77 407 67 402 67 c 0
 398 67 387 73 383 80 c 2
323 427 m 2
 295 427 l 2
 280 427 273 435 273 450 c 1
 275 470 282 485 295 500 c 1
 403 663 l 2
 413 678 423 688 431 688 c 0
 441 688 447 673 447 653 c 1
 444 603 l 2
 442 576 433 566 423 553 c 1
 355 445 l 2
 348 435 338 427 323 427 c 2
174 440 m 1
 111 553 l 2
 104 564 99 580 99 600 c 2
 102 680 l 2
 103 690 110 700 117 700 c 0
 125 700 132 690 137 680 c 2
 192 565 l 1
 202 547 210 535 210 515 c 1
 206 440 l 2
 205 430 199 420 194 420 c 0
 189 420 184 425 174 440 c 1
EndSplineSet
EndChar

StartChar: Y
Encoding: 89 89 58
Width: 650
GlyphClass: 2
Flags: W
LayerCount: 2
Fore
SplineSet
174 440 m 1
 111 553 l 2
 104 564 99 580 99 600 c 2
 102 680 l 2
 103 690 110 700 117 700 c 0
 125 700 132 690 137 680 c 2
 192 565 l 1
 202 547 210 535 210 515 c 1
 206 440 l 2
 205 430 199 420 194 420 c 0
 189 420 184 425 174 440 c 1
323 427 m 2
 295 427 l 2
 280 427 273 435 273 450 c 1
 275 470 282 485 295 500 c 1
 403 663 l 2
 413 678 423 688 431 688 c 0
 441 688 447 673 447 653 c 1
 444 603 l 2
 442 576 433 566 423 553 c 1
 355 445 l 2
 348 435 338 427 323 427 c 2
225 70 m 0
 207 70 185 95 185 110 c 2
 188 170 l 2
 191 215 205 215 205 250 c 1
 207 280 l 2
 209 320 213 350 235 350 c 0
 252 350 260 300 260 280 c 0
 260 255 265 230 265 200 c 2
 262 110 l 2
 261 90 245 70 225 70 c 0
EndSplineSet
EndChar

StartChar: Z
Encoding: 90 90 59
Width: 650
GlyphClass: 2
Flags: W
LayerCount: 2
Fore
SplineSet
80 760 m 2
 470 760 l 2
 485 760 495 755 495 748 c 0
 495 735 465 702 455 702 c 2
 440 702 l 2
 420 702 420 688 405 688 c 2
 300 688 l 2
 280 688 280 700 260 700 c 0
 240 700 230 688 220 688 c 2
 160 688 l 2
 140 688 130 710 110 710 c 0
 80 710 65 745 65 750 c 0
 65 755 70 760 80 760 c 2
440 0 m 2
 35 0 l 2
 25 0 20 5 20 10 c 0
 20 15 30 22 40 32 c 1
 50 40 60 50 80 50 c 0
 100 50 115 75 140 75 c 2
 160 75 l 2
 200 75 200 60 230 60 c 0
 260 60 260 75 280 75 c 2
 350 75 l 2
 390 75 400 55 410 55 c 0
 420 55 430 50 440 40 c 0
 450 30 460 20 460 10 c 0
 460 5 450 0 440 0 c 2
72 80 m 2
 75 145 l 1
 78 175 88 182 98 198 c 2
 163 308 l 1
 171 318 181 338 196 338 c 0
 200 338 203 328 203 318 c 2
 198 240 l 2
 196 220 188 210 186 208 c 2
 111 80 l 2
 105 68 93 60 83 60 c 0
 75 60 72 70 72 80 c 2
323 427 m 2
 295 427 l 2
 280 427 273 435 273 450 c 1
 275 470 282 485 295 500 c 1
 403 663 l 2
 413 678 423 688 431 688 c 0
 441 688 447 673 447 653 c 1
 444 603 l 2
 442 576 433 566 423 553 c 1
 355 445 l 2
 348 435 338 427 323 427 c 2
EndSplineSet
EndChar

StartChar: bracketleft
Encoding: 91 91 60
Width: 650
GlyphClass: 2
Flags: W
LayerCount: 2
Fore
SplineSet
3 45 m 2
 16 315 l 2
 18 336 38 355 55 355 c 0
 75 355 96 330 96 305 c 1
 92 225 l 2
 90 195 72 185 70 165 c 1
 66 80 l 2
 64 55 31 30 21 30 c 0
 14 30 3 35 3 45 c 2
80 760 m 2
 470 760 l 2
 485 760 495 755 495 748 c 0
 495 735 465 702 455 702 c 2
 440 702 l 2
 420 702 420 688 405 688 c 2
 300 688 l 2
 280 688 280 700 260 700 c 0
 240 700 230 688 220 688 c 2
 160 688 l 2
 140 688 130 710 110 710 c 0
 80 710 65 745 65 750 c 0
 65 755 70 760 80 760 c 2
24 440 m 2
 36 690 l 1
 38 710 45 730 53 730 c 0
 63 730 93 695 93 670 c 1
 89 590 l 1
 89 560 109 550 109 520 c 1
 106 460 l 2
 104 432 80 405 55 405 c 0
 35 405 24 425 24 440 c 2
EndSplineSet
EndChar

StartChar: backslash
Encoding: 92 92 61
Width: 650
GlyphClass: 2
Flags: W
LayerCount: 2
Fore
SplineSet
383 80 m 2
 280 260 l 2
 271 276 267 283 267 298 c 2
 268 318 l 2
 269 328 276 333 283 333 c 2
 311 333 l 2
 331 333 336 320 339 318 c 1
 399 208 l 2
 414 180 419 167 419 152 c 2
 416 92 l 1
 414 77 407 67 402 67 c 0
 398 67 387 73 383 80 c 2
174 440 m 1
 111 553 l 2
 104 564 99 580 99 600 c 2
 102 680 l 2
 103 690 110 700 117 700 c 0
 125 700 132 690 137 680 c 2
 192 565 l 1
 202 547 210 535 210 515 c 1
 206 440 l 2
 205 430 199 420 194 420 c 0
 189 420 184 425 174 440 c 1
EndSplineSet
EndChar

StartChar: bracketright
Encoding: 93 93 62
Width: 650
GlyphClass: 2
Flags: W
LayerCount: 2
Fore
SplineSet
440 0 m 2
 35 0 l 2
 25 0 20 5 20 10 c 0
 20 15 30 22 40 32 c 1
 50 40 60 50 80 50 c 0
 100 50 115 75 140 75 c 2
 160 75 l 2
 200 75 200 60 230 60 c 0
 260 60 260 75 280 75 c 2
 350 75 l 2
 390 75 400 55 410 55 c 0
 420 55 430 50 440 40 c 0
 450 30 460 20 460 10 c 0
 460 5 450 0 440 0 c 2
424 90 m 2
 427 150 l 1
 427 176 410 194 410 220 c 1
 414 300 l 2
 416 335 455 355 465 355 c 0
 481 355 497 330 497 310 c 1
 484 60 l 2
 483 48 476 40 468 40 c 0
 444 40 424 70 424 90 c 2
424 450 m 2
 428 535 l 1
 430 555 450 575 452 600 c 1
 455 680 l 1
 457 700 498 725 505 725 c 0
 512 725 519 713 519 700 c 2
 503 420 l 2
 502 409 487 400 471 400 c 0
 461 400 424 430 424 450 c 2
EndSplineSet
EndChar

StartChar: asciicircum
Encoding: 94 94 63
Width: 650
GlyphClass: 2
Flags: W
LayerCount: 2
Fore
SplineSet
72 80 m 2
 75 145 l 1
 78 175 88 182 98 198 c 2
 163 308 l 1
 171 318 181 338 196 338 c 0
 200 338 203 328 203 318 c 2
 198 240 l 2
 196 220 188 210 186 208 c 2
 111 80 l 2
 105 68 93 60 83 60 c 0
 75 60 72 70 72 80 c 2
383 80 m 2
 280 260 l 2
 271 276 267 283 267 298 c 2
 268 318 l 2
 269 328 276 333 283 333 c 2
 311 333 l 2
 331 333 336 320 339 318 c 1
 399 208 l 2
 414 180 419 167 419 152 c 2
 416 92 l 1
 414 77 407 67 402 67 c 0
 398 67 387 73 383 80 c 2
EndSplineSet
EndChar

StartChar: underscore
Encoding: 95 95 64
Width: 650
GlyphClass: 2
Flags: W
LayerCount: 2
Fore
SplineSet
440 0 m 2
 35 0 l 2
 25 0 20 5 20 10 c 0
 20 15 30 22 40 32 c 1
 50 40 60 50 80 50 c 0
 100 50 115 75 140 75 c 2
 160 75 l 2
 200 75 200 60 230 60 c 0
 260 60 260 75 280 75 c 2
 350 75 l 2
 390 75 400 55 410 55 c 0
 420 55 430 50 440 40 c 0
 450 30 460 20 460 10 c 0
 460 5 450 0 440 0 c 2
EndSplineSet
EndChar

StartChar: grave
Encoding: 96 96 65
AltUni2: 000091.ffffffff.0
Width: 650
GlyphClass: 2
Flags: W
LayerCount: 2
Fore
SplineSet
174 440 m 1
 111 553 l 2
 104 564 99 580 99 600 c 2
 102 680 l 2
 103 690 110 700 117 700 c 0
 125 700 132 690 137 680 c 2
 192 565 l 1
 202 547 210 535 210 515 c 1
 206 440 l 2
 205 430 199 420 194 420 c 0
 189 420 184 425 174 440 c 1
EndSplineSet
EndChar

StartChar: a
Encoding: 97 97 66
Width: 650
GlyphClass: 2
Flags: W
LayerCount: 2
Fore
SplineSet
3 45 m 2
 16 315 l 2
 18 336 38 355 55 355 c 0
 75 355 96 330 96 305 c 1
 92 225 l 2
 90 195 72 185 70 165 c 1
 66 80 l 2
 64 55 31 30 21 30 c 0
 14 30 3 35 3 45 c 2
24 440 m 2
 36 690 l 1
 38 710 45 730 53 730 c 0
 63 730 93 695 93 670 c 1
 89 590 l 1
 89 560 109 550 109 520 c 1
 106 460 l 2
 104 432 80 405 55 405 c 0
 35 405 24 425 24 440 c 2
80 760 m 2
 470 760 l 2
 485 760 495 755 495 748 c 0
 495 735 465 702 455 702 c 2
 440 702 l 2
 420 702 420 688 405 688 c 2
 300 688 l 2
 280 688 280 700 260 700 c 0
 240 700 230 688 220 688 c 2
 160 688 l 2
 140 688 130 710 110 710 c 0
 80 710 65 745 65 750 c 0
 65 755 70 760 80 760 c 2
424 450 m 2
 428 535 l 1
 430 555 450 575 452 600 c 1
 455 680 l 1
 457 700 498 725 505 725 c 0
 512 725 519 713 519 700 c 2
 503 420 l 2
 502 409 487 400 471 400 c 0
 461 400 424 430 424 450 c 2
424 90 m 2
 427 150 l 1
 427 176 410 194 410 220 c 1
 414 300 l 2
 416 335 455 355 465 355 c 0
 481 355 497 330 497 310 c 1
 484 60 l 2
 483 48 476 40 468 40 c 0
 444 40 424 70 424 90 c 2
165 340 m 2
 119 340 l 2
 93 340 69 359 69 380 c 0
 69 401 92 420 117 420 c 2
 167 420 l 2
 192 420 215 401 215 380 c 0
 215 359 191 340 165 340 c 2
405 340 m 2
 309 340 l 2
 283 340 259 359 259 380 c 0
 259 401 282 420 307 420 c 2
 407 420 l 2
 432 420 455 401 455 380 c 0
 455 359 431 340 405 340 c 2
EndSplineSet
EndChar

StartChar: b
Encoding: 98 98 67
Width: 650
GlyphClass: 2
Flags: W
LayerCount: 2
Fore
SplineSet
440 0 m 2
 35 0 l 2
 25 0 20 5 20 10 c 0
 20 15 30 22 40 32 c 1
 50 40 60 50 80 50 c 0
 100 50 115 75 140 75 c 2
 160 75 l 2
 200 75 200 60 230 60 c 0
 260 60 260 75 280 75 c 2
 350 75 l 2
 390 75 400 55 410 55 c 0
 420 55 430 50 440 40 c 0
 450 30 460 20 460 10 c 0
 460 5 450 0 440 0 c 2
424 90 m 2
 427 150 l 1
 427 176 410 194 410 220 c 1
 414 300 l 2
 416 335 455 355 465 355 c 0
 481 355 497 330 497 310 c 1
 484 60 l 2
 483 48 476 40 468 40 c 0
 444 40 424 70 424 90 c 2
424 450 m 2
 428 535 l 1
 430 555 450 575 452 600 c 1
 455 680 l 1
 457 700 498 725 505 725 c 0
 512 725 519 713 519 700 c 2
 503 420 l 2
 502 409 487 400 471 400 c 0
 461 400 424 430 424 450 c 2
80 760 m 2
 470 760 l 2
 485 760 495 755 495 748 c 0
 495 735 465 702 455 702 c 2
 440 702 l 2
 420 702 420 688 405 688 c 2
 300 688 l 2
 280 688 280 700 260 700 c 0
 240 700 230 688 220 688 c 2
 160 688 l 2
 140 688 130 710 110 710 c 0
 80 710 65 745 65 750 c 0
 65 755 70 760 80 760 c 2
225 70 m 0
 207 70 185 95 185 110 c 2
 188 170 l 2
 191 215 205 215 205 250 c 1
 207 280 l 2
 209 320 213 350 235 350 c 0
 252 350 260 300 260 280 c 0
 260 255 265 230 265 200 c 2
 262 110 l 2
 261 90 245 70 225 70 c 0
242 400 m 0
 230 400 216 420 216 430 c 2
 220 500 l 1
 220 530 205 550 205 585 c 1
 209 650 l 2
 211 675 240 690 255 690 c 0
 270 690 290 675 290 655 c 1
 283 540 l 2
 282 520 268 500 267 470 c 2
 265 435 l 2
 264 425 255 400 242 400 c 0
405 340 m 2
 309 340 l 2
 283 340 259 359 259 380 c 0
 259 401 282 420 307 420 c 2
 407 420 l 2
 432 420 455 401 455 380 c 0
 455 359 431 340 405 340 c 2
EndSplineSet
EndChar

StartChar: c
Encoding: 99 99 68
Width: 650
GlyphClass: 2
Flags: W
LayerCount: 2
Fore
SplineSet
80 760 m 2
 470 760 l 2
 485 760 495 755 495 748 c 0
 495 735 465 702 455 702 c 2
 440 702 l 2
 420 702 420 688 405 688 c 2
 300 688 l 2
 280 688 280 700 260 700 c 0
 240 700 230 688 220 688 c 2
 160 688 l 2
 140 688 130 710 110 710 c 0
 80 710 65 745 65 750 c 0
 65 755 70 760 80 760 c 2
24 440 m 2
 36 690 l 1
 38 710 45 730 53 730 c 0
 63 730 93 695 93 670 c 1
 89 590 l 1
 89 560 109 550 109 520 c 1
 106 460 l 2
 104 432 80 405 55 405 c 0
 35 405 24 425 24 440 c 2
3 45 m 2
 16 315 l 2
 18 336 38 355 55 355 c 0
 75 355 96 330 96 305 c 1
 92 225 l 2
 90 195 72 185 70 165 c 1
 66 80 l 2
 64 55 31 30 21 30 c 0
 14 30 3 35 3 45 c 2
440 0 m 2
 35 0 l 2
 25 0 20 5 20 10 c 0
 20 15 30 22 40 32 c 1
 50 40 60 50 80 50 c 0
 100 50 115 75 140 75 c 2
 160 75 l 2
 200 75 200 60 230 60 c 0
 260 60 260 75 280 75 c 2
 350 75 l 2
 390 75 400 55 410 55 c 0
 420 55 430 50 440 40 c 0
 450 30 460 20 460 10 c 0
 460 5 450 0 440 0 c 2
EndSplineSet
EndChar

StartChar: d
Encoding: 100 100 69
Width: 650
GlyphClass: 2
Flags: W
LayerCount: 2
Fore
SplineSet
440 0 m 2
 35 0 l 2
 25 0 20 5 20 10 c 0
 20 15 30 22 40 32 c 1
 50 40 60 50 80 50 c 0
 100 50 115 75 140 75 c 2
 160 75 l 2
 200 75 200 60 230 60 c 0
 260 60 260 75 280 75 c 2
 350 75 l 2
 390 75 400 55 410 55 c 0
 420 55 430 50 440 40 c 0
 450 30 460 20 460 10 c 0
 460 5 450 0 440 0 c 2
424 90 m 2
 427 150 l 1
 427 176 410 194 410 220 c 1
 414 300 l 2
 416 335 455 355 465 355 c 0
 481 355 497 330 497 310 c 1
 484 60 l 2
 483 48 476 40 468 40 c 0
 444 40 424 70 424 90 c 2
424 450 m 2
 428 535 l 1
 430 555 450 575 452 600 c 1
 455 680 l 1
 457 700 498 725 505 725 c 0
 512 725 519 713 519 700 c 2
 503 420 l 2
 502 409 487 400 471 400 c 0
 461 400 424 430 424 450 c 2
80 760 m 2
 470 760 l 2
 485 760 495 755 495 748 c 0
 495 735 465 702 455 702 c 2
 440 702 l 2
 420 702 420 688 405 688 c 2
 300 688 l 2
 280 688 280 700 260 700 c 0
 240 700 230 688 220 688 c 2
 160 688 l 2
 140 688 130 710 110 710 c 0
 80 710 65 745 65 750 c 0
 65 755 70 760 80 760 c 2
225 70 m 0
 207 70 185 95 185 110 c 2
 188 170 l 2
 191 215 205 215 205 250 c 1
 207 280 l 2
 209 320 213 350 235 350 c 0
 252 350 260 300 260 280 c 0
 260 255 265 230 265 200 c 2
 262 110 l 2
 261 90 245 70 225 70 c 0
242 400 m 0
 230 400 216 420 216 430 c 2
 220 500 l 1
 220 530 205 550 205 585 c 1
 209 650 l 2
 211 675 240 690 255 690 c 0
 270 690 290 675 290 655 c 1
 283 540 l 2
 282 520 268 500 267 470 c 2
 265 435 l 2
 264 425 255 400 242 400 c 0
EndSplineSet
EndChar

StartChar: e
Encoding: 101 101 70
Width: 650
GlyphClass: 2
Flags: W
LayerCount: 2
Fore
SplineSet
80 760 m 2
 470 760 l 2
 485 760 495 755 495 748 c 0
 495 735 465 702 455 702 c 2
 440 702 l 2
 420 702 420 688 405 688 c 2
 300 688 l 2
 280 688 280 700 260 700 c 0
 240 700 230 688 220 688 c 2
 160 688 l 2
 140 688 130 710 110 710 c 0
 80 710 65 745 65 750 c 0
 65 755 70 760 80 760 c 2
24 440 m 2
 36 690 l 1
 38 710 45 730 53 730 c 0
 63 730 93 695 93 670 c 1
 89 590 l 1
 89 560 109 550 109 520 c 1
 106 460 l 2
 104 432 80 405 55 405 c 0
 35 405 24 425 24 440 c 2
3 45 m 2
 16 315 l 2
 18 336 38 355 55 355 c 0
 75 355 96 330 96 305 c 1
 92 225 l 2
 90 195 72 185 70 165 c 1
 66 80 l 2
 64 55 31 30 21 30 c 0
 14 30 3 35 3 45 c 2
440 0 m 2
 35 0 l 2
 25 0 20 5 20 10 c 0
 20 15 30 22 40 32 c 1
 50 40 60 50 80 50 c 0
 100 50 115 75 140 75 c 2
 160 75 l 2
 200 75 200 60 230 60 c 0
 260 60 260 75 280 75 c 2
 350 75 l 2
 390 75 400 55 410 55 c 0
 420 55 430 50 440 40 c 0
 450 30 460 20 460 10 c 0
 460 5 450 0 440 0 c 2
165 340 m 2
 119 340 l 2
 93 340 69 359 69 380 c 0
 69 401 92 420 117 420 c 2
 167 420 l 2
 192 420 215 401 215 380 c 0
 215 359 191 340 165 340 c 2
EndSplineSet
EndChar

StartChar: f
Encoding: 102 102 71
Width: 650
GlyphClass: 2
Flags: W
LayerCount: 2
Fore
SplineSet
80 760 m 2
 470 760 l 2
 485 760 495 755 495 748 c 0
 495 735 465 702 455 702 c 2
 440 702 l 2
 420 702 420 688 405 688 c 2
 300 688 l 2
 280 688 280 700 260 700 c 0
 240 700 230 688 220 688 c 2
 160 688 l 2
 140 688 130 710 110 710 c 0
 80 710 65 745 65 750 c 0
 65 755 70 760 80 760 c 2
24 440 m 2
 36 690 l 1
 38 710 45 730 53 730 c 0
 63 730 93 695 93 670 c 1
 89 590 l 1
 89 560 109 550 109 520 c 1
 106 460 l 2
 104 432 80 405 55 405 c 0
 35 405 24 425 24 440 c 2
3 45 m 2
 16 315 l 2
 18 336 38 355 55 355 c 0
 75 355 96 330 96 305 c 1
 92 225 l 2
 90 195 72 185 70 165 c 1
 66 80 l 2
 64 55 31 30 21 30 c 0
 14 30 3 35 3 45 c 2
165 340 m 2
 119 340 l 2
 93 340 69 359 69 380 c 0
 69 401 92 420 117 420 c 2
 167 420 l 2
 192 420 215 401 215 380 c 0
 215 359 191 340 165 340 c 2
EndSplineSet
EndChar

StartChar: g
Encoding: 103 103 72
Width: 650
GlyphClass: 2
Flags: W
LayerCount: 2
Fore
SplineSet
80 760 m 2
 470 760 l 2
 485 760 495 755 495 748 c 0
 495 735 465 702 455 702 c 2
 440 702 l 2
 420 702 420 688 405 688 c 2
 300 688 l 2
 280 688 280 700 260 700 c 0
 240 700 230 688 220 688 c 2
 160 688 l 2
 140 688 130 710 110 710 c 0
 80 710 65 745 65 750 c 0
 65 755 70 760 80 760 c 2
24 440 m 2
 36 690 l 1
 38 710 45 730 53 730 c 0
 63 730 93 695 93 670 c 1
 89 590 l 1
 89 560 109 550 109 520 c 1
 106 460 l 2
 104 432 80 405 55 405 c 0
 35 405 24 425 24 440 c 2
3 45 m 2
 16 315 l 2
 18 336 38 355 55 355 c 0
 75 355 96 330 96 305 c 1
 92 225 l 2
 90 195 72 185 70 165 c 1
 66 80 l 2
 64 55 31 30 21 30 c 0
 14 30 3 35 3 45 c 2
440 0 m 2
 35 0 l 2
 25 0 20 5 20 10 c 0
 20 15 30 22 40 32 c 1
 50 40 60 50 80 50 c 0
 100 50 115 75 140 75 c 2
 160 75 l 2
 200 75 200 60 230 60 c 0
 260 60 260 75 280 75 c 2
 350 75 l 2
 390 75 400 55 410 55 c 0
 420 55 430 50 440 40 c 0
 450 30 460 20 460 10 c 0
 460 5 450 0 440 0 c 2
424 90 m 2
 427 150 l 1
 427 176 410 194 410 220 c 1
 414 300 l 2
 416 335 455 355 465 355 c 0
 481 355 497 330 497 310 c 1
 484 60 l 2
 483 48 476 40 468 40 c 0
 444 40 424 70 424 90 c 2
405 340 m 2
 309 340 l 2
 283 340 259 359 259 380 c 0
 259 401 282 420 307 420 c 2
 407 420 l 2
 432 420 455 401 455 380 c 0
 455 359 431 340 405 340 c 2
EndSplineSet
EndChar

StartChar: h
Encoding: 104 104 73
Width: 650
GlyphClass: 2
Flags: W
LayerCount: 2
Fore
SplineSet
24 440 m 2
 36 690 l 1
 38 710 45 730 53 730 c 0
 63 730 93 695 93 670 c 1
 89 590 l 1
 89 560 109 550 109 520 c 1
 106 460 l 2
 104 432 80 405 55 405 c 0
 35 405 24 425 24 440 c 2
3 45 m 2
 16 315 l 2
 18 336 38 355 55 355 c 0
 75 355 96 330 96 305 c 1
 92 225 l 2
 90 195 72 185 70 165 c 1
 66 80 l 2
 64 55 31 30 21 30 c 0
 14 30 3 35 3 45 c 2
165 340 m 2
 119 340 l 2
 93 340 69 359 69 380 c 0
 69 401 92 420 117 420 c 2
 167 420 l 2
 192 420 215 401 215 380 c 0
 215 359 191 340 165 340 c 2
405 340 m 2
 309 340 l 2
 283 340 259 359 259 380 c 0
 259 401 282 420 307 420 c 2
 407 420 l 2
 432 420 455 401 455 380 c 0
 455 359 431 340 405 340 c 2
424 450 m 2
 428 535 l 1
 430 555 450 575 452 600 c 1
 455 680 l 1
 457 700 498 725 505 725 c 0
 512 725 519 713 519 700 c 2
 503 420 l 2
 502 409 487 400 471 400 c 0
 461 400 424 430 424 450 c 2
424 90 m 2
 427 150 l 1
 427 176 410 194 410 220 c 1
 414 300 l 2
 416 335 455 355 465 355 c 0
 481 355 497 330 497 310 c 1
 484 60 l 2
 483 48 476 40 468 40 c 0
 444 40 424 70 424 90 c 2
EndSplineSet
EndChar

StartChar: i
Encoding: 105 105 74
Width: 650
GlyphClass: 2
Flags: W
LayerCount: 2
Fore
SplineSet
440 0 m 2
 35 0 l 2
 25 0 20 5 20 10 c 0
 20 15 30 22 40 32 c 1
 50 40 60 50 80 50 c 0
 100 50 115 75 140 75 c 2
 160 75 l 2
 200 75 200 60 230 60 c 0
 260 60 260 75 280 75 c 2
 350 75 l 2
 390 75 400 55 410 55 c 0
 420 55 430 50 440 40 c 0
 450 30 460 20 460 10 c 0
 460 5 450 0 440 0 c 2
80 760 m 2
 470 760 l 2
 485 760 495 755 495 748 c 0
 495 735 465 702 455 702 c 2
 440 702 l 2
 420 702 420 688 405 688 c 2
 300 688 l 2
 280 688 280 700 260 700 c 0
 240 700 230 688 220 688 c 2
 160 688 l 2
 140 688 130 710 110 710 c 0
 80 710 65 745 65 750 c 0
 65 755 70 760 80 760 c 2
225 70 m 0
 207 70 185 95 185 110 c 2
 188 170 l 2
 191 215 205 215 205 250 c 1
 207 280 l 2
 209 320 213 350 235 350 c 0
 252 350 260 300 260 280 c 0
 260 255 265 230 265 200 c 2
 262 110 l 2
 261 90 245 70 225 70 c 0
242 400 m 0
 230 400 216 420 216 430 c 2
 220 500 l 1
 220 530 205 550 205 585 c 1
 209 650 l 2
 211 675 240 690 255 690 c 0
 270 690 290 675 290 655 c 1
 283 540 l 2
 282 520 268 500 267 470 c 2
 265 435 l 2
 264 425 255 400 242 400 c 0
EndSplineSet
EndChar

StartChar: j
Encoding: 106 106 75
Width: 650
GlyphClass: 2
Flags: W
LayerCount: 2
Fore
SplineSet
3 45 m 2
 16 315 l 2
 18 336 38 355 55 355 c 0
 75 355 96 330 96 305 c 1
 92 225 l 2
 90 195 72 185 70 165 c 1
 66 80 l 2
 64 55 31 30 21 30 c 0
 14 30 3 35 3 45 c 2
440 0 m 2
 35 0 l 2
 25 0 20 5 20 10 c 0
 20 15 30 22 40 32 c 1
 50 40 60 50 80 50 c 0
 100 50 115 75 140 75 c 2
 160 75 l 2
 200 75 200 60 230 60 c 0
 260 60 260 75 280 75 c 2
 350 75 l 2
 390 75 400 55 410 55 c 0
 420 55 430 50 440 40 c 0
 450 30 460 20 460 10 c 0
 460 5 450 0 440 0 c 2
424 90 m 2
 427 150 l 1
 427 176 410 194 410 220 c 1
 414 300 l 2
 416 335 455 355 465 355 c 0
 481 355 497 330 497 310 c 1
 484 60 l 2
 483 48 476 40 468 40 c 0
 444 40 424 70 424 90 c 2
424 450 m 2
 428 535 l 1
 430 555 450 575 452 600 c 1
 455 680 l 1
 457 700 498 725 505 725 c 0
 512 725 519 713 519 700 c 2
 503 420 l 2
 502 409 487 400 471 400 c 0
 461 400 424 430 424 450 c 2
EndSplineSet
EndChar

StartChar: k
Encoding: 107 107 76
Width: 650
GlyphClass: 2
Flags: W
LayerCount: 2
Fore
SplineSet
24 440 m 2
 36 690 l 1
 38 710 45 730 53 730 c 0
 63 730 93 695 93 670 c 1
 89 590 l 1
 89 560 109 550 109 520 c 1
 106 460 l 2
 104 432 80 405 55 405 c 0
 35 405 24 425 24 440 c 2
3 45 m 2
 16 315 l 2
 18 336 38 355 55 355 c 0
 75 355 96 330 96 305 c 1
 92 225 l 2
 90 195 72 185 70 165 c 1
 66 80 l 2
 64 55 31 30 21 30 c 0
 14 30 3 35 3 45 c 2
165 340 m 2
 119 340 l 2
 93 340 69 359 69 380 c 0
 69 401 92 420 117 420 c 2
 167 420 l 2
 192 420 215 401 215 380 c 0
 215 359 191 340 165 340 c 2
383 80 m 2
 280 260 l 2
 271 276 267 283 267 298 c 2
 268 318 l 2
 269 328 276 333 283 333 c 2
 311 333 l 2
 331 333 336 320 339 318 c 1
 399 208 l 2
 414 180 419 167 419 152 c 2
 416 92 l 1
 414 77 407 67 402 67 c 0
 398 67 387 73 383 80 c 2
323 427 m 2
 295 427 l 2
 280 427 273 435 273 450 c 1
 275 470 282 485 295 500 c 1
 403 663 l 2
 413 678 423 688 431 688 c 0
 441 688 447 673 447 653 c 1
 444 603 l 2
 442 576 433 566 423 553 c 1
 355 445 l 2
 348 435 338 427 323 427 c 2
EndSplineSet
EndChar

StartChar: l
Encoding: 108 108 77
Width: 650
GlyphClass: 2
Flags: W
LayerCount: 2
Fore
SplineSet
24 440 m 2
 36 690 l 1
 38 710 45 730 53 730 c 0
 63 730 93 695 93 670 c 1
 89 590 l 1
 89 560 109 550 109 520 c 1
 106 460 l 2
 104 432 80 405 55 405 c 0
 35 405 24 425 24 440 c 2
3 45 m 2
 16 315 l 2
 18 336 38 355 55 355 c 0
 75 355 96 330 96 305 c 1
 92 225 l 2
 90 195 72 185 70 165 c 1
 66 80 l 2
 64 55 31 30 21 30 c 0
 14 30 3 35 3 45 c 2
440 0 m 2
 35 0 l 2
 25 0 20 5 20 10 c 0
 20 15 30 22 40 32 c 1
 50 40 60 50 80 50 c 0
 100 50 115 75 140 75 c 2
 160 75 l 2
 200 75 200 60 230 60 c 0
 260 60 260 75 280 75 c 2
 350 75 l 2
 390 75 400 55 410 55 c 0
 420 55 430 50 440 40 c 0
 450 30 460 20 460 10 c 0
 460 5 450 0 440 0 c 2
EndSplineSet
EndChar

StartChar: m
Encoding: 109 109 78
Width: 650
GlyphClass: 2
Flags: W
LayerCount: 2
Fore
SplineSet
3 45 m 2
 16 315 l 2
 18 336 38 355 55 355 c 0
 75 355 96 330 96 305 c 1
 92 225 l 2
 90 195 72 185 70 165 c 1
 66 80 l 2
 64 55 31 30 21 30 c 0
 14 30 3 35 3 45 c 2
24 440 m 2
 36 690 l 1
 38 710 45 730 53 730 c 0
 63 730 93 695 93 670 c 1
 89 590 l 1
 89 560 109 550 109 520 c 1
 106 460 l 2
 104 432 80 405 55 405 c 0
 35 405 24 425 24 440 c 2
174 440 m 1
 111 553 l 2
 104 564 99 580 99 600 c 2
 102 680 l 2
 103 690 110 700 117 700 c 0
 125 700 132 690 137 680 c 2
 192 565 l 1
 202 547 210 535 210 515 c 1
 206 440 l 2
 205 430 199 420 194 420 c 0
 189 420 184 425 174 440 c 1
323 427 m 2
 295 427 l 2
 280 427 273 435 273 450 c 1
 275 470 282 485 295 500 c 1
 403 663 l 2
 413 678 423 688 431 688 c 0
 441 688 447 673 447 653 c 1
 444 603 l 2
 442 576 433 566 423 553 c 1
 355 445 l 2
 348 435 338 427 323 427 c 2
424 450 m 2
 428 535 l 1
 430 555 450 575 452 600 c 1
 455 680 l 1
 457 700 498 725 505 725 c 0
 512 725 519 713 519 700 c 2
 503 420 l 2
 502 409 487 400 471 400 c 0
 461 400 424 430 424 450 c 2
424 90 m 2
 427 150 l 1
 427 176 410 194 410 220 c 1
 414 300 l 2
 416 335 455 355 465 355 c 0
 481 355 497 330 497 310 c 1
 484 60 l 2
 483 48 476 40 468 40 c 0
 444 40 424 70 424 90 c 2
EndSplineSet
EndChar

StartChar: n
Encoding: 110 110 79
Width: 650
GlyphClass: 2
Flags: W
LayerCount: 2
Fore
SplineSet
3 45 m 2
 16 315 l 2
 18 336 38 355 55 355 c 0
 75 355 96 330 96 305 c 1
 92 225 l 2
 90 195 72 185 70 165 c 1
 66 80 l 2
 64 55 31 30 21 30 c 0
 14 30 3 35 3 45 c 2
24 440 m 2
 36 690 l 1
 38 710 45 730 53 730 c 0
 63 730 93 695 93 670 c 1
 89 590 l 1
 89 560 109 550 109 520 c 1
 106 460 l 2
 104 432 80 405 55 405 c 0
 35 405 24 425 24 440 c 2
174 440 m 1
 111 553 l 2
 104 564 99 580 99 600 c 2
 102 680 l 2
 103 690 110 700 117 700 c 0
 125 700 132 690 137 680 c 2
 192 565 l 1
 202 547 210 535 210 515 c 1
 206 440 l 2
 205 430 199 420 194 420 c 0
 189 420 184 425 174 440 c 1
383 80 m 2
 280 260 l 2
 271 276 267 283 267 298 c 2
 268 318 l 2
 269 328 276 333 283 333 c 2
 311 333 l 2
 331 333 336 320 339 318 c 1
 399 208 l 2
 414 180 419 167 419 152 c 2
 416 92 l 1
 414 77 407 67 402 67 c 0
 398 67 387 73 383 80 c 2
424 90 m 2
 427 150 l 1
 427 176 410 194 410 220 c 1
 414 300 l 2
 416 335 455 355 465 355 c 0
 481 355 497 330 497 310 c 1
 484 60 l 2
 483 48 476 40 468 40 c 0
 444 40 424 70 424 90 c 2
424 450 m 2
 428 535 l 1
 430 555 450 575 452 600 c 1
 455 680 l 1
 457 700 498 725 505 725 c 0
 512 725 519 713 519 700 c 2
 503 420 l 2
 502 409 487 400 471 400 c 0
 461 400 424 430 424 450 c 2
EndSplineSet
EndChar

StartChar: o
Encoding: 111 111 80
Width: 650
GlyphClass: 2
Flags: W
LayerCount: 2
Fore
SplineSet
3 45 m 2
 16 315 l 2
 18 336 38 355 55 355 c 0
 75 355 96 330 96 305 c 1
 92 225 l 2
 90 195 72 185 70 165 c 1
 66 80 l 2
 64 55 31 30 21 30 c 0
 14 30 3 35 3 45 c 2
440 0 m 2
 35 0 l 2
 25 0 20 5 20 10 c 0
 20 15 30 22 40 32 c 1
 50 40 60 50 80 50 c 0
 100 50 115 75 140 75 c 2
 160 75 l 2
 200 75 200 60 230 60 c 0
 260 60 260 75 280 75 c 2
 350 75 l 2
 390 75 400 55 410 55 c 0
 420 55 430 50 440 40 c 0
 450 30 460 20 460 10 c 0
 460 5 450 0 440 0 c 2
424 90 m 2
 427 150 l 1
 427 176 410 194 410 220 c 1
 414 300 l 2
 416 335 455 355 465 355 c 0
 481 355 497 330 497 310 c 1
 484 60 l 2
 483 48 476 40 468 40 c 0
 444 40 424 70 424 90 c 2
424 450 m 2
 428 535 l 1
 430 555 450 575 452 600 c 1
 455 680 l 1
 457 700 498 725 505 725 c 0
 512 725 519 713 519 700 c 2
 503 420 l 2
 502 409 487 400 471 400 c 0
 461 400 424 430 424 450 c 2
80 760 m 2
 470 760 l 2
 485 760 495 755 495 748 c 0
 495 735 465 702 455 702 c 2
 440 702 l 2
 420 702 420 688 405 688 c 2
 300 688 l 2
 280 688 280 700 260 700 c 0
 240 700 230 688 220 688 c 2
 160 688 l 2
 140 688 130 710 110 710 c 0
 80 710 65 745 65 750 c 0
 65 755 70 760 80 760 c 2
24 440 m 2
 36 690 l 1
 38 710 45 730 53 730 c 0
 63 730 93 695 93 670 c 1
 89 590 l 1
 89 560 109 550 109 520 c 1
 106 460 l 2
 104 432 80 405 55 405 c 0
 35 405 24 425 24 440 c 2
EndSplineSet
EndChar

StartChar: p
Encoding: 112 112 81
Width: 650
GlyphClass: 2
Flags: W
LayerCount: 2
Fore
SplineSet
3 45 m 2
 16 315 l 2
 18 336 38 355 55 355 c 0
 75 355 96 330 96 305 c 1
 92 225 l 2
 90 195 72 185 70 165 c 1
 66 80 l 2
 64 55 31 30 21 30 c 0
 14 30 3 35 3 45 c 2
24 440 m 2
 36 690 l 1
 38 710 45 730 53 730 c 0
 63 730 93 695 93 670 c 1
 89 590 l 1
 89 560 109 550 109 520 c 1
 106 460 l 2
 104 432 80 405 55 405 c 0
 35 405 24 425 24 440 c 2
80 760 m 2
 470 760 l 2
 485 760 495 755 495 748 c 0
 495 735 465 702 455 702 c 2
 440 702 l 2
 420 702 420 688 405 688 c 2
 300 688 l 2
 280 688 280 700 260 700 c 0
 240 700 230 688 220 688 c 2
 160 688 l 2
 140 688 130 710 110 710 c 0
 80 710 65 745 65 750 c 0
 65 755 70 760 80 760 c 2
424 450 m 2
 428 535 l 1
 430 555 450 575 452 600 c 1
 455 680 l 1
 457 700 498 725 505 725 c 0
 512 725 519 713 519 700 c 2
 503 420 l 2
 502 409 487 400 471 400 c 0
 461 400 424 430 424 450 c 2
405 340 m 2
 309 340 l 2
 283 340 259 359 259 380 c 0
 259 401 282 420 307 420 c 2
 407 420 l 2
 432 420 455 401 455 380 c 0
 455 359 431 340 405 340 c 2
165 340 m 2
 119 340 l 2
 93 340 69 359 69 380 c 0
 69 401 92 420 117 420 c 2
 167 420 l 2
 192 420 215 401 215 380 c 0
 215 359 191 340 165 340 c 2
EndSplineSet
EndChar

StartChar: q
Encoding: 113 113 82
Width: 650
GlyphClass: 2
Flags: W
LayerCount: 2
Fore
SplineSet
3 45 m 2
 16 315 l 2
 18 336 38 355 55 355 c 0
 75 355 96 330 96 305 c 1
 92 225 l 2
 90 195 72 185 70 165 c 1
 66 80 l 2
 64 55 31 30 21 30 c 0
 14 30 3 35 3 45 c 2
440 0 m 2
 35 0 l 2
 25 0 20 5 20 10 c 0
 20 15 30 22 40 32 c 1
 50 40 60 50 80 50 c 0
 100 50 115 75 140 75 c 2
 160 75 l 2
 200 75 200 60 230 60 c 0
 260 60 260 75 280 75 c 2
 350 75 l 2
 390 75 400 55 410 55 c 0
 420 55 430 50 440 40 c 0
 450 30 460 20 460 10 c 0
 460 5 450 0 440 0 c 2
424 90 m 2
 427 150 l 1
 427 176 410 194 410 220 c 1
 414 300 l 2
 416 335 455 355 465 355 c 0
 481 355 497 330 497 310 c 1
 484 60 l 2
 483 48 476 40 468 40 c 0
 444 40 424 70 424 90 c 2
424 450 m 2
 428 535 l 1
 430 555 450 575 452 600 c 1
 455 680 l 1
 457 700 498 725 505 725 c 0
 512 725 519 713 519 700 c 2
 503 420 l 2
 502 409 487 400 471 400 c 0
 461 400 424 430 424 450 c 2
80 760 m 2
 470 760 l 2
 485 760 495 755 495 748 c 0
 495 735 465 702 455 702 c 2
 440 702 l 2
 420 702 420 688 405 688 c 2
 300 688 l 2
 280 688 280 700 260 700 c 0
 240 700 230 688 220 688 c 2
 160 688 l 2
 140 688 130 710 110 710 c 0
 80 710 65 745 65 750 c 0
 65 755 70 760 80 760 c 2
24 440 m 2
 36 690 l 1
 38 710 45 730 53 730 c 0
 63 730 93 695 93 670 c 1
 89 590 l 1
 89 560 109 550 109 520 c 1
 106 460 l 2
 104 432 80 405 55 405 c 0
 35 405 24 425 24 440 c 2
383 80 m 2
 280 260 l 2
 271 276 267 283 267 298 c 2
 268 318 l 2
 269 328 276 333 283 333 c 2
 311 333 l 2
 331 333 336 320 339 318 c 1
 399 208 l 2
 414 180 419 167 419 152 c 2
 416 92 l 1
 414 77 407 67 402 67 c 0
 398 67 387 73 383 80 c 2
EndSplineSet
EndChar

StartChar: r
Encoding: 114 114 83
Width: 650
GlyphClass: 2
Flags: W
LayerCount: 2
Fore
SplineSet
3 45 m 2
 16 315 l 2
 18 336 38 355 55 355 c 0
 75 355 96 330 96 305 c 1
 92 225 l 2
 90 195 72 185 70 165 c 1
 66 80 l 2
 64 55 31 30 21 30 c 0
 14 30 3 35 3 45 c 2
165 340 m 2
 119 340 l 2
 93 340 69 359 69 380 c 0
 69 401 92 420 117 420 c 2
 167 420 l 2
 192 420 215 401 215 380 c 0
 215 359 191 340 165 340 c 2
383 80 m 2
 280 260 l 2
 271 276 267 283 267 298 c 2
 268 318 l 2
 269 328 276 333 283 333 c 2
 311 333 l 2
 331 333 336 320 339 318 c 1
 399 208 l 2
 414 180 419 167 419 152 c 2
 416 92 l 1
 414 77 407 67 402 67 c 0
 398 67 387 73 383 80 c 2
405 340 m 2
 309 340 l 2
 283 340 259 359 259 380 c 0
 259 401 282 420 307 420 c 2
 407 420 l 2
 432 420 455 401 455 380 c 0
 455 359 431 340 405 340 c 2
424 450 m 2
 428 535 l 1
 430 555 450 575 452 600 c 1
 455 680 l 1
 457 700 498 725 505 725 c 0
 512 725 519 713 519 700 c 2
 503 420 l 2
 502 409 487 400 471 400 c 0
 461 400 424 430 424 450 c 2
80 760 m 2
 470 760 l 2
 485 760 495 755 495 748 c 0
 495 735 465 702 455 702 c 2
 440 702 l 2
 420 702 420 688 405 688 c 2
 300 688 l 2
 280 688 280 700 260 700 c 0
 240 700 230 688 220 688 c 2
 160 688 l 2
 140 688 130 710 110 710 c 0
 80 710 65 745 65 750 c 0
 65 755 70 760 80 760 c 2
24 440 m 2
 36 690 l 1
 38 710 45 730 53 730 c 0
 63 730 93 695 93 670 c 1
 89 590 l 1
 89 560 109 550 109 520 c 1
 106 460 l 2
 104 432 80 405 55 405 c 0
 35 405 24 425 24 440 c 2
EndSplineSet
EndChar

StartChar: s
Encoding: 115 115 84
Width: 650
GlyphClass: 2
Flags: W
LayerCount: 2
Fore
SplineSet
80 760 m 2
 470 760 l 2
 485 760 495 755 495 748 c 0
 495 735 465 702 455 702 c 2
 440 702 l 2
 420 702 420 688 405 688 c 2
 300 688 l 2
 280 688 280 700 260 700 c 0
 240 700 230 688 220 688 c 2
 160 688 l 2
 140 688 130 710 110 710 c 0
 80 710 65 745 65 750 c 0
 65 755 70 760 80 760 c 2
24 440 m 2
 36 690 l 1
 38 710 45 730 53 730 c 0
 63 730 93 695 93 670 c 1
 89 590 l 1
 89 560 109 550 109 520 c 1
 106 460 l 2
 104 432 80 405 55 405 c 0
 35 405 24 425 24 440 c 2
165 340 m 2
 119 340 l 2
 93 340 69 359 69 380 c 0
 69 401 92 420 117 420 c 2
 167 420 l 2
 192 420 215 401 215 380 c 0
 215 359 191 340 165 340 c 2
405 340 m 2
 309 340 l 2
 283 340 259 359 259 380 c 0
 259 401 282 420 307 420 c 2
 407 420 l 2
 432 420 455 401 455 380 c 0
 455 359 431 340 405 340 c 2
424 90 m 2
 427 150 l 1
 427 176 410 194 410 220 c 1
 414 300 l 2
 416 335 455 355 465 355 c 0
 481 355 497 330 497 310 c 1
 484 60 l 2
 483 48 476 40 468 40 c 0
 444 40 424 70 424 90 c 2
440 0 m 2
 35 0 l 2
 25 0 20 5 20 10 c 0
 20 15 30 22 40 32 c 1
 50 40 60 50 80 50 c 0
 100 50 115 75 140 75 c 2
 160 75 l 2
 200 75 200 60 230 60 c 0
 260 60 260 75 280 75 c 2
 350 75 l 2
 390 75 400 55 410 55 c 0
 420 55 430 50 440 40 c 0
 450 30 460 20 460 10 c 0
 460 5 450 0 440 0 c 2
EndSplineSet
EndChar

StartChar: t
Encoding: 116 116 85
Width: 650
GlyphClass: 2
Flags: W
LayerCount: 2
Fore
SplineSet
80 760 m 2
 470 760 l 2
 485 760 495 755 495 748 c 0
 495 735 465 702 455 702 c 2
 440 702 l 2
 420 702 420 688 405 688 c 2
 300 688 l 2
 280 688 280 700 260 700 c 0
 240 700 230 688 220 688 c 2
 160 688 l 2
 140 688 130 710 110 710 c 0
 80 710 65 745 65 750 c 0
 65 755 70 760 80 760 c 2
242 400 m 0
 230 400 216 420 216 430 c 2
 220 500 l 1
 220 530 205 550 205 585 c 1
 209 650 l 2
 211 675 240 690 255 690 c 0
 270 690 290 675 290 655 c 1
 283 540 l 2
 282 520 268 500 267 470 c 2
 265 435 l 2
 264 425 255 400 242 400 c 0
225 70 m 0
 207 70 185 95 185 110 c 2
 188 170 l 2
 191 215 205 215 205 250 c 1
 207 280 l 2
 209 320 213 350 235 350 c 0
 252 350 260 300 260 280 c 0
 260 255 265 230 265 200 c 2
 262 110 l 2
 261 90 245 70 225 70 c 0
EndSplineSet
EndChar

StartChar: u
Encoding: 117 117 86
Width: 650
GlyphClass: 2
Flags: W
LayerCount: 2
Fore
SplineSet
24 440 m 2
 36 690 l 1
 38 710 45 730 53 730 c 0
 63 730 93 695 93 670 c 1
 89 590 l 1
 89 560 109 550 109 520 c 1
 106 460 l 2
 104 432 80 405 55 405 c 0
 35 405 24 425 24 440 c 2
3 45 m 2
 16 315 l 2
 18 336 38 355 55 355 c 0
 75 355 96 330 96 305 c 1
 92 225 l 2
 90 195 72 185 70 165 c 1
 66 80 l 2
 64 55 31 30 21 30 c 0
 14 30 3 35 3 45 c 2
440 0 m 2
 35 0 l 2
 25 0 20 5 20 10 c 0
 20 15 30 22 40 32 c 1
 50 40 60 50 80 50 c 0
 100 50 115 75 140 75 c 2
 160 75 l 2
 200 75 200 60 230 60 c 0
 260 60 260 75 280 75 c 2
 350 75 l 2
 390 75 400 55 410 55 c 0
 420 55 430 50 440 40 c 0
 450 30 460 20 460 10 c 0
 460 5 450 0 440 0 c 2
424 90 m 2
 427 150 l 1
 427 176 410 194 410 220 c 1
 414 300 l 2
 416 335 455 355 465 355 c 0
 481 355 497 330 497 310 c 1
 484 60 l 2
 483 48 476 40 468 40 c 0
 444 40 424 70 424 90 c 2
424 450 m 2
 428 535 l 1
 430 555 450 575 452 600 c 1
 455 680 l 1
 457 700 498 725 505 725 c 0
 512 725 519 713 519 700 c 2
 503 420 l 2
 502 409 487 400 471 400 c 0
 461 400 424 430 424 450 c 2
EndSplineSet
EndChar

StartChar: v
Encoding: 118 118 87
Width: 650
GlyphClass: 2
Flags: W
LayerCount: 2
Fore
SplineSet
24 440 m 2
 36 690 l 1
 38 710 45 730 53 730 c 0
 63 730 93 695 93 670 c 1
 89 590 l 1
 89 560 109 550 109 520 c 1
 106 460 l 2
 104 432 80 405 55 405 c 0
 35 405 24 425 24 440 c 2
3 45 m 2
 16 315 l 2
 18 336 38 355 55 355 c 0
 75 355 96 330 96 305 c 1
 92 225 l 2
 90 195 72 185 70 165 c 1
 66 80 l 2
 64 55 31 30 21 30 c 0
 14 30 3 35 3 45 c 2
72 80 m 2
 75 145 l 1
 78 175 88 182 98 198 c 2
 163 308 l 1
 171 318 181 338 196 338 c 0
 200 338 203 328 203 318 c 2
 198 240 l 2
 196 220 188 210 186 208 c 2
 111 80 l 2
 105 68 93 60 83 60 c 0
 75 60 72 70 72 80 c 2
323 427 m 2
 295 427 l 2
 280 427 273 435 273 450 c 1
 275 470 282 485 295 500 c 1
 403 663 l 2
 413 678 423 688 431 688 c 0
 441 688 447 673 447 653 c 1
 444 603 l 2
 442 576 433 566 423 553 c 1
 355 445 l 2
 348 435 338 427 323 427 c 2
EndSplineSet
EndChar

StartChar: w
Encoding: 119 119 88
Width: 650
GlyphClass: 2
Flags: W
LayerCount: 2
Fore
SplineSet
24 440 m 2
 36 690 l 1
 38 710 45 730 53 730 c 0
 63 730 93 695 93 670 c 1
 89 590 l 1
 89 560 109 550 109 520 c 1
 106 460 l 2
 104 432 80 405 55 405 c 0
 35 405 24 425 24 440 c 2
3 45 m 2
 16 315 l 2
 18 336 38 355 55 355 c 0
 75 355 96 330 96 305 c 1
 92 225 l 2
 90 195 72 185 70 165 c 1
 66 80 l 2
 64 55 31 30 21 30 c 0
 14 30 3 35 3 45 c 2
72 80 m 2
 75 145 l 1
 78 175 88 182 98 198 c 2
 163 308 l 1
 171 318 181 338 196 338 c 0
 200 338 203 328 203 318 c 2
 198 240 l 2
 196 220 188 210 186 208 c 2
 111 80 l 2
 105 68 93 60 83 60 c 0
 75 60 72 70 72 80 c 2
383 80 m 2
 280 260 l 2
 271 276 267 283 267 298 c 2
 268 318 l 2
 269 328 276 333 283 333 c 2
 311 333 l 2
 331 333 336 320 339 318 c 1
 399 208 l 2
 414 180 419 167 419 152 c 2
 416 92 l 1
 414 77 407 67 402 67 c 0
 398 67 387 73 383 80 c 2
424 90 m 2
 427 150 l 1
 427 176 410 194 410 220 c 1
 414 300 l 2
 416 335 455 355 465 355 c 0
 481 355 497 330 497 310 c 1
 484 60 l 2
 483 48 476 40 468 40 c 0
 444 40 424 70 424 90 c 2
424 450 m 2
 428 535 l 1
 430 555 450 575 452 600 c 1
 455 680 l 1
 457 700 498 725 505 725 c 0
 512 725 519 713 519 700 c 2
 503 420 l 2
 502 409 487 400 471 400 c 0
 461 400 424 430 424 450 c 2
EndSplineSet
EndChar

StartChar: x
Encoding: 120 120 89
Width: 650
GlyphClass: 2
Flags: W
LayerCount: 2
Fore
SplineSet
72 80 m 2
 75 145 l 1
 78 175 88 182 98 198 c 2
 163 308 l 1
 171 318 181 338 196 338 c 0
 200 338 203 328 203 318 c 2
 198 240 l 2
 196 220 188 210 186 208 c 2
 111 80 l 2
 105 68 93 60 83 60 c 0
 75 60 72 70 72 80 c 2
383 80 m 2
 280 260 l 2
 271 276 267 283 267 298 c 2
 268 318 l 2
 269 328 276 333 283 333 c 2
 311 333 l 2
 331 333 336 320 339 318 c 1
 399 208 l 2
 414 180 419 167 419 152 c 2
 416 92 l 1
 414 77 407 67 402 67 c 0
 398 67 387 73 383 80 c 2
323 427 m 2
 295 427 l 2
 280 427 273 435 273 450 c 1
 275 470 282 485 295 500 c 1
 403 663 l 2
 413 678 423 688 431 688 c 0
 441 688 447 673 447 653 c 1
 444 603 l 2
 442 576 433 566 423 553 c 1
 355 445 l 2
 348 435 338 427 323 427 c 2
174 440 m 1
 111 553 l 2
 104 564 99 580 99 600 c 2
 102 680 l 2
 103 690 110 700 117 700 c 0
 125 700 132 690 137 680 c 2
 192 565 l 1
 202 547 210 535 210 515 c 1
 206 440 l 2
 205 430 199 420 194 420 c 0
 189 420 184 425 174 440 c 1
EndSplineSet
EndChar

StartChar: y
Encoding: 121 121 90
Width: 650
GlyphClass: 2
Flags: W
LayerCount: 2
Fore
SplineSet
174 440 m 1
 111 553 l 2
 104 564 99 580 99 600 c 2
 102 680 l 2
 103 690 110 700 117 700 c 0
 125 700 132 690 137 680 c 2
 192 565 l 1
 202 547 210 535 210 515 c 1
 206 440 l 2
 205 430 199 420 194 420 c 0
 189 420 184 425 174 440 c 1
323 427 m 2
 295 427 l 2
 280 427 273 435 273 450 c 1
 275 470 282 485 295 500 c 1
 403 663 l 2
 413 678 423 688 431 688 c 0
 441 688 447 673 447 653 c 1
 444 603 l 2
 442 576 433 566 423 553 c 1
 355 445 l 2
 348 435 338 427 323 427 c 2
225 70 m 0
 207 70 185 95 185 110 c 2
 188 170 l 2
 191 215 205 215 205 250 c 1
 207 280 l 2
 209 320 213 350 235 350 c 0
 252 350 260 300 260 280 c 0
 260 255 265 230 265 200 c 2
 262 110 l 2
 261 90 245 70 225 70 c 0
EndSplineSet
EndChar

StartChar: z
Encoding: 122 122 91
Width: 650
GlyphClass: 2
Flags: W
LayerCount: 2
Fore
SplineSet
80 760 m 2
 470 760 l 2
 485 760 495 755 495 748 c 0
 495 735 465 702 455 702 c 2
 440 702 l 2
 420 702 420 688 405 688 c 2
 300 688 l 2
 280 688 280 700 260 700 c 0
 240 700 230 688 220 688 c 2
 160 688 l 2
 140 688 130 710 110 710 c 0
 80 710 65 745 65 750 c 0
 65 755 70 760 80 760 c 2
440 0 m 2
 35 0 l 2
 25 0 20 5 20 10 c 0
 20 15 30 22 40 32 c 1
 50 40 60 50 80 50 c 0
 100 50 115 75 140 75 c 2
 160 75 l 2
 200 75 200 60 230 60 c 0
 260 60 260 75 280 75 c 2
 350 75 l 2
 390 75 400 55 410 55 c 0
 420 55 430 50 440 40 c 0
 450 30 460 20 460 10 c 0
 460 5 450 0 440 0 c 2
72 80 m 2
 75 145 l 1
 78 175 88 182 98 198 c 2
 163 308 l 1
 171 318 181 338 196 338 c 0
 200 338 203 328 203 318 c 2
 198 240 l 2
 196 220 188 210 186 208 c 2
 111 80 l 2
 105 68 93 60 83 60 c 0
 75 60 72 70 72 80 c 2
323 427 m 2
 295 427 l 2
 280 427 273 435 273 450 c 1
 275 470 282 485 295 500 c 1
 403 663 l 2
 413 678 423 688 431 688 c 0
 441 688 447 673 447 653 c 1
 444 603 l 2
 442 576 433 566 423 553 c 1
 355 445 l 2
 348 435 338 427 323 427 c 2
EndSplineSet
EndChar

StartChar: bar
Encoding: 124 124 92
Width: 650
GlyphClass: 2
Flags: W
LayerCount: 2
Fore
SplineSet
225 70 m 0
 207 70 185 95 185 110 c 2
 188 170 l 2
 191 215 205 215 205 250 c 1
 207 280 l 2
 209 320 213 350 235 350 c 0
 252 350 260 300 260 280 c 0
 260 255 265 230 265 200 c 2
 262 110 l 2
 261 90 245 70 225 70 c 0
242 400 m 0
 230 400 216 420 216 430 c 2
 220 500 l 1
 220 530 205 550 205 585 c 1
 209 650 l 2
 211 675 240 690 255 690 c 0
 270 690 290 675 290 655 c 1
 283 540 l 2
 282 520 268 500 267 470 c 2
 265 435 l 2
 264 425 255 400 242 400 c 0
EndSplineSet
EndChar

StartChar: asciitilde
Encoding: 126 126 93
Width: 650
GlyphClass: 2
Flags: W
LayerCount: 2
Fore
SplineSet
3 45 m 2
 16 315 l 2
 18 336 38 355 55 355 c 0
 75 355 96 330 96 305 c 1
 92 225 l 2
 90 195 72 185 70 165 c 1
 66 80 l 2
 64 55 31 30 21 30 c 0
 14 30 3 35 3 45 c 2
440 0 m 2
 35 0 l 2
 25 0 20 5 20 10 c 0
 20 15 30 22 40 32 c 1
 50 40 60 50 80 50 c 0
 100 50 115 75 140 75 c 2
 160 75 l 2
 200 75 200 60 230 60 c 0
 260 60 260 75 280 75 c 2
 350 75 l 2
 390 75 400 55 410 55 c 0
 420 55 430 50 440 40 c 0
 450 30 460 20 460 10 c 0
 460 5 450 0 440 0 c 2
424 90 m 2
 427 150 l 1
 427 176 410 194 410 220 c 1
 414 300 l 2
 416 335 455 355 465 355 c 0
 481 355 497 330 497 310 c 1
 484 60 l 2
 483 48 476 40 468 40 c 0
 444 40 424 70 424 90 c 2
424 450 m 2
 428 535 l 1
 430 555 450 575 452 600 c 1
 455 680 l 1
 457 700 498 725 505 725 c 0
 512 725 519 713 519 700 c 2
 503 420 l 2
 502 409 487 400 471 400 c 0
 461 400 424 430 424 450 c 2
80 760 m 2
 470 760 l 2
 485 760 495 755 495 748 c 0
 495 735 465 702 455 702 c 2
 440 702 l 2
 420 702 420 688 405 688 c 2
 300 688 l 2
 280 688 280 700 260 700 c 0
 240 700 230 688 220 688 c 2
 160 688 l 2
 140 688 130 710 110 710 c 0
 80 710 65 745 65 750 c 0
 65 755 70 760 80 760 c 2
24 440 m 2
 36 690 l 1
 38 710 45 730 53 730 c 0
 63 730 93 695 93 670 c 1
 89 590 l 1
 89 560 109 550 109 520 c 1
 106 460 l 2
 104 432 80 405 55 405 c 0
 35 405 24 425 24 440 c 2
165 340 m 2
 119 340 l 2
 93 340 69 359 69 380 c 0
 69 401 92 420 117 420 c 2
 167 420 l 2
 192 420 215 401 215 380 c 0
 215 359 191 340 165 340 c 2
72 80 m 2
 75 145 l 1
 78 175 88 182 98 198 c 2
 163 308 l 1
 171 318 181 338 196 338 c 0
 200 338 203 328 203 318 c 2
 198 240 l 2
 196 220 188 210 186 208 c 2
 111 80 l 2
 105 68 93 60 83 60 c 0
 75 60 72 70 72 80 c 2
225 70 m 0
 207 70 185 95 185 110 c 2
 188 170 l 2
 191 215 205 215 205 250 c 1
 207 280 l 2
 209 320 213 350 235 350 c 0
 252 350 260 300 260 280 c 0
 260 255 265 230 265 200 c 2
 262 110 l 2
 261 90 245 70 225 70 c 0
383 80 m 2
 280 260 l 2
 271 276 267 283 267 298 c 2
 268 318 l 2
 269 328 276 333 283 333 c 2
 311 333 l 2
 331 333 336 320 339 318 c 1
 399 208 l 2
 414 180 419 167 419 152 c 2
 416 92 l 1
 414 77 407 67 402 67 c 0
 398 67 387 73 383 80 c 2
405 340 m 2
 309 340 l 2
 283 340 259 359 259 380 c 0
 259 401 282 420 307 420 c 2
 407 420 l 2
 432 420 455 401 455 380 c 0
 455 359 431 340 405 340 c 2
323 427 m 2
 295 427 l 2
 280 427 273 435 273 450 c 1
 275 470 282 485 295 500 c 1
 403 663 l 2
 413 678 423 688 431 688 c 0
 441 688 447 673 447 653 c 1
 444 603 l 2
 442 576 433 566 423 553 c 1
 355 445 l 2
 348 435 338 427 323 427 c 2
242 400 m 0
 230 400 216 420 216 430 c 2
 220 500 l 1
 220 530 205 550 205 585 c 1
 209 650 l 2
 211 675 240 690 255 690 c 0
 270 690 290 675 290 655 c 1
 283 540 l 2
 282 520 268 500 267 470 c 2
 265 435 l 2
 264 425 255 400 242 400 c 0
174 440 m 1
 111 553 l 2
 104 564 99 580 99 600 c 2
 102 680 l 2
 103 690 110 700 117 700 c 0
 125 700 132 690 137 680 c 2
 192 565 l 1
 202 547 210 535 210 515 c 1
 206 440 l 2
 205 430 199 420 194 420 c 0
 189 420 184 425 174 440 c 1
EndSplineSet
EndChar

StartChar: tilde
Encoding: 148 148 94
AltUni2: 0002dc.ffffffff.0
Width: 650
GlyphClass: 2
Flags: W
LayerCount: 2
Fore
SplineSet
3 45 m 2
 16 315 l 2
 18 336 38 355 55 355 c 0
 75 355 96 330 96 305 c 1
 92 225 l 2
 90 195 72 185 70 165 c 1
 66 80 l 2
 64 55 31 30 21 30 c 0
 14 30 3 35 3 45 c 2
440 0 m 2
 35 0 l 2
 25 0 20 5 20 10 c 0
 20 15 30 22 40 32 c 1
 50 40 60 50 80 50 c 0
 100 50 115 75 140 75 c 2
 160 75 l 2
 200 75 200 60 230 60 c 0
 260 60 260 75 280 75 c 2
 350 75 l 2
 390 75 400 55 410 55 c 0
 420 55 430 50 440 40 c 0
 450 30 460 20 460 10 c 0
 460 5 450 0 440 0 c 2
424 90 m 2
 427 150 l 1
 427 176 410 194 410 220 c 1
 414 300 l 2
 416 335 455 355 465 355 c 0
 481 355 497 330 497 310 c 1
 484 60 l 2
 483 48 476 40 468 40 c 0
 444 40 424 70 424 90 c 2
424 450 m 2
 428 535 l 1
 430 555 450 575 452 600 c 1
 455 680 l 1
 457 700 498 725 505 725 c 0
 512 725 519 713 519 700 c 2
 503 420 l 2
 502 409 487 400 471 400 c 0
 461 400 424 430 424 450 c 2
80 760 m 2
 470 760 l 2
 485 760 495 755 495 748 c 0
 495 735 465 702 455 702 c 2
 440 702 l 2
 420 702 420 688 405 688 c 2
 300 688 l 2
 280 688 280 700 260 700 c 0
 240 700 230 688 220 688 c 2
 160 688 l 2
 140 688 130 710 110 710 c 0
 80 710 65 745 65 750 c 0
 65 755 70 760 80 760 c 2
24 440 m 2
 36 690 l 1
 38 710 45 730 53 730 c 0
 63 730 93 695 93 670 c 1
 89 590 l 1
 89 560 109 550 109 520 c 1
 106 460 l 2
 104 432 80 405 55 405 c 0
 35 405 24 425 24 440 c 2
165 340 m 2
 119 340 l 2
 93 340 69 359 69 380 c 0
 69 401 92 420 117 420 c 2
 167 420 l 2
 192 420 215 401 215 380 c 0
 215 359 191 340 165 340 c 2
72 80 m 2
 75 145 l 1
 78 175 88 182 98 198 c 2
 163 308 l 1
 171 318 181 338 196 338 c 0
 200 338 203 328 203 318 c 2
 198 240 l 2
 196 220 188 210 186 208 c 2
 111 80 l 2
 105 68 93 60 83 60 c 0
 75 60 72 70 72 80 c 2
225 70 m 0
 207 70 185 95 185 110 c 2
 188 170 l 2
 191 215 205 215 205 250 c 1
 207 280 l 2
 209 320 213 350 235 350 c 0
 252 350 260 300 260 280 c 0
 260 255 265 230 265 200 c 2
 262 110 l 2
 261 90 245 70 225 70 c 0
383 80 m 2
 280 260 l 2
 271 276 267 283 267 298 c 2
 268 318 l 2
 269 328 276 333 283 333 c 2
 311 333 l 2
 331 333 336 320 339 318 c 1
 399 208 l 2
 414 180 419 167 419 152 c 2
 416 92 l 1
 414 77 407 67 402 67 c 0
 398 67 387 73 383 80 c 2
405 340 m 2
 309 340 l 2
 283 340 259 359 259 380 c 0
 259 401 282 420 307 420 c 2
 407 420 l 2
 432 420 455 401 455 380 c 0
 455 359 431 340 405 340 c 2
323 427 m 2
 295 427 l 2
 280 427 273 435 273 450 c 1
 275 470 282 485 295 500 c 1
 403 663 l 2
 413 678 423 688 431 688 c 0
 441 688 447 673 447 653 c 1
 444 603 l 2
 442 576 433 566 423 553 c 1
 355 445 l 2
 348 435 338 427 323 427 c 2
242 400 m 0
 230 400 216 420 216 430 c 2
 220 500 l 1
 220 530 205 550 205 585 c 1
 209 650 l 2
 211 675 240 690 255 690 c 0
 270 690 290 675 290 655 c 1
 283 540 l 2
 282 520 268 500 267 470 c 2
 265 435 l 2
 264 425 255 400 242 400 c 0
174 440 m 1
 111 553 l 2
 104 564 99 580 99 600 c 2
 102 680 l 2
 103 690 110 700 117 700 c 0
 125 700 132 690 137 680 c 2
 192 565 l 1
 202 547 210 535 210 515 c 1
 206 440 l 2
 205 430 199 420 194 420 c 0
 189 420 184 425 174 440 c 1
EndSplineSet
EndChar

StartChar: Agrave
Encoding: 192 192 95
Width: 650
GlyphClass: 2
Flags: W
LayerCount: 2
Fore
SplineSet
3 45 m 2
 16 315 l 2
 18 336 38 355 55 355 c 0
 75 355 96 330 96 305 c 1
 92 225 l 2
 90 195 72 185 70 165 c 1
 66 80 l 2
 64 55 31 30 21 30 c 0
 14 30 3 35 3 45 c 2
24 440 m 2
 36 690 l 1
 38 710 45 730 53 730 c 0
 63 730 93 695 93 670 c 1
 89 590 l 1
 89 560 109 550 109 520 c 1
 106 460 l 2
 104 432 80 405 55 405 c 0
 35 405 24 425 24 440 c 2
80 760 m 2
 470 760 l 2
 485 760 495 755 495 748 c 0
 495 735 465 702 455 702 c 2
 440 702 l 2
 420 702 420 688 405 688 c 2
 300 688 l 2
 280 688 280 700 260 700 c 0
 240 700 230 688 220 688 c 2
 160 688 l 2
 140 688 130 710 110 710 c 0
 80 710 65 745 65 750 c 0
 65 755 70 760 80 760 c 2
424 450 m 2
 428 535 l 1
 430 555 450 575 452 600 c 1
 455 680 l 1
 457 700 498 725 505 725 c 0
 512 725 519 713 519 700 c 2
 503 420 l 2
 502 409 487 400 471 400 c 0
 461 400 424 430 424 450 c 2
424 90 m 2
 427 150 l 1
 427 176 410 194 410 220 c 1
 414 300 l 2
 416 335 455 355 465 355 c 0
 481 355 497 330 497 310 c 1
 484 60 l 2
 483 48 476 40 468 40 c 0
 444 40 424 70 424 90 c 2
165 340 m 2
 119 340 l 2
 93 340 69 359 69 380 c 0
 69 401 92 420 117 420 c 2
 167 420 l 2
 192 420 215 401 215 380 c 0
 215 359 191 340 165 340 c 2
405 340 m 2
 309 340 l 2
 283 340 259 359 259 380 c 0
 259 401 282 420 307 420 c 2
 407 420 l 2
 432 420 455 401 455 380 c 0
 455 359 431 340 405 340 c 2
EndSplineSet
EndChar

StartChar: Aacute
Encoding: 193 193 96
Width: 650
GlyphClass: 2
Flags: W
LayerCount: 2
Fore
SplineSet
3 45 m 2
 16 315 l 2
 18 336 38 355 55 355 c 0
 75 355 96 330 96 305 c 1
 92 225 l 2
 90 195 72 185 70 165 c 1
 66 80 l 2
 64 55 31 30 21 30 c 0
 14 30 3 35 3 45 c 2
24 440 m 2
 36 690 l 1
 38 710 45 730 53 730 c 0
 63 730 93 695 93 670 c 1
 89 590 l 1
 89 560 109 550 109 520 c 1
 106 460 l 2
 104 432 80 405 55 405 c 0
 35 405 24 425 24 440 c 2
80 760 m 2
 470 760 l 2
 485 760 495 755 495 748 c 0
 495 735 465 702 455 702 c 2
 440 702 l 2
 420 702 420 688 405 688 c 2
 300 688 l 2
 280 688 280 700 260 700 c 0
 240 700 230 688 220 688 c 2
 160 688 l 2
 140 688 130 710 110 710 c 0
 80 710 65 745 65 750 c 0
 65 755 70 760 80 760 c 2
424 450 m 2
 428 535 l 1
 430 555 450 575 452 600 c 1
 455 680 l 1
 457 700 498 725 505 725 c 0
 512 725 519 713 519 700 c 2
 503 420 l 2
 502 409 487 400 471 400 c 0
 461 400 424 430 424 450 c 2
424 90 m 2
 427 150 l 1
 427 176 410 194 410 220 c 1
 414 300 l 2
 416 335 455 355 465 355 c 0
 481 355 497 330 497 310 c 1
 484 60 l 2
 483 48 476 40 468 40 c 0
 444 40 424 70 424 90 c 2
165 340 m 2
 119 340 l 2
 93 340 69 359 69 380 c 0
 69 401 92 420 117 420 c 2
 167 420 l 2
 192 420 215 401 215 380 c 0
 215 359 191 340 165 340 c 2
405 340 m 2
 309 340 l 2
 283 340 259 359 259 380 c 0
 259 401 282 420 307 420 c 2
 407 420 l 2
 432 420 455 401 455 380 c 0
 455 359 431 340 405 340 c 2
EndSplineSet
EndChar

StartChar: Acircumflex
Encoding: 194 194 97
Width: 650
GlyphClass: 2
Flags: W
LayerCount: 2
Fore
SplineSet
3 45 m 2
 16 315 l 2
 18 336 38 355 55 355 c 0
 75 355 96 330 96 305 c 1
 92 225 l 2
 90 195 72 185 70 165 c 1
 66 80 l 2
 64 55 31 30 21 30 c 0
 14 30 3 35 3 45 c 2
24 440 m 2
 36 690 l 1
 38 710 45 730 53 730 c 0
 63 730 93 695 93 670 c 1
 89 590 l 1
 89 560 109 550 109 520 c 1
 106 460 l 2
 104 432 80 405 55 405 c 0
 35 405 24 425 24 440 c 2
80 760 m 2
 470 760 l 2
 485 760 495 755 495 748 c 0
 495 735 465 702 455 702 c 2
 440 702 l 2
 420 702 420 688 405 688 c 2
 300 688 l 2
 280 688 280 700 260 700 c 0
 240 700 230 688 220 688 c 2
 160 688 l 2
 140 688 130 710 110 710 c 0
 80 710 65 745 65 750 c 0
 65 755 70 760 80 760 c 2
424 450 m 2
 428 535 l 1
 430 555 450 575 452 600 c 1
 455 680 l 1
 457 700 498 725 505 725 c 0
 512 725 519 713 519 700 c 2
 503 420 l 2
 502 409 487 400 471 400 c 0
 461 400 424 430 424 450 c 2
424 90 m 2
 427 150 l 1
 427 176 410 194 410 220 c 1
 414 300 l 2
 416 335 455 355 465 355 c 0
 481 355 497 330 497 310 c 1
 484 60 l 2
 483 48 476 40 468 40 c 0
 444 40 424 70 424 90 c 2
165 340 m 2
 119 340 l 2
 93 340 69 359 69 380 c 0
 69 401 92 420 117 420 c 2
 167 420 l 2
 192 420 215 401 215 380 c 0
 215 359 191 340 165 340 c 2
405 340 m 2
 309 340 l 2
 283 340 259 359 259 380 c 0
 259 401 282 420 307 420 c 2
 407 420 l 2
 432 420 455 401 455 380 c 0
 455 359 431 340 405 340 c 2
EndSplineSet
EndChar

StartChar: Atilde
Encoding: 195 195 98
Width: 650
GlyphClass: 2
Flags: W
LayerCount: 2
Fore
SplineSet
3 45 m 2
 16 315 l 2
 18 336 38 355 55 355 c 0
 75 355 96 330 96 305 c 1
 92 225 l 2
 90 195 72 185 70 165 c 1
 66 80 l 2
 64 55 31 30 21 30 c 0
 14 30 3 35 3 45 c 2
24 440 m 2
 36 690 l 1
 38 710 45 730 53 730 c 0
 63 730 93 695 93 670 c 1
 89 590 l 1
 89 560 109 550 109 520 c 1
 106 460 l 2
 104 432 80 405 55 405 c 0
 35 405 24 425 24 440 c 2
80 760 m 2
 470 760 l 2
 485 760 495 755 495 748 c 0
 495 735 465 702 455 702 c 2
 440 702 l 2
 420 702 420 688 405 688 c 2
 300 688 l 2
 280 688 280 700 260 700 c 0
 240 700 230 688 220 688 c 2
 160 688 l 2
 140 688 130 710 110 710 c 0
 80 710 65 745 65 750 c 0
 65 755 70 760 80 760 c 2
424 450 m 2
 428 535 l 1
 430 555 450 575 452 600 c 1
 455 680 l 1
 457 700 498 725 505 725 c 0
 512 725 519 713 519 700 c 2
 503 420 l 2
 502 409 487 400 471 400 c 0
 461 400 424 430 424 450 c 2
424 90 m 2
 427 150 l 1
 427 176 410 194 410 220 c 1
 414 300 l 2
 416 335 455 355 465 355 c 0
 481 355 497 330 497 310 c 1
 484 60 l 2
 483 48 476 40 468 40 c 0
 444 40 424 70 424 90 c 2
165 340 m 2
 119 340 l 2
 93 340 69 359 69 380 c 0
 69 401 92 420 117 420 c 2
 167 420 l 2
 192 420 215 401 215 380 c 0
 215 359 191 340 165 340 c 2
405 340 m 2
 309 340 l 2
 283 340 259 359 259 380 c 0
 259 401 282 420 307 420 c 2
 407 420 l 2
 432 420 455 401 455 380 c 0
 455 359 431 340 405 340 c 2
EndSplineSet
EndChar

StartChar: Adieresis
Encoding: 196 196 99
Width: 650
GlyphClass: 2
Flags: W
LayerCount: 2
Fore
SplineSet
3 45 m 2
 16 315 l 2
 18 336 38 355 55 355 c 0
 75 355 96 330 96 305 c 1
 92 225 l 2
 90 195 72 185 70 165 c 1
 66 80 l 2
 64 55 31 30 21 30 c 0
 14 30 3 35 3 45 c 2
24 440 m 2
 36 690 l 1
 38 710 45 730 53 730 c 0
 63 730 93 695 93 670 c 1
 89 590 l 1
 89 560 109 550 109 520 c 1
 106 460 l 2
 104 432 80 405 55 405 c 0
 35 405 24 425 24 440 c 2
80 760 m 2
 470 760 l 2
 485 760 495 755 495 748 c 0
 495 735 465 702 455 702 c 2
 440 702 l 2
 420 702 420 688 405 688 c 2
 300 688 l 2
 280 688 280 700 260 700 c 0
 240 700 230 688 220 688 c 2
 160 688 l 2
 140 688 130 710 110 710 c 0
 80 710 65 745 65 750 c 0
 65 755 70 760 80 760 c 2
424 450 m 2
 428 535 l 1
 430 555 450 575 452 600 c 1
 455 680 l 1
 457 700 498 725 505 725 c 0
 512 725 519 713 519 700 c 2
 503 420 l 2
 502 409 487 400 471 400 c 0
 461 400 424 430 424 450 c 2
424 90 m 2
 427 150 l 1
 427 176 410 194 410 220 c 1
 414 300 l 2
 416 335 455 355 465 355 c 0
 481 355 497 330 497 310 c 1
 484 60 l 2
 483 48 476 40 468 40 c 0
 444 40 424 70 424 90 c 2
165 340 m 2
 119 340 l 2
 93 340 69 359 69 380 c 0
 69 401 92 420 117 420 c 2
 167 420 l 2
 192 420 215 401 215 380 c 0
 215 359 191 340 165 340 c 2
405 340 m 2
 309 340 l 2
 283 340 259 359 259 380 c 0
 259 401 282 420 307 420 c 2
 407 420 l 2
 432 420 455 401 455 380 c 0
 455 359 431 340 405 340 c 2
EndSplineSet
EndChar

StartChar: Aring
Encoding: 197 197 100
Width: 650
GlyphClass: 2
Flags: W
LayerCount: 2
Fore
SplineSet
3 45 m 2
 16 315 l 2
 18 336 38 355 55 355 c 0
 75 355 96 330 96 305 c 1
 92 225 l 2
 90 195 72 185 70 165 c 1
 66 80 l 2
 64 55 31 30 21 30 c 0
 14 30 3 35 3 45 c 2
24 440 m 2
 36 690 l 1
 38 710 45 730 53 730 c 0
 63 730 93 695 93 670 c 1
 89 590 l 1
 89 560 109 550 109 520 c 1
 106 460 l 2
 104 432 80 405 55 405 c 0
 35 405 24 425 24 440 c 2
80 760 m 2
 470 760 l 2
 485 760 495 755 495 748 c 0
 495 735 465 702 455 702 c 2
 440 702 l 2
 420 702 420 688 405 688 c 2
 300 688 l 2
 280 688 280 700 260 700 c 0
 240 700 230 688 220 688 c 2
 160 688 l 2
 140 688 130 710 110 710 c 0
 80 710 65 745 65 750 c 0
 65 755 70 760 80 760 c 2
424 450 m 2
 428 535 l 1
 430 555 450 575 452 600 c 1
 455 680 l 1
 457 700 498 725 505 725 c 0
 512 725 519 713 519 700 c 2
 503 420 l 2
 502 409 487 400 471 400 c 0
 461 400 424 430 424 450 c 2
424 90 m 2
 427 150 l 1
 427 176 410 194 410 220 c 1
 414 300 l 2
 416 335 455 355 465 355 c 0
 481 355 497 330 497 310 c 1
 484 60 l 2
 483 48 476 40 468 40 c 0
 444 40 424 70 424 90 c 2
165 340 m 2
 119 340 l 2
 93 340 69 359 69 380 c 0
 69 401 92 420 117 420 c 2
 167 420 l 2
 192 420 215 401 215 380 c 0
 215 359 191 340 165 340 c 2
405 340 m 2
 309 340 l 2
 283 340 259 359 259 380 c 0
 259 401 282 420 307 420 c 2
 407 420 l 2
 432 420 455 401 455 380 c 0
 455 359 431 340 405 340 c 2
EndSplineSet
EndChar

StartChar: Ccedilla
Encoding: 199 199 101
Width: 650
GlyphClass: 2
Flags: W
LayerCount: 2
Fore
SplineSet
80 760 m 2
 470 760 l 2
 485 760 495 755 495 748 c 0
 495 735 465 702 455 702 c 2
 440 702 l 2
 420 702 420 688 405 688 c 2
 300 688 l 2
 280 688 280 700 260 700 c 0
 240 700 230 688 220 688 c 2
 160 688 l 2
 140 688 130 710 110 710 c 0
 80 710 65 745 65 750 c 0
 65 755 70 760 80 760 c 2
24 440 m 2
 36 690 l 1
 38 710 45 730 53 730 c 0
 63 730 93 695 93 670 c 1
 89 590 l 1
 89 560 109 550 109 520 c 1
 106 460 l 2
 104 432 80 405 55 405 c 0
 35 405 24 425 24 440 c 2
3 45 m 2
 16 315 l 2
 18 336 38 355 55 355 c 0
 75 355 96 330 96 305 c 1
 92 225 l 2
 90 195 72 185 70 165 c 1
 66 80 l 2
 64 55 31 30 21 30 c 0
 14 30 3 35 3 45 c 2
440 0 m 2
 35 0 l 2
 25 0 20 5 20 10 c 0
 20 15 30 22 40 32 c 1
 50 40 60 50 80 50 c 0
 100 50 115 75 140 75 c 2
 160 75 l 2
 200 75 200 60 230 60 c 0
 260 60 260 75 280 75 c 2
 350 75 l 2
 390 75 400 55 410 55 c 0
 420 55 430 50 440 40 c 0
 450 30 460 20 460 10 c 0
 460 5 450 0 440 0 c 2
EndSplineSet
EndChar

StartChar: Egrave
Encoding: 200 200 102
Width: 650
GlyphClass: 2
Flags: W
LayerCount: 2
Fore
SplineSet
80 760 m 2
 470 760 l 2
 485 760 495 755 495 748 c 0
 495 735 465 702 455 702 c 2
 440 702 l 2
 420 702 420 688 405 688 c 2
 300 688 l 2
 280 688 280 700 260 700 c 0
 240 700 230 688 220 688 c 2
 160 688 l 2
 140 688 130 710 110 710 c 0
 80 710 65 745 65 750 c 0
 65 755 70 760 80 760 c 2
24 440 m 2
 36 690 l 1
 38 710 45 730 53 730 c 0
 63 730 93 695 93 670 c 1
 89 590 l 1
 89 560 109 550 109 520 c 1
 106 460 l 2
 104 432 80 405 55 405 c 0
 35 405 24 425 24 440 c 2
3 45 m 2
 16 315 l 2
 18 336 38 355 55 355 c 0
 75 355 96 330 96 305 c 1
 92 225 l 2
 90 195 72 185 70 165 c 1
 66 80 l 2
 64 55 31 30 21 30 c 0
 14 30 3 35 3 45 c 2
440 0 m 2
 35 0 l 2
 25 0 20 5 20 10 c 0
 20 15 30 22 40 32 c 1
 50 40 60 50 80 50 c 0
 100 50 115 75 140 75 c 2
 160 75 l 2
 200 75 200 60 230 60 c 0
 260 60 260 75 280 75 c 2
 350 75 l 2
 390 75 400 55 410 55 c 0
 420 55 430 50 440 40 c 0
 450 30 460 20 460 10 c 0
 460 5 450 0 440 0 c 2
165 340 m 2
 119 340 l 2
 93 340 69 359 69 380 c 0
 69 401 92 420 117 420 c 2
 167 420 l 2
 192 420 215 401 215 380 c 0
 215 359 191 340 165 340 c 2
EndSplineSet
EndChar

StartChar: Eacute
Encoding: 201 201 103
Width: 650
GlyphClass: 2
Flags: W
LayerCount: 2
Fore
SplineSet
80 760 m 2
 470 760 l 2
 485 760 495 755 495 748 c 0
 495 735 465 702 455 702 c 2
 440 702 l 2
 420 702 420 688 405 688 c 2
 300 688 l 2
 280 688 280 700 260 700 c 0
 240 700 230 688 220 688 c 2
 160 688 l 2
 140 688 130 710 110 710 c 0
 80 710 65 745 65 750 c 0
 65 755 70 760 80 760 c 2
24 440 m 2
 36 690 l 1
 38 710 45 730 53 730 c 0
 63 730 93 695 93 670 c 1
 89 590 l 1
 89 560 109 550 109 520 c 1
 106 460 l 2
 104 432 80 405 55 405 c 0
 35 405 24 425 24 440 c 2
3 45 m 2
 16 315 l 2
 18 336 38 355 55 355 c 0
 75 355 96 330 96 305 c 1
 92 225 l 2
 90 195 72 185 70 165 c 1
 66 80 l 2
 64 55 31 30 21 30 c 0
 14 30 3 35 3 45 c 2
440 0 m 2
 35 0 l 2
 25 0 20 5 20 10 c 0
 20 15 30 22 40 32 c 1
 50 40 60 50 80 50 c 0
 100 50 115 75 140 75 c 2
 160 75 l 2
 200 75 200 60 230 60 c 0
 260 60 260 75 280 75 c 2
 350 75 l 2
 390 75 400 55 410 55 c 0
 420 55 430 50 440 40 c 0
 450 30 460 20 460 10 c 0
 460 5 450 0 440 0 c 2
165 340 m 2
 119 340 l 2
 93 340 69 359 69 380 c 0
 69 401 92 420 117 420 c 2
 167 420 l 2
 192 420 215 401 215 380 c 0
 215 359 191 340 165 340 c 2
EndSplineSet
EndChar

StartChar: Ecircumflex
Encoding: 202 202 104
Width: 650
GlyphClass: 2
Flags: W
LayerCount: 2
Fore
SplineSet
80 760 m 2
 470 760 l 2
 485 760 495 755 495 748 c 0
 495 735 465 702 455 702 c 2
 440 702 l 2
 420 702 420 688 405 688 c 2
 300 688 l 2
 280 688 280 700 260 700 c 0
 240 700 230 688 220 688 c 2
 160 688 l 2
 140 688 130 710 110 710 c 0
 80 710 65 745 65 750 c 0
 65 755 70 760 80 760 c 2
24 440 m 2
 36 690 l 1
 38 710 45 730 53 730 c 0
 63 730 93 695 93 670 c 1
 89 590 l 1
 89 560 109 550 109 520 c 1
 106 460 l 2
 104 432 80 405 55 405 c 0
 35 405 24 425 24 440 c 2
3 45 m 2
 16 315 l 2
 18 336 38 355 55 355 c 0
 75 355 96 330 96 305 c 1
 92 225 l 2
 90 195 72 185 70 165 c 1
 66 80 l 2
 64 55 31 30 21 30 c 0
 14 30 3 35 3 45 c 2
440 0 m 2
 35 0 l 2
 25 0 20 5 20 10 c 0
 20 15 30 22 40 32 c 1
 50 40 60 50 80 50 c 0
 100 50 115 75 140 75 c 2
 160 75 l 2
 200 75 200 60 230 60 c 0
 260 60 260 75 280 75 c 2
 350 75 l 2
 390 75 400 55 410 55 c 0
 420 55 430 50 440 40 c 0
 450 30 460 20 460 10 c 0
 460 5 450 0 440 0 c 2
165 340 m 2
 119 340 l 2
 93 340 69 359 69 380 c 0
 69 401 92 420 117 420 c 2
 167 420 l 2
 192 420 215 401 215 380 c 0
 215 359 191 340 165 340 c 2
EndSplineSet
EndChar

StartChar: Edieresis
Encoding: 203 203 105
Width: 650
GlyphClass: 2
Flags: W
LayerCount: 2
Fore
SplineSet
80 760 m 2
 470 760 l 2
 485 760 495 755 495 748 c 0
 495 735 465 702 455 702 c 2
 440 702 l 2
 420 702 420 688 405 688 c 2
 300 688 l 2
 280 688 280 700 260 700 c 0
 240 700 230 688 220 688 c 2
 160 688 l 2
 140 688 130 710 110 710 c 0
 80 710 65 745 65 750 c 0
 65 755 70 760 80 760 c 2
24 440 m 2
 36 690 l 1
 38 710 45 730 53 730 c 0
 63 730 93 695 93 670 c 1
 89 590 l 1
 89 560 109 550 109 520 c 1
 106 460 l 2
 104 432 80 405 55 405 c 0
 35 405 24 425 24 440 c 2
3 45 m 2
 16 315 l 2
 18 336 38 355 55 355 c 0
 75 355 96 330 96 305 c 1
 92 225 l 2
 90 195 72 185 70 165 c 1
 66 80 l 2
 64 55 31 30 21 30 c 0
 14 30 3 35 3 45 c 2
440 0 m 2
 35 0 l 2
 25 0 20 5 20 10 c 0
 20 15 30 22 40 32 c 1
 50 40 60 50 80 50 c 0
 100 50 115 75 140 75 c 2
 160 75 l 2
 200 75 200 60 230 60 c 0
 260 60 260 75 280 75 c 2
 350 75 l 2
 390 75 400 55 410 55 c 0
 420 55 430 50 440 40 c 0
 450 30 460 20 460 10 c 0
 460 5 450 0 440 0 c 2
165 340 m 2
 119 340 l 2
 93 340 69 359 69 380 c 0
 69 401 92 420 117 420 c 2
 167 420 l 2
 192 420 215 401 215 380 c 0
 215 359 191 340 165 340 c 2
EndSplineSet
EndChar

StartChar: Igrave
Encoding: 204 204 106
Width: 650
GlyphClass: 2
Flags: W
LayerCount: 2
Fore
SplineSet
440 0 m 2
 35 0 l 2
 25 0 20 5 20 10 c 0
 20 15 30 22 40 32 c 1
 50 40 60 50 80 50 c 0
 100 50 115 75 140 75 c 2
 160 75 l 2
 200 75 200 60 230 60 c 0
 260 60 260 75 280 75 c 2
 350 75 l 2
 390 75 400 55 410 55 c 0
 420 55 430 50 440 40 c 0
 450 30 460 20 460 10 c 0
 460 5 450 0 440 0 c 2
80 760 m 2
 470 760 l 2
 485 760 495 755 495 748 c 0
 495 735 465 702 455 702 c 2
 440 702 l 2
 420 702 420 688 405 688 c 2
 300 688 l 2
 280 688 280 700 260 700 c 0
 240 700 230 688 220 688 c 2
 160 688 l 2
 140 688 130 710 110 710 c 0
 80 710 65 745 65 750 c 0
 65 755 70 760 80 760 c 2
225 70 m 0
 207 70 185 95 185 110 c 2
 188 170 l 2
 191 215 205 215 205 250 c 1
 207 280 l 2
 209 320 213 350 235 350 c 0
 252 350 260 300 260 280 c 0
 260 255 265 230 265 200 c 2
 262 110 l 2
 261 90 245 70 225 70 c 0
242 400 m 0
 230 400 216 420 216 430 c 2
 220 500 l 1
 220 530 205 550 205 585 c 1
 209 650 l 2
 211 675 240 690 255 690 c 0
 270 690 290 675 290 655 c 1
 283 540 l 2
 282 520 268 500 267 470 c 2
 265 435 l 2
 264 425 255 400 242 400 c 0
EndSplineSet
EndChar

StartChar: Iacute
Encoding: 205 205 107
Width: 650
GlyphClass: 2
Flags: W
LayerCount: 2
Fore
SplineSet
440 0 m 2
 35 0 l 2
 25 0 20 5 20 10 c 0
 20 15 30 22 40 32 c 1
 50 40 60 50 80 50 c 0
 100 50 115 75 140 75 c 2
 160 75 l 2
 200 75 200 60 230 60 c 0
 260 60 260 75 280 75 c 2
 350 75 l 2
 390 75 400 55 410 55 c 0
 420 55 430 50 440 40 c 0
 450 30 460 20 460 10 c 0
 460 5 450 0 440 0 c 2
80 760 m 2
 470 760 l 2
 485 760 495 755 495 748 c 0
 495 735 465 702 455 702 c 2
 440 702 l 2
 420 702 420 688 405 688 c 2
 300 688 l 2
 280 688 280 700 260 700 c 0
 240 700 230 688 220 688 c 2
 160 688 l 2
 140 688 130 710 110 710 c 0
 80 710 65 745 65 750 c 0
 65 755 70 760 80 760 c 2
225 70 m 0
 207 70 185 95 185 110 c 2
 188 170 l 2
 191 215 205 215 205 250 c 1
 207 280 l 2
 209 320 213 350 235 350 c 0
 252 350 260 300 260 280 c 0
 260 255 265 230 265 200 c 2
 262 110 l 2
 261 90 245 70 225 70 c 0
242 400 m 0
 230 400 216 420 216 430 c 2
 220 500 l 1
 220 530 205 550 205 585 c 1
 209 650 l 2
 211 675 240 690 255 690 c 0
 270 690 290 675 290 655 c 1
 283 540 l 2
 282 520 268 500 267 470 c 2
 265 435 l 2
 264 425 255 400 242 400 c 0
EndSplineSet
EndChar

StartChar: Icircumflex
Encoding: 206 206 108
Width: 650
GlyphClass: 2
Flags: W
LayerCount: 2
Fore
SplineSet
440 0 m 2
 35 0 l 2
 25 0 20 5 20 10 c 0
 20 15 30 22 40 32 c 1
 50 40 60 50 80 50 c 0
 100 50 115 75 140 75 c 2
 160 75 l 2
 200 75 200 60 230 60 c 0
 260 60 260 75 280 75 c 2
 350 75 l 2
 390 75 400 55 410 55 c 0
 420 55 430 50 440 40 c 0
 450 30 460 20 460 10 c 0
 460 5 450 0 440 0 c 2
80 760 m 2
 470 760 l 2
 485 760 495 755 495 748 c 0
 495 735 465 702 455 702 c 2
 440 702 l 2
 420 702 420 688 405 688 c 2
 300 688 l 2
 280 688 280 700 260 700 c 0
 240 700 230 688 220 688 c 2
 160 688 l 2
 140 688 130 710 110 710 c 0
 80 710 65 745 65 750 c 0
 65 755 70 760 80 760 c 2
225 70 m 0
 207 70 185 95 185 110 c 2
 188 170 l 2
 191 215 205 215 205 250 c 1
 207 280 l 2
 209 320 213 350 235 350 c 0
 252 350 260 300 260 280 c 0
 260 255 265 230 265 200 c 2
 262 110 l 2
 261 90 245 70 225 70 c 0
242 400 m 0
 230 400 216 420 216 430 c 2
 220 500 l 1
 220 530 205 550 205 585 c 1
 209 650 l 2
 211 675 240 690 255 690 c 0
 270 690 290 675 290 655 c 1
 283 540 l 2
 282 520 268 500 267 470 c 2
 265 435 l 2
 264 425 255 400 242 400 c 0
EndSplineSet
EndChar

StartChar: Idieresis
Encoding: 207 207 109
Width: 650
GlyphClass: 2
Flags: W
LayerCount: 2
Fore
SplineSet
440 0 m 2
 35 0 l 2
 25 0 20 5 20 10 c 0
 20 15 30 22 40 32 c 1
 50 40 60 50 80 50 c 0
 100 50 115 75 140 75 c 2
 160 75 l 2
 200 75 200 60 230 60 c 0
 260 60 260 75 280 75 c 2
 350 75 l 2
 390 75 400 55 410 55 c 0
 420 55 430 50 440 40 c 0
 450 30 460 20 460 10 c 0
 460 5 450 0 440 0 c 2
80 760 m 2
 470 760 l 2
 485 760 495 755 495 748 c 0
 495 735 465 702 455 702 c 2
 440 702 l 2
 420 702 420 688 405 688 c 2
 300 688 l 2
 280 688 280 700 260 700 c 0
 240 700 230 688 220 688 c 2
 160 688 l 2
 140 688 130 710 110 710 c 0
 80 710 65 745 65 750 c 0
 65 755 70 760 80 760 c 2
225 70 m 0
 207 70 185 95 185 110 c 2
 188 170 l 2
 191 215 205 215 205 250 c 1
 207 280 l 2
 209 320 213 350 235 350 c 0
 252 350 260 300 260 280 c 0
 260 255 265 230 265 200 c 2
 262 110 l 2
 261 90 245 70 225 70 c 0
242 400 m 0
 230 400 216 420 216 430 c 2
 220 500 l 1
 220 530 205 550 205 585 c 1
 209 650 l 2
 211 675 240 690 255 690 c 0
 270 690 290 675 290 655 c 1
 283 540 l 2
 282 520 268 500 267 470 c 2
 265 435 l 2
 264 425 255 400 242 400 c 0
EndSplineSet
EndChar

StartChar: Ntilde
Encoding: 209 209 110
Width: 650
GlyphClass: 2
Flags: W
LayerCount: 2
Fore
SplineSet
3 45 m 2
 16 315 l 2
 18 336 38 355 55 355 c 0
 75 355 96 330 96 305 c 1
 92 225 l 2
 90 195 72 185 70 165 c 1
 66 80 l 2
 64 55 31 30 21 30 c 0
 14 30 3 35 3 45 c 2
24 440 m 2
 36 690 l 1
 38 710 45 730 53 730 c 0
 63 730 93 695 93 670 c 1
 89 590 l 1
 89 560 109 550 109 520 c 1
 106 460 l 2
 104 432 80 405 55 405 c 0
 35 405 24 425 24 440 c 2
174 440 m 1
 111 553 l 2
 104 564 99 580 99 600 c 2
 102 680 l 2
 103 690 110 700 117 700 c 0
 125 700 132 690 137 680 c 2
 192 565 l 1
 202 547 210 535 210 515 c 1
 206 440 l 2
 205 430 199 420 194 420 c 0
 189 420 184 425 174 440 c 1
383 80 m 2
 280 260 l 2
 271 276 267 283 267 298 c 2
 268 318 l 2
 269 328 276 333 283 333 c 2
 311 333 l 2
 331 333 336 320 339 318 c 1
 399 208 l 2
 414 180 419 167 419 152 c 2
 416 92 l 1
 414 77 407 67 402 67 c 0
 398 67 387 73 383 80 c 2
424 90 m 2
 427 150 l 1
 427 176 410 194 410 220 c 1
 414 300 l 2
 416 335 455 355 465 355 c 0
 481 355 497 330 497 310 c 1
 484 60 l 2
 483 48 476 40 468 40 c 0
 444 40 424 70 424 90 c 2
424 450 m 2
 428 535 l 1
 430 555 450 575 452 600 c 1
 455 680 l 1
 457 700 498 725 505 725 c 0
 512 725 519 713 519 700 c 2
 503 420 l 2
 502 409 487 400 471 400 c 0
 461 400 424 430 424 450 c 2
EndSplineSet
EndChar

StartChar: Ograve
Encoding: 210 210 111
Width: 650
GlyphClass: 2
Flags: W
LayerCount: 2
Fore
SplineSet
3 45 m 2
 16 315 l 2
 18 336 38 355 55 355 c 0
 75 355 96 330 96 305 c 1
 92 225 l 2
 90 195 72 185 70 165 c 1
 66 80 l 2
 64 55 31 30 21 30 c 0
 14 30 3 35 3 45 c 2
440 0 m 2
 35 0 l 2
 25 0 20 5 20 10 c 0
 20 15 30 22 40 32 c 1
 50 40 60 50 80 50 c 0
 100 50 115 75 140 75 c 2
 160 75 l 2
 200 75 200 60 230 60 c 0
 260 60 260 75 280 75 c 2
 350 75 l 2
 390 75 400 55 410 55 c 0
 420 55 430 50 440 40 c 0
 450 30 460 20 460 10 c 0
 460 5 450 0 440 0 c 2
424 90 m 2
 427 150 l 1
 427 176 410 194 410 220 c 1
 414 300 l 2
 416 335 455 355 465 355 c 0
 481 355 497 330 497 310 c 1
 484 60 l 2
 483 48 476 40 468 40 c 0
 444 40 424 70 424 90 c 2
424 450 m 2
 428 535 l 1
 430 555 450 575 452 600 c 1
 455 680 l 1
 457 700 498 725 505 725 c 0
 512 725 519 713 519 700 c 2
 503 420 l 2
 502 409 487 400 471 400 c 0
 461 400 424 430 424 450 c 2
80 760 m 2
 470 760 l 2
 485 760 495 755 495 748 c 0
 495 735 465 702 455 702 c 2
 440 702 l 2
 420 702 420 688 405 688 c 2
 300 688 l 2
 280 688 280 700 260 700 c 0
 240 700 230 688 220 688 c 2
 160 688 l 2
 140 688 130 710 110 710 c 0
 80 710 65 745 65 750 c 0
 65 755 70 760 80 760 c 2
24 440 m 2
 36 690 l 1
 38 710 45 730 53 730 c 0
 63 730 93 695 93 670 c 1
 89 590 l 1
 89 560 109 550 109 520 c 1
 106 460 l 2
 104 432 80 405 55 405 c 0
 35 405 24 425 24 440 c 2
EndSplineSet
EndChar

StartChar: Oacute
Encoding: 211 211 112
Width: 650
GlyphClass: 2
Flags: W
LayerCount: 2
Fore
SplineSet
3 45 m 2
 16 315 l 2
 18 336 38 355 55 355 c 0
 75 355 96 330 96 305 c 1
 92 225 l 2
 90 195 72 185 70 165 c 1
 66 80 l 2
 64 55 31 30 21 30 c 0
 14 30 3 35 3 45 c 2
440 0 m 2
 35 0 l 2
 25 0 20 5 20 10 c 0
 20 15 30 22 40 32 c 1
 50 40 60 50 80 50 c 0
 100 50 115 75 140 75 c 2
 160 75 l 2
 200 75 200 60 230 60 c 0
 260 60 260 75 280 75 c 2
 350 75 l 2
 390 75 400 55 410 55 c 0
 420 55 430 50 440 40 c 0
 450 30 460 20 460 10 c 0
 460 5 450 0 440 0 c 2
424 90 m 2
 427 150 l 1
 427 176 410 194 410 220 c 1
 414 300 l 2
 416 335 455 355 465 355 c 0
 481 355 497 330 497 310 c 1
 484 60 l 2
 483 48 476 40 468 40 c 0
 444 40 424 70 424 90 c 2
424 450 m 2
 428 535 l 1
 430 555 450 575 452 600 c 1
 455 680 l 1
 457 700 498 725 505 725 c 0
 512 725 519 713 519 700 c 2
 503 420 l 2
 502 409 487 400 471 400 c 0
 461 400 424 430 424 450 c 2
80 760 m 2
 470 760 l 2
 485 760 495 755 495 748 c 0
 495 735 465 702 455 702 c 2
 440 702 l 2
 420 702 420 688 405 688 c 2
 300 688 l 2
 280 688 280 700 260 700 c 0
 240 700 230 688 220 688 c 2
 160 688 l 2
 140 688 130 710 110 710 c 0
 80 710 65 745 65 750 c 0
 65 755 70 760 80 760 c 2
24 440 m 2
 36 690 l 1
 38 710 45 730 53 730 c 0
 63 730 93 695 93 670 c 1
 89 590 l 1
 89 560 109 550 109 520 c 1
 106 460 l 2
 104 432 80 405 55 405 c 0
 35 405 24 425 24 440 c 2
EndSplineSet
EndChar

StartChar: Ocircumflex
Encoding: 212 212 113
Width: 650
GlyphClass: 2
Flags: W
LayerCount: 2
Fore
SplineSet
3 45 m 2
 16 315 l 2
 18 336 38 355 55 355 c 0
 75 355 96 330 96 305 c 1
 92 225 l 2
 90 195 72 185 70 165 c 1
 66 80 l 2
 64 55 31 30 21 30 c 0
 14 30 3 35 3 45 c 2
440 0 m 2
 35 0 l 2
 25 0 20 5 20 10 c 0
 20 15 30 22 40 32 c 1
 50 40 60 50 80 50 c 0
 100 50 115 75 140 75 c 2
 160 75 l 2
 200 75 200 60 230 60 c 0
 260 60 260 75 280 75 c 2
 350 75 l 2
 390 75 400 55 410 55 c 0
 420 55 430 50 440 40 c 0
 450 30 460 20 460 10 c 0
 460 5 450 0 440 0 c 2
424 90 m 2
 427 150 l 1
 427 176 410 194 410 220 c 1
 414 300 l 2
 416 335 455 355 465 355 c 0
 481 355 497 330 497 310 c 1
 484 60 l 2
 483 48 476 40 468 40 c 0
 444 40 424 70 424 90 c 2
424 450 m 2
 428 535 l 1
 430 555 450 575 452 600 c 1
 455 680 l 1
 457 700 498 725 505 725 c 0
 512 725 519 713 519 700 c 2
 503 420 l 2
 502 409 487 400 471 400 c 0
 461 400 424 430 424 450 c 2
80 760 m 2
 470 760 l 2
 485 760 495 755 495 748 c 0
 495 735 465 702 455 702 c 2
 440 702 l 2
 420 702 420 688 405 688 c 2
 300 688 l 2
 280 688 280 700 260 700 c 0
 240 700 230 688 220 688 c 2
 160 688 l 2
 140 688 130 710 110 710 c 0
 80 710 65 745 65 750 c 0
 65 755 70 760 80 760 c 2
24 440 m 2
 36 690 l 1
 38 710 45 730 53 730 c 0
 63 730 93 695 93 670 c 1
 89 590 l 1
 89 560 109 550 109 520 c 1
 106 460 l 2
 104 432 80 405 55 405 c 0
 35 405 24 425 24 440 c 2
EndSplineSet
EndChar

StartChar: Otilde
Encoding: 213 213 114
Width: 650
GlyphClass: 2
Flags: W
LayerCount: 2
Fore
SplineSet
3 45 m 2
 16 315 l 2
 18 336 38 355 55 355 c 0
 75 355 96 330 96 305 c 1
 92 225 l 2
 90 195 72 185 70 165 c 1
 66 80 l 2
 64 55 31 30 21 30 c 0
 14 30 3 35 3 45 c 2
440 0 m 2
 35 0 l 2
 25 0 20 5 20 10 c 0
 20 15 30 22 40 32 c 1
 50 40 60 50 80 50 c 0
 100 50 115 75 140 75 c 2
 160 75 l 2
 200 75 200 60 230 60 c 0
 260 60 260 75 280 75 c 2
 350 75 l 2
 390 75 400 55 410 55 c 0
 420 55 430 50 440 40 c 0
 450 30 460 20 460 10 c 0
 460 5 450 0 440 0 c 2
424 90 m 2
 427 150 l 1
 427 176 410 194 410 220 c 1
 414 300 l 2
 416 335 455 355 465 355 c 0
 481 355 497 330 497 310 c 1
 484 60 l 2
 483 48 476 40 468 40 c 0
 444 40 424 70 424 90 c 2
424 450 m 2
 428 535 l 1
 430 555 450 575 452 600 c 1
 455 680 l 1
 457 700 498 725 505 725 c 0
 512 725 519 713 519 700 c 2
 503 420 l 2
 502 409 487 400 471 400 c 0
 461 400 424 430 424 450 c 2
80 760 m 2
 470 760 l 2
 485 760 495 755 495 748 c 0
 495 735 465 702 455 702 c 2
 440 702 l 2
 420 702 420 688 405 688 c 2
 300 688 l 2
 280 688 280 700 260 700 c 0
 240 700 230 688 220 688 c 2
 160 688 l 2
 140 688 130 710 110 710 c 0
 80 710 65 745 65 750 c 0
 65 755 70 760 80 760 c 2
24 440 m 2
 36 690 l 1
 38 710 45 730 53 730 c 0
 63 730 93 695 93 670 c 1
 89 590 l 1
 89 560 109 550 109 520 c 1
 106 460 l 2
 104 432 80 405 55 405 c 0
 35 405 24 425 24 440 c 2
EndSplineSet
EndChar

StartChar: Odieresis
Encoding: 214 214 115
Width: 650
GlyphClass: 2
Flags: W
LayerCount: 2
Fore
SplineSet
3 45 m 2
 16 315 l 2
 18 336 38 355 55 355 c 0
 75 355 96 330 96 305 c 1
 92 225 l 2
 90 195 72 185 70 165 c 1
 66 80 l 2
 64 55 31 30 21 30 c 0
 14 30 3 35 3 45 c 2
440 0 m 2
 35 0 l 2
 25 0 20 5 20 10 c 0
 20 15 30 22 40 32 c 1
 50 40 60 50 80 50 c 0
 100 50 115 75 140 75 c 2
 160 75 l 2
 200 75 200 60 230 60 c 0
 260 60 260 75 280 75 c 2
 350 75 l 2
 390 75 400 55 410 55 c 0
 420 55 430 50 440 40 c 0
 450 30 460 20 460 10 c 0
 460 5 450 0 440 0 c 2
424 90 m 2
 427 150 l 1
 427 176 410 194 410 220 c 1
 414 300 l 2
 416 335 455 355 465 355 c 0
 481 355 497 330 497 310 c 1
 484 60 l 2
 483 48 476 40 468 40 c 0
 444 40 424 70 424 90 c 2
424 450 m 2
 428 535 l 1
 430 555 450 575 452 600 c 1
 455 680 l 1
 457 700 498 725 505 725 c 0
 512 725 519 713 519 700 c 2
 503 420 l 2
 502 409 487 400 471 400 c 0
 461 400 424 430 424 450 c 2
80 760 m 2
 470 760 l 2
 485 760 495 755 495 748 c 0
 495 735 465 702 455 702 c 2
 440 702 l 2
 420 702 420 688 405 688 c 2
 300 688 l 2
 280 688 280 700 260 700 c 0
 240 700 230 688 220 688 c 2
 160 688 l 2
 140 688 130 710 110 710 c 0
 80 710 65 745 65 750 c 0
 65 755 70 760 80 760 c 2
24 440 m 2
 36 690 l 1
 38 710 45 730 53 730 c 0
 63 730 93 695 93 670 c 1
 89 590 l 1
 89 560 109 550 109 520 c 1
 106 460 l 2
 104 432 80 405 55 405 c 0
 35 405 24 425 24 440 c 2
EndSplineSet
EndChar

StartChar: Oslash
Encoding: 216 216 116
Width: 650
GlyphClass: 2
Flags: W
LayerCount: 2
Fore
SplineSet
3 45 m 2
 16 315 l 2
 18 336 38 355 55 355 c 0
 75 355 96 330 96 305 c 1
 92 225 l 2
 90 195 72 185 70 165 c 1
 66 80 l 2
 64 55 31 30 21 30 c 0
 14 30 3 35 3 45 c 2
440 0 m 2
 35 0 l 2
 25 0 20 5 20 10 c 0
 20 15 30 22 40 32 c 1
 50 40 60 50 80 50 c 0
 100 50 115 75 140 75 c 2
 160 75 l 2
 200 75 200 60 230 60 c 0
 260 60 260 75 280 75 c 2
 350 75 l 2
 390 75 400 55 410 55 c 0
 420 55 430 50 440 40 c 0
 450 30 460 20 460 10 c 0
 460 5 450 0 440 0 c 2
424 90 m 2
 427 150 l 1
 427 176 410 194 410 220 c 1
 414 300 l 2
 416 335 455 355 465 355 c 0
 481 355 497 330 497 310 c 1
 484 60 l 2
 483 48 476 40 468 40 c 0
 444 40 424 70 424 90 c 2
424 450 m 2
 428 535 l 1
 430 555 450 575 452 600 c 1
 455 680 l 1
 457 700 498 725 505 725 c 0
 512 725 519 713 519 700 c 2
 503 420 l 2
 502 409 487 400 471 400 c 0
 461 400 424 430 424 450 c 2
80 760 m 2
 470 760 l 2
 485 760 495 755 495 748 c 0
 495 735 465 702 455 702 c 2
 440 702 l 2
 420 702 420 688 405 688 c 2
 300 688 l 2
 280 688 280 700 260 700 c 0
 240 700 230 688 220 688 c 2
 160 688 l 2
 140 688 130 710 110 710 c 0
 80 710 65 745 65 750 c 0
 65 755 70 760 80 760 c 2
24 440 m 2
 36 690 l 1
 38 710 45 730 53 730 c 0
 63 730 93 695 93 670 c 1
 89 590 l 1
 89 560 109 550 109 520 c 1
 106 460 l 2
 104 432 80 405 55 405 c 0
 35 405 24 425 24 440 c 2
EndSplineSet
EndChar

StartChar: Ugrave
Encoding: 217 217 117
Width: 650
GlyphClass: 2
Flags: W
LayerCount: 2
Fore
SplineSet
24 440 m 2
 36 690 l 1
 38 710 45 730 53 730 c 0
 63 730 93 695 93 670 c 1
 89 590 l 1
 89 560 109 550 109 520 c 1
 106 460 l 2
 104 432 80 405 55 405 c 0
 35 405 24 425 24 440 c 2
3 45 m 2
 16 315 l 2
 18 336 38 355 55 355 c 0
 75 355 96 330 96 305 c 1
 92 225 l 2
 90 195 72 185 70 165 c 1
 66 80 l 2
 64 55 31 30 21 30 c 0
 14 30 3 35 3 45 c 2
440 0 m 2
 35 0 l 2
 25 0 20 5 20 10 c 0
 20 15 30 22 40 32 c 1
 50 40 60 50 80 50 c 0
 100 50 115 75 140 75 c 2
 160 75 l 2
 200 75 200 60 230 60 c 0
 260 60 260 75 280 75 c 2
 350 75 l 2
 390 75 400 55 410 55 c 0
 420 55 430 50 440 40 c 0
 450 30 460 20 460 10 c 0
 460 5 450 0 440 0 c 2
424 90 m 2
 427 150 l 1
 427 176 410 194 410 220 c 1
 414 300 l 2
 416 335 455 355 465 355 c 0
 481 355 497 330 497 310 c 1
 484 60 l 2
 483 48 476 40 468 40 c 0
 444 40 424 70 424 90 c 2
424 450 m 2
 428 535 l 1
 430 555 450 575 452 600 c 1
 455 680 l 1
 457 700 498 725 505 725 c 0
 512 725 519 713 519 700 c 2
 503 420 l 2
 502 409 487 400 471 400 c 0
 461 400 424 430 424 450 c 2
EndSplineSet
EndChar

StartChar: Uacute
Encoding: 218 218 118
Width: 650
GlyphClass: 2
Flags: W
LayerCount: 2
Fore
SplineSet
24 440 m 2
 36 690 l 1
 38 710 45 730 53 730 c 0
 63 730 93 695 93 670 c 1
 89 590 l 1
 89 560 109 550 109 520 c 1
 106 460 l 2
 104 432 80 405 55 405 c 0
 35 405 24 425 24 440 c 2
3 45 m 2
 16 315 l 2
 18 336 38 355 55 355 c 0
 75 355 96 330 96 305 c 1
 92 225 l 2
 90 195 72 185 70 165 c 1
 66 80 l 2
 64 55 31 30 21 30 c 0
 14 30 3 35 3 45 c 2
440 0 m 2
 35 0 l 2
 25 0 20 5 20 10 c 0
 20 15 30 22 40 32 c 1
 50 40 60 50 80 50 c 0
 100 50 115 75 140 75 c 2
 160 75 l 2
 200 75 200 60 230 60 c 0
 260 60 260 75 280 75 c 2
 350 75 l 2
 390 75 400 55 410 55 c 0
 420 55 430 50 440 40 c 0
 450 30 460 20 460 10 c 0
 460 5 450 0 440 0 c 2
424 90 m 2
 427 150 l 1
 427 176 410 194 410 220 c 1
 414 300 l 2
 416 335 455 355 465 355 c 0
 481 355 497 330 497 310 c 1
 484 60 l 2
 483 48 476 40 468 40 c 0
 444 40 424 70 424 90 c 2
424 450 m 2
 428 535 l 1
 430 555 450 575 452 600 c 1
 455 680 l 1
 457 700 498 725 505 725 c 0
 512 725 519 713 519 700 c 2
 503 420 l 2
 502 409 487 400 471 400 c 0
 461 400 424 430 424 450 c 2
EndSplineSet
EndChar

StartChar: Ucircumflex
Encoding: 219 219 119
Width: 650
GlyphClass: 2
Flags: W
LayerCount: 2
Fore
SplineSet
24 440 m 2
 36 690 l 1
 38 710 45 730 53 730 c 0
 63 730 93 695 93 670 c 1
 89 590 l 1
 89 560 109 550 109 520 c 1
 106 460 l 2
 104 432 80 405 55 405 c 0
 35 405 24 425 24 440 c 2
3 45 m 2
 16 315 l 2
 18 336 38 355 55 355 c 0
 75 355 96 330 96 305 c 1
 92 225 l 2
 90 195 72 185 70 165 c 1
 66 80 l 2
 64 55 31 30 21 30 c 0
 14 30 3 35 3 45 c 2
440 0 m 2
 35 0 l 2
 25 0 20 5 20 10 c 0
 20 15 30 22 40 32 c 1
 50 40 60 50 80 50 c 0
 100 50 115 75 140 75 c 2
 160 75 l 2
 200 75 200 60 230 60 c 0
 260 60 260 75 280 75 c 2
 350 75 l 2
 390 75 400 55 410 55 c 0
 420 55 430 50 440 40 c 0
 450 30 460 20 460 10 c 0
 460 5 450 0 440 0 c 2
424 90 m 2
 427 150 l 1
 427 176 410 194 410 220 c 1
 414 300 l 2
 416 335 455 355 465 355 c 0
 481 355 497 330 497 310 c 1
 484 60 l 2
 483 48 476 40 468 40 c 0
 444 40 424 70 424 90 c 2
424 450 m 2
 428 535 l 1
 430 555 450 575 452 600 c 1
 455 680 l 1
 457 700 498 725 505 725 c 0
 512 725 519 713 519 700 c 2
 503 420 l 2
 502 409 487 400 471 400 c 0
 461 400 424 430 424 450 c 2
EndSplineSet
EndChar

StartChar: Udieresis
Encoding: 220 220 120
Width: 650
GlyphClass: 2
Flags: W
LayerCount: 2
Fore
SplineSet
24 440 m 2
 36 690 l 1
 38 710 45 730 53 730 c 0
 63 730 93 695 93 670 c 1
 89 590 l 1
 89 560 109 550 109 520 c 1
 106 460 l 2
 104 432 80 405 55 405 c 0
 35 405 24 425 24 440 c 2
3 45 m 2
 16 315 l 2
 18 336 38 355 55 355 c 0
 75 355 96 330 96 305 c 1
 92 225 l 2
 90 195 72 185 70 165 c 1
 66 80 l 2
 64 55 31 30 21 30 c 0
 14 30 3 35 3 45 c 2
440 0 m 2
 35 0 l 2
 25 0 20 5 20 10 c 0
 20 15 30 22 40 32 c 1
 50 40 60 50 80 50 c 0
 100 50 115 75 140 75 c 2
 160 75 l 2
 200 75 200 60 230 60 c 0
 260 60 260 75 280 75 c 2
 350 75 l 2
 390 75 400 55 410 55 c 0
 420 55 430 50 440 40 c 0
 450 30 460 20 460 10 c 0
 460 5 450 0 440 0 c 2
424 90 m 2
 427 150 l 1
 427 176 410 194 410 220 c 1
 414 300 l 2
 416 335 455 355 465 355 c 0
 481 355 497 330 497 310 c 1
 484 60 l 2
 483 48 476 40 468 40 c 0
 444 40 424 70 424 90 c 2
424 450 m 2
 428 535 l 1
 430 555 450 575 452 600 c 1
 455 680 l 1
 457 700 498 725 505 725 c 0
 512 725 519 713 519 700 c 2
 503 420 l 2
 502 409 487 400 471 400 c 0
 461 400 424 430 424 450 c 2
EndSplineSet
EndChar

StartChar: Yacute
Encoding: 221 221 121
Width: 650
GlyphClass: 2
Flags: W
LayerCount: 2
Fore
SplineSet
174 440 m 1
 111 553 l 2
 104 564 99 580 99 600 c 2
 102 680 l 2
 103 690 110 700 117 700 c 0
 125 700 132 690 137 680 c 2
 192 565 l 1
 202 547 210 535 210 515 c 1
 206 440 l 2
 205 430 199 420 194 420 c 0
 189 420 184 425 174 440 c 1
323 427 m 2
 295 427 l 2
 280 427 273 435 273 450 c 1
 275 470 282 485 295 500 c 1
 403 663 l 2
 413 678 423 688 431 688 c 0
 441 688 447 673 447 653 c 1
 444 603 l 2
 442 576 433 566 423 553 c 1
 355 445 l 2
 348 435 338 427 323 427 c 2
225 70 m 0
 207 70 185 95 185 110 c 2
 188 170 l 2
 191 215 205 215 205 250 c 1
 207 280 l 2
 209 320 213 350 235 350 c 0
 252 350 260 300 260 280 c 0
 260 255 265 230 265 200 c 2
 262 110 l 2
 261 90 245 70 225 70 c 0
EndSplineSet
EndChar

StartChar: agrave
Encoding: 224 224 122
Width: 650
GlyphClass: 2
Flags: W
LayerCount: 2
Fore
SplineSet
3 45 m 2
 16 315 l 2
 18 336 38 355 55 355 c 0
 75 355 96 330 96 305 c 1
 92 225 l 2
 90 195 72 185 70 165 c 1
 66 80 l 2
 64 55 31 30 21 30 c 0
 14 30 3 35 3 45 c 2
24 440 m 2
 36 690 l 1
 38 710 45 730 53 730 c 0
 63 730 93 695 93 670 c 1
 89 590 l 1
 89 560 109 550 109 520 c 1
 106 460 l 2
 104 432 80 405 55 405 c 0
 35 405 24 425 24 440 c 2
80 760 m 2
 470 760 l 2
 485 760 495 755 495 748 c 0
 495 735 465 702 455 702 c 2
 440 702 l 2
 420 702 420 688 405 688 c 2
 300 688 l 2
 280 688 280 700 260 700 c 0
 240 700 230 688 220 688 c 2
 160 688 l 2
 140 688 130 710 110 710 c 0
 80 710 65 745 65 750 c 0
 65 755 70 760 80 760 c 2
424 450 m 2
 428 535 l 1
 430 555 450 575 452 600 c 1
 455 680 l 1
 457 700 498 725 505 725 c 0
 512 725 519 713 519 700 c 2
 503 420 l 2
 502 409 487 400 471 400 c 0
 461 400 424 430 424 450 c 2
424 90 m 2
 427 150 l 1
 427 176 410 194 410 220 c 1
 414 300 l 2
 416 335 455 355 465 355 c 0
 481 355 497 330 497 310 c 1
 484 60 l 2
 483 48 476 40 468 40 c 0
 444 40 424 70 424 90 c 2
165 340 m 2
 119 340 l 2
 93 340 69 359 69 380 c 0
 69 401 92 420 117 420 c 2
 167 420 l 2
 192 420 215 401 215 380 c 0
 215 359 191 340 165 340 c 2
405 340 m 2
 309 340 l 2
 283 340 259 359 259 380 c 0
 259 401 282 420 307 420 c 2
 407 420 l 2
 432 420 455 401 455 380 c 0
 455 359 431 340 405 340 c 2
EndSplineSet
EndChar

StartChar: aacute
Encoding: 225 225 123
Width: 650
GlyphClass: 2
Flags: W
LayerCount: 2
Fore
SplineSet
3 45 m 2
 16 315 l 2
 18 336 38 355 55 355 c 0
 75 355 96 330 96 305 c 1
 92 225 l 2
 90 195 72 185 70 165 c 1
 66 80 l 2
 64 55 31 30 21 30 c 0
 14 30 3 35 3 45 c 2
24 440 m 2
 36 690 l 1
 38 710 45 730 53 730 c 0
 63 730 93 695 93 670 c 1
 89 590 l 1
 89 560 109 550 109 520 c 1
 106 460 l 2
 104 432 80 405 55 405 c 0
 35 405 24 425 24 440 c 2
80 760 m 2
 470 760 l 2
 485 760 495 755 495 748 c 0
 495 735 465 702 455 702 c 2
 440 702 l 2
 420 702 420 688 405 688 c 2
 300 688 l 2
 280 688 280 700 260 700 c 0
 240 700 230 688 220 688 c 2
 160 688 l 2
 140 688 130 710 110 710 c 0
 80 710 65 745 65 750 c 0
 65 755 70 760 80 760 c 2
424 450 m 2
 428 535 l 1
 430 555 450 575 452 600 c 1
 455 680 l 1
 457 700 498 725 505 725 c 0
 512 725 519 713 519 700 c 2
 503 420 l 2
 502 409 487 400 471 400 c 0
 461 400 424 430 424 450 c 2
424 90 m 2
 427 150 l 1
 427 176 410 194 410 220 c 1
 414 300 l 2
 416 335 455 355 465 355 c 0
 481 355 497 330 497 310 c 1
 484 60 l 2
 483 48 476 40 468 40 c 0
 444 40 424 70 424 90 c 2
165 340 m 2
 119 340 l 2
 93 340 69 359 69 380 c 0
 69 401 92 420 117 420 c 2
 167 420 l 2
 192 420 215 401 215 380 c 0
 215 359 191 340 165 340 c 2
405 340 m 2
 309 340 l 2
 283 340 259 359 259 380 c 0
 259 401 282 420 307 420 c 2
 407 420 l 2
 432 420 455 401 455 380 c 0
 455 359 431 340 405 340 c 2
EndSplineSet
EndChar

StartChar: acircumflex
Encoding: 226 226 124
Width: 650
GlyphClass: 2
Flags: W
LayerCount: 2
Fore
SplineSet
3 45 m 2
 16 315 l 2
 18 336 38 355 55 355 c 0
 75 355 96 330 96 305 c 1
 92 225 l 2
 90 195 72 185 70 165 c 1
 66 80 l 2
 64 55 31 30 21 30 c 0
 14 30 3 35 3 45 c 2
24 440 m 2
 36 690 l 1
 38 710 45 730 53 730 c 0
 63 730 93 695 93 670 c 1
 89 590 l 1
 89 560 109 550 109 520 c 1
 106 460 l 2
 104 432 80 405 55 405 c 0
 35 405 24 425 24 440 c 2
80 760 m 2
 470 760 l 2
 485 760 495 755 495 748 c 0
 495 735 465 702 455 702 c 2
 440 702 l 2
 420 702 420 688 405 688 c 2
 300 688 l 2
 280 688 280 700 260 700 c 0
 240 700 230 688 220 688 c 2
 160 688 l 2
 140 688 130 710 110 710 c 0
 80 710 65 745 65 750 c 0
 65 755 70 760 80 760 c 2
424 450 m 2
 428 535 l 1
 430 555 450 575 452 600 c 1
 455 680 l 1
 457 700 498 725 505 725 c 0
 512 725 519 713 519 700 c 2
 503 420 l 2
 502 409 487 400 471 400 c 0
 461 400 424 430 424 450 c 2
424 90 m 2
 427 150 l 1
 427 176 410 194 410 220 c 1
 414 300 l 2
 416 335 455 355 465 355 c 0
 481 355 497 330 497 310 c 1
 484 60 l 2
 483 48 476 40 468 40 c 0
 444 40 424 70 424 90 c 2
165 340 m 2
 119 340 l 2
 93 340 69 359 69 380 c 0
 69 401 92 420 117 420 c 2
 167 420 l 2
 192 420 215 401 215 380 c 0
 215 359 191 340 165 340 c 2
405 340 m 2
 309 340 l 2
 283 340 259 359 259 380 c 0
 259 401 282 420 307 420 c 2
 407 420 l 2
 432 420 455 401 455 380 c 0
 455 359 431 340 405 340 c 2
EndSplineSet
EndChar

StartChar: atilde
Encoding: 227 227 125
Width: 650
GlyphClass: 2
Flags: W
LayerCount: 2
Fore
SplineSet
3 45 m 2
 16 315 l 2
 18 336 38 355 55 355 c 0
 75 355 96 330 96 305 c 1
 92 225 l 2
 90 195 72 185 70 165 c 1
 66 80 l 2
 64 55 31 30 21 30 c 0
 14 30 3 35 3 45 c 2
24 440 m 2
 36 690 l 1
 38 710 45 730 53 730 c 0
 63 730 93 695 93 670 c 1
 89 590 l 1
 89 560 109 550 109 520 c 1
 106 460 l 2
 104 432 80 405 55 405 c 0
 35 405 24 425 24 440 c 2
80 760 m 2
 470 760 l 2
 485 760 495 755 495 748 c 0
 495 735 465 702 455 702 c 2
 440 702 l 2
 420 702 420 688 405 688 c 2
 300 688 l 2
 280 688 280 700 260 700 c 0
 240 700 230 688 220 688 c 2
 160 688 l 2
 140 688 130 710 110 710 c 0
 80 710 65 745 65 750 c 0
 65 755 70 760 80 760 c 2
424 450 m 2
 428 535 l 1
 430 555 450 575 452 600 c 1
 455 680 l 1
 457 700 498 725 505 725 c 0
 512 725 519 713 519 700 c 2
 503 420 l 2
 502 409 487 400 471 400 c 0
 461 400 424 430 424 450 c 2
424 90 m 2
 427 150 l 1
 427 176 410 194 410 220 c 1
 414 300 l 2
 416 335 455 355 465 355 c 0
 481 355 497 330 497 310 c 1
 484 60 l 2
 483 48 476 40 468 40 c 0
 444 40 424 70 424 90 c 2
165 340 m 2
 119 340 l 2
 93 340 69 359 69 380 c 0
 69 401 92 420 117 420 c 2
 167 420 l 2
 192 420 215 401 215 380 c 0
 215 359 191 340 165 340 c 2
405 340 m 2
 309 340 l 2
 283 340 259 359 259 380 c 0
 259 401 282 420 307 420 c 2
 407 420 l 2
 432 420 455 401 455 380 c 0
 455 359 431 340 405 340 c 2
EndSplineSet
EndChar

StartChar: adieresis
Encoding: 228 228 126
Width: 650
GlyphClass: 2
Flags: W
LayerCount: 2
Fore
SplineSet
3 45 m 2
 16 315 l 2
 18 336 38 355 55 355 c 0
 75 355 96 330 96 305 c 1
 92 225 l 2
 90 195 72 185 70 165 c 1
 66 80 l 2
 64 55 31 30 21 30 c 0
 14 30 3 35 3 45 c 2
24 440 m 2
 36 690 l 1
 38 710 45 730 53 730 c 0
 63 730 93 695 93 670 c 1
 89 590 l 1
 89 560 109 550 109 520 c 1
 106 460 l 2
 104 432 80 405 55 405 c 0
 35 405 24 425 24 440 c 2
80 760 m 2
 470 760 l 2
 485 760 495 755 495 748 c 0
 495 735 465 702 455 702 c 2
 440 702 l 2
 420 702 420 688 405 688 c 2
 300 688 l 2
 280 688 280 700 260 700 c 0
 240 700 230 688 220 688 c 2
 160 688 l 2
 140 688 130 710 110 710 c 0
 80 710 65 745 65 750 c 0
 65 755 70 760 80 760 c 2
424 450 m 2
 428 535 l 1
 430 555 450 575 452 600 c 1
 455 680 l 1
 457 700 498 725 505 725 c 0
 512 725 519 713 519 700 c 2
 503 420 l 2
 502 409 487 400 471 400 c 0
 461 400 424 430 424 450 c 2
424 90 m 2
 427 150 l 1
 427 176 410 194 410 220 c 1
 414 300 l 2
 416 335 455 355 465 355 c 0
 481 355 497 330 497 310 c 1
 484 60 l 2
 483 48 476 40 468 40 c 0
 444 40 424 70 424 90 c 2
165 340 m 2
 119 340 l 2
 93 340 69 359 69 380 c 0
 69 401 92 420 117 420 c 2
 167 420 l 2
 192 420 215 401 215 380 c 0
 215 359 191 340 165 340 c 2
405 340 m 2
 309 340 l 2
 283 340 259 359 259 380 c 0
 259 401 282 420 307 420 c 2
 407 420 l 2
 432 420 455 401 455 380 c 0
 455 359 431 340 405 340 c 2
EndSplineSet
EndChar

StartChar: aring
Encoding: 229 229 127
Width: 650
GlyphClass: 2
Flags: W
LayerCount: 2
Fore
SplineSet
3 45 m 2
 16 315 l 2
 18 336 38 355 55 355 c 0
 75 355 96 330 96 305 c 1
 92 225 l 2
 90 195 72 185 70 165 c 1
 66 80 l 2
 64 55 31 30 21 30 c 0
 14 30 3 35 3 45 c 2
24 440 m 2
 36 690 l 1
 38 710 45 730 53 730 c 0
 63 730 93 695 93 670 c 1
 89 590 l 1
 89 560 109 550 109 520 c 1
 106 460 l 2
 104 432 80 405 55 405 c 0
 35 405 24 425 24 440 c 2
80 760 m 2
 470 760 l 2
 485 760 495 755 495 748 c 0
 495 735 465 702 455 702 c 2
 440 702 l 2
 420 702 420 688 405 688 c 2
 300 688 l 2
 280 688 280 700 260 700 c 0
 240 700 230 688 220 688 c 2
 160 688 l 2
 140 688 130 710 110 710 c 0
 80 710 65 745 65 750 c 0
 65 755 70 760 80 760 c 2
424 450 m 2
 428 535 l 1
 430 555 450 575 452 600 c 1
 455 680 l 1
 457 700 498 725 505 725 c 0
 512 725 519 713 519 700 c 2
 503 420 l 2
 502 409 487 400 471 400 c 0
 461 400 424 430 424 450 c 2
424 90 m 2
 427 150 l 1
 427 176 410 194 410 220 c 1
 414 300 l 2
 416 335 455 355 465 355 c 0
 481 355 497 330 497 310 c 1
 484 60 l 2
 483 48 476 40 468 40 c 0
 444 40 424 70 424 90 c 2
165 340 m 2
 119 340 l 2
 93 340 69 359 69 380 c 0
 69 401 92 420 117 420 c 2
 167 420 l 2
 192 420 215 401 215 380 c 0
 215 359 191 340 165 340 c 2
405 340 m 2
 309 340 l 2
 283 340 259 359 259 380 c 0
 259 401 282 420 307 420 c 2
 407 420 l 2
 432 420 455 401 455 380 c 0
 455 359 431 340 405 340 c 2
EndSplineSet
EndChar

StartChar: ccedilla
Encoding: 231 231 128
Width: 650
GlyphClass: 2
Flags: W
LayerCount: 2
Fore
SplineSet
80 760 m 2
 470 760 l 2
 485 760 495 755 495 748 c 0
 495 735 465 702 455 702 c 2
 440 702 l 2
 420 702 420 688 405 688 c 2
 300 688 l 2
 280 688 280 700 260 700 c 0
 240 700 230 688 220 688 c 2
 160 688 l 2
 140 688 130 710 110 710 c 0
 80 710 65 745 65 750 c 0
 65 755 70 760 80 760 c 2
24 440 m 2
 36 690 l 1
 38 710 45 730 53 730 c 0
 63 730 93 695 93 670 c 1
 89 590 l 1
 89 560 109 550 109 520 c 1
 106 460 l 2
 104 432 80 405 55 405 c 0
 35 405 24 425 24 440 c 2
3 45 m 2
 16 315 l 2
 18 336 38 355 55 355 c 0
 75 355 96 330 96 305 c 1
 92 225 l 2
 90 195 72 185 70 165 c 1
 66 80 l 2
 64 55 31 30 21 30 c 0
 14 30 3 35 3 45 c 2
440 0 m 2
 35 0 l 2
 25 0 20 5 20 10 c 0
 20 15 30 22 40 32 c 1
 50 40 60 50 80 50 c 0
 100 50 115 75 140 75 c 2
 160 75 l 2
 200 75 200 60 230 60 c 0
 260 60 260 75 280 75 c 2
 350 75 l 2
 390 75 400 55 410 55 c 0
 420 55 430 50 440 40 c 0
 450 30 460 20 460 10 c 0
 460 5 450 0 440 0 c 2
EndSplineSet
EndChar

StartChar: egrave
Encoding: 232 232 129
Width: 650
GlyphClass: 2
Flags: W
LayerCount: 2
Fore
SplineSet
80 760 m 2
 470 760 l 2
 485 760 495 755 495 748 c 0
 495 735 465 702 455 702 c 2
 440 702 l 2
 420 702 420 688 405 688 c 2
 300 688 l 2
 280 688 280 700 260 700 c 0
 240 700 230 688 220 688 c 2
 160 688 l 2
 140 688 130 710 110 710 c 0
 80 710 65 745 65 750 c 0
 65 755 70 760 80 760 c 2
24 440 m 2
 36 690 l 1
 38 710 45 730 53 730 c 0
 63 730 93 695 93 670 c 1
 89 590 l 1
 89 560 109 550 109 520 c 1
 106 460 l 2
 104 432 80 405 55 405 c 0
 35 405 24 425 24 440 c 2
3 45 m 2
 16 315 l 2
 18 336 38 355 55 355 c 0
 75 355 96 330 96 305 c 1
 92 225 l 2
 90 195 72 185 70 165 c 1
 66 80 l 2
 64 55 31 30 21 30 c 0
 14 30 3 35 3 45 c 2
440 0 m 2
 35 0 l 2
 25 0 20 5 20 10 c 0
 20 15 30 22 40 32 c 1
 50 40 60 50 80 50 c 0
 100 50 115 75 140 75 c 2
 160 75 l 2
 200 75 200 60 230 60 c 0
 260 60 260 75 280 75 c 2
 350 75 l 2
 390 75 400 55 410 55 c 0
 420 55 430 50 440 40 c 0
 450 30 460 20 460 10 c 0
 460 5 450 0 440 0 c 2
165 340 m 2
 119 340 l 2
 93 340 69 359 69 380 c 0
 69 401 92 420 117 420 c 2
 167 420 l 2
 192 420 215 401 215 380 c 0
 215 359 191 340 165 340 c 2
EndSplineSet
EndChar

StartChar: eacute
Encoding: 233 233 130
Width: 650
GlyphClass: 2
Flags: W
LayerCount: 2
Fore
SplineSet
80 760 m 2
 470 760 l 2
 485 760 495 755 495 748 c 0
 495 735 465 702 455 702 c 2
 440 702 l 2
 420 702 420 688 405 688 c 2
 300 688 l 2
 280 688 280 700 260 700 c 0
 240 700 230 688 220 688 c 2
 160 688 l 2
 140 688 130 710 110 710 c 0
 80 710 65 745 65 750 c 0
 65 755 70 760 80 760 c 2
24 440 m 2
 36 690 l 1
 38 710 45 730 53 730 c 0
 63 730 93 695 93 670 c 1
 89 590 l 1
 89 560 109 550 109 520 c 1
 106 460 l 2
 104 432 80 405 55 405 c 0
 35 405 24 425 24 440 c 2
3 45 m 2
 16 315 l 2
 18 336 38 355 55 355 c 0
 75 355 96 330 96 305 c 1
 92 225 l 2
 90 195 72 185 70 165 c 1
 66 80 l 2
 64 55 31 30 21 30 c 0
 14 30 3 35 3 45 c 2
440 0 m 2
 35 0 l 2
 25 0 20 5 20 10 c 0
 20 15 30 22 40 32 c 1
 50 40 60 50 80 50 c 0
 100 50 115 75 140 75 c 2
 160 75 l 2
 200 75 200 60 230 60 c 0
 260 60 260 75 280 75 c 2
 350 75 l 2
 390 75 400 55 410 55 c 0
 420 55 430 50 440 40 c 0
 450 30 460 20 460 10 c 0
 460 5 450 0 440 0 c 2
165 340 m 2
 119 340 l 2
 93 340 69 359 69 380 c 0
 69 401 92 420 117 420 c 2
 167 420 l 2
 192 420 215 401 215 380 c 0
 215 359 191 340 165 340 c 2
EndSplineSet
EndChar

StartChar: ecircumflex
Encoding: 234 234 131
Width: 650
GlyphClass: 2
Flags: W
LayerCount: 2
Fore
SplineSet
80 760 m 2
 470 760 l 2
 485 760 495 755 495 748 c 0
 495 735 465 702 455 702 c 2
 440 702 l 2
 420 702 420 688 405 688 c 2
 300 688 l 2
 280 688 280 700 260 700 c 0
 240 700 230 688 220 688 c 2
 160 688 l 2
 140 688 130 710 110 710 c 0
 80 710 65 745 65 750 c 0
 65 755 70 760 80 760 c 2
24 440 m 2
 36 690 l 1
 38 710 45 730 53 730 c 0
 63 730 93 695 93 670 c 1
 89 590 l 1
 89 560 109 550 109 520 c 1
 106 460 l 2
 104 432 80 405 55 405 c 0
 35 405 24 425 24 440 c 2
3 45 m 2
 16 315 l 2
 18 336 38 355 55 355 c 0
 75 355 96 330 96 305 c 1
 92 225 l 2
 90 195 72 185 70 165 c 1
 66 80 l 2
 64 55 31 30 21 30 c 0
 14 30 3 35 3 45 c 2
440 0 m 2
 35 0 l 2
 25 0 20 5 20 10 c 0
 20 15 30 22 40 32 c 1
 50 40 60 50 80 50 c 0
 100 50 115 75 140 75 c 2
 160 75 l 2
 200 75 200 60 230 60 c 0
 260 60 260 75 280 75 c 2
 350 75 l 2
 390 75 400 55 410 55 c 0
 420 55 430 50 440 40 c 0
 450 30 460 20 460 10 c 0
 460 5 450 0 440 0 c 2
165 340 m 2
 119 340 l 2
 93 340 69 359 69 380 c 0
 69 401 92 420 117 420 c 2
 167 420 l 2
 192 420 215 401 215 380 c 0
 215 359 191 340 165 340 c 2
EndSplineSet
EndChar

StartChar: edieresis
Encoding: 235 235 132
Width: 650
GlyphClass: 2
Flags: W
LayerCount: 2
Fore
SplineSet
80 760 m 2
 470 760 l 2
 485 760 495 755 495 748 c 0
 495 735 465 702 455 702 c 2
 440 702 l 2
 420 702 420 688 405 688 c 2
 300 688 l 2
 280 688 280 700 260 700 c 0
 240 700 230 688 220 688 c 2
 160 688 l 2
 140 688 130 710 110 710 c 0
 80 710 65 745 65 750 c 0
 65 755 70 760 80 760 c 2
24 440 m 2
 36 690 l 1
 38 710 45 730 53 730 c 0
 63 730 93 695 93 670 c 1
 89 590 l 1
 89 560 109 550 109 520 c 1
 106 460 l 2
 104 432 80 405 55 405 c 0
 35 405 24 425 24 440 c 2
3 45 m 2
 16 315 l 2
 18 336 38 355 55 355 c 0
 75 355 96 330 96 305 c 1
 92 225 l 2
 90 195 72 185 70 165 c 1
 66 80 l 2
 64 55 31 30 21 30 c 0
 14 30 3 35 3 45 c 2
440 0 m 2
 35 0 l 2
 25 0 20 5 20 10 c 0
 20 15 30 22 40 32 c 1
 50 40 60 50 80 50 c 0
 100 50 115 75 140 75 c 2
 160 75 l 2
 200 75 200 60 230 60 c 0
 260 60 260 75 280 75 c 2
 350 75 l 2
 390 75 400 55 410 55 c 0
 420 55 430 50 440 40 c 0
 450 30 460 20 460 10 c 0
 460 5 450 0 440 0 c 2
165 340 m 2
 119 340 l 2
 93 340 69 359 69 380 c 0
 69 401 92 420 117 420 c 2
 167 420 l 2
 192 420 215 401 215 380 c 0
 215 359 191 340 165 340 c 2
EndSplineSet
EndChar

StartChar: igrave
Encoding: 236 236 133
Width: 650
GlyphClass: 2
Flags: W
LayerCount: 2
Fore
SplineSet
440 0 m 2
 35 0 l 2
 25 0 20 5 20 10 c 0
 20 15 30 22 40 32 c 1
 50 40 60 50 80 50 c 0
 100 50 115 75 140 75 c 2
 160 75 l 2
 200 75 200 60 230 60 c 0
 260 60 260 75 280 75 c 2
 350 75 l 2
 390 75 400 55 410 55 c 0
 420 55 430 50 440 40 c 0
 450 30 460 20 460 10 c 0
 460 5 450 0 440 0 c 2
80 760 m 2
 470 760 l 2
 485 760 495 755 495 748 c 0
 495 735 465 702 455 702 c 2
 440 702 l 2
 420 702 420 688 405 688 c 2
 300 688 l 2
 280 688 280 700 260 700 c 0
 240 700 230 688 220 688 c 2
 160 688 l 2
 140 688 130 710 110 710 c 0
 80 710 65 745 65 750 c 0
 65 755 70 760 80 760 c 2
225 70 m 0
 207 70 185 95 185 110 c 2
 188 170 l 2
 191 215 205 215 205 250 c 1
 207 280 l 2
 209 320 213 350 235 350 c 0
 252 350 260 300 260 280 c 0
 260 255 265 230 265 200 c 2
 262 110 l 2
 261 90 245 70 225 70 c 0
242 400 m 0
 230 400 216 420 216 430 c 2
 220 500 l 1
 220 530 205 550 205 585 c 1
 209 650 l 2
 211 675 240 690 255 690 c 0
 270 690 290 675 290 655 c 1
 283 540 l 2
 282 520 268 500 267 470 c 2
 265 435 l 2
 264 425 255 400 242 400 c 0
EndSplineSet
EndChar

StartChar: iacute
Encoding: 237 237 134
Width: 650
GlyphClass: 2
Flags: W
LayerCount: 2
Fore
SplineSet
440 0 m 2
 35 0 l 2
 25 0 20 5 20 10 c 0
 20 15 30 22 40 32 c 1
 50 40 60 50 80 50 c 0
 100 50 115 75 140 75 c 2
 160 75 l 2
 200 75 200 60 230 60 c 0
 260 60 260 75 280 75 c 2
 350 75 l 2
 390 75 400 55 410 55 c 0
 420 55 430 50 440 40 c 0
 450 30 460 20 460 10 c 0
 460 5 450 0 440 0 c 2
80 760 m 2
 470 760 l 2
 485 760 495 755 495 748 c 0
 495 735 465 702 455 702 c 2
 440 702 l 2
 420 702 420 688 405 688 c 2
 300 688 l 2
 280 688 280 700 260 700 c 0
 240 700 230 688 220 688 c 2
 160 688 l 2
 140 688 130 710 110 710 c 0
 80 710 65 745 65 750 c 0
 65 755 70 760 80 760 c 2
225 70 m 0
 207 70 185 95 185 110 c 2
 188 170 l 2
 191 215 205 215 205 250 c 1
 207 280 l 2
 209 320 213 350 235 350 c 0
 252 350 260 300 260 280 c 0
 260 255 265 230 265 200 c 2
 262 110 l 2
 261 90 245 70 225 70 c 0
242 400 m 0
 230 400 216 420 216 430 c 2
 220 500 l 1
 220 530 205 550 205 585 c 1
 209 650 l 2
 211 675 240 690 255 690 c 0
 270 690 290 675 290 655 c 1
 283 540 l 2
 282 520 268 500 267 470 c 2
 265 435 l 2
 264 425 255 400 242 400 c 0
EndSplineSet
EndChar

StartChar: icircumflex
Encoding: 238 238 135
Width: 650
GlyphClass: 2
Flags: W
LayerCount: 2
Fore
SplineSet
440 0 m 2
 35 0 l 2
 25 0 20 5 20 10 c 0
 20 15 30 22 40 32 c 1
 50 40 60 50 80 50 c 0
 100 50 115 75 140 75 c 2
 160 75 l 2
 200 75 200 60 230 60 c 0
 260 60 260 75 280 75 c 2
 350 75 l 2
 390 75 400 55 410 55 c 0
 420 55 430 50 440 40 c 0
 450 30 460 20 460 10 c 0
 460 5 450 0 440 0 c 2
80 760 m 2
 470 760 l 2
 485 760 495 755 495 748 c 0
 495 735 465 702 455 702 c 2
 440 702 l 2
 420 702 420 688 405 688 c 2
 300 688 l 2
 280 688 280 700 260 700 c 0
 240 700 230 688 220 688 c 2
 160 688 l 2
 140 688 130 710 110 710 c 0
 80 710 65 745 65 750 c 0
 65 755 70 760 80 760 c 2
225 70 m 0
 207 70 185 95 185 110 c 2
 188 170 l 2
 191 215 205 215 205 250 c 1
 207 280 l 2
 209 320 213 350 235 350 c 0
 252 350 260 300 260 280 c 0
 260 255 265 230 265 200 c 2
 262 110 l 2
 261 90 245 70 225 70 c 0
242 400 m 0
 230 400 216 420 216 430 c 2
 220 500 l 1
 220 530 205 550 205 585 c 1
 209 650 l 2
 211 675 240 690 255 690 c 0
 270 690 290 675 290 655 c 1
 283 540 l 2
 282 520 268 500 267 470 c 2
 265 435 l 2
 264 425 255 400 242 400 c 0
EndSplineSet
EndChar

StartChar: idieresis
Encoding: 239 239 136
Width: 650
GlyphClass: 2
Flags: W
LayerCount: 2
Fore
SplineSet
440 0 m 2
 35 0 l 2
 25 0 20 5 20 10 c 0
 20 15 30 22 40 32 c 1
 50 40 60 50 80 50 c 0
 100 50 115 75 140 75 c 2
 160 75 l 2
 200 75 200 60 230 60 c 0
 260 60 260 75 280 75 c 2
 350 75 l 2
 390 75 400 55 410 55 c 0
 420 55 430 50 440 40 c 0
 450 30 460 20 460 10 c 0
 460 5 450 0 440 0 c 2
80 760 m 2
 470 760 l 2
 485 760 495 755 495 748 c 0
 495 735 465 702 455 702 c 2
 440 702 l 2
 420 702 420 688 405 688 c 2
 300 688 l 2
 280 688 280 700 260 700 c 0
 240 700 230 688 220 688 c 2
 160 688 l 2
 140 688 130 710 110 710 c 0
 80 710 65 745 65 750 c 0
 65 755 70 760 80 760 c 2
225 70 m 0
 207 70 185 95 185 110 c 2
 188 170 l 2
 191 215 205 215 205 250 c 1
 207 280 l 2
 209 320 213 350 235 350 c 0
 252 350 260 300 260 280 c 0
 260 255 265 230 265 200 c 2
 262 110 l 2
 261 90 245 70 225 70 c 0
242 400 m 0
 230 400 216 420 216 430 c 2
 220 500 l 1
 220 530 205 550 205 585 c 1
 209 650 l 2
 211 675 240 690 255 690 c 0
 270 690 290 675 290 655 c 1
 283 540 l 2
 282 520 268 500 267 470 c 2
 265 435 l 2
 264 425 255 400 242 400 c 0
EndSplineSet
EndChar

StartChar: ntilde
Encoding: 241 241 137
Width: 650
GlyphClass: 2
Flags: W
LayerCount: 2
Fore
SplineSet
3 45 m 2
 16 315 l 2
 18 336 38 355 55 355 c 0
 75 355 96 330 96 305 c 1
 92 225 l 2
 90 195 72 185 70 165 c 1
 66 80 l 2
 64 55 31 30 21 30 c 0
 14 30 3 35 3 45 c 2
24 440 m 2
 36 690 l 1
 38 710 45 730 53 730 c 0
 63 730 93 695 93 670 c 1
 89 590 l 1
 89 560 109 550 109 520 c 1
 106 460 l 2
 104 432 80 405 55 405 c 0
 35 405 24 425 24 440 c 2
174 440 m 1
 111 553 l 2
 104 564 99 580 99 600 c 2
 102 680 l 2
 103 690 110 700 117 700 c 0
 125 700 132 690 137 680 c 2
 192 565 l 1
 202 547 210 535 210 515 c 1
 206 440 l 2
 205 430 199 420 194 420 c 0
 189 420 184 425 174 440 c 1
383 80 m 2
 280 260 l 2
 271 276 267 283 267 298 c 2
 268 318 l 2
 269 328 276 333 283 333 c 2
 311 333 l 2
 331 333 336 320 339 318 c 1
 399 208 l 2
 414 180 419 167 419 152 c 2
 416 92 l 1
 414 77 407 67 402 67 c 0
 398 67 387 73 383 80 c 2
424 90 m 2
 427 150 l 1
 427 176 410 194 410 220 c 1
 414 300 l 2
 416 335 455 355 465 355 c 0
 481 355 497 330 497 310 c 1
 484 60 l 2
 483 48 476 40 468 40 c 0
 444 40 424 70 424 90 c 2
424 450 m 2
 428 535 l 1
 430 555 450 575 452 600 c 1
 455 680 l 1
 457 700 498 725 505 725 c 0
 512 725 519 713 519 700 c 2
 503 420 l 2
 502 409 487 400 471 400 c 0
 461 400 424 430 424 450 c 2
EndSplineSet
EndChar

StartChar: ograve
Encoding: 242 242 138
Width: 650
GlyphClass: 2
Flags: W
LayerCount: 2
Fore
SplineSet
3 45 m 2
 16 315 l 2
 18 336 38 355 55 355 c 0
 75 355 96 330 96 305 c 1
 92 225 l 2
 90 195 72 185 70 165 c 1
 66 80 l 2
 64 55 31 30 21 30 c 0
 14 30 3 35 3 45 c 2
440 0 m 2
 35 0 l 2
 25 0 20 5 20 10 c 0
 20 15 30 22 40 32 c 1
 50 40 60 50 80 50 c 0
 100 50 115 75 140 75 c 2
 160 75 l 2
 200 75 200 60 230 60 c 0
 260 60 260 75 280 75 c 2
 350 75 l 2
 390 75 400 55 410 55 c 0
 420 55 430 50 440 40 c 0
 450 30 460 20 460 10 c 0
 460 5 450 0 440 0 c 2
424 90 m 2
 427 150 l 1
 427 176 410 194 410 220 c 1
 414 300 l 2
 416 335 455 355 465 355 c 0
 481 355 497 330 497 310 c 1
 484 60 l 2
 483 48 476 40 468 40 c 0
 444 40 424 70 424 90 c 2
424 450 m 2
 428 535 l 1
 430 555 450 575 452 600 c 1
 455 680 l 1
 457 700 498 725 505 725 c 0
 512 725 519 713 519 700 c 2
 503 420 l 2
 502 409 487 400 471 400 c 0
 461 400 424 430 424 450 c 2
80 760 m 2
 470 760 l 2
 485 760 495 755 495 748 c 0
 495 735 465 702 455 702 c 2
 440 702 l 2
 420 702 420 688 405 688 c 2
 300 688 l 2
 280 688 280 700 260 700 c 0
 240 700 230 688 220 688 c 2
 160 688 l 2
 140 688 130 710 110 710 c 0
 80 710 65 745 65 750 c 0
 65 755 70 760 80 760 c 2
24 440 m 2
 36 690 l 1
 38 710 45 730 53 730 c 0
 63 730 93 695 93 670 c 1
 89 590 l 1
 89 560 109 550 109 520 c 1
 106 460 l 2
 104 432 80 405 55 405 c 0
 35 405 24 425 24 440 c 2
EndSplineSet
EndChar

StartChar: oacute
Encoding: 243 243 139
Width: 650
GlyphClass: 2
Flags: W
LayerCount: 2
Fore
SplineSet
3 45 m 2
 16 315 l 2
 18 336 38 355 55 355 c 0
 75 355 96 330 96 305 c 1
 92 225 l 2
 90 195 72 185 70 165 c 1
 66 80 l 2
 64 55 31 30 21 30 c 0
 14 30 3 35 3 45 c 2
440 0 m 2
 35 0 l 2
 25 0 20 5 20 10 c 0
 20 15 30 22 40 32 c 1
 50 40 60 50 80 50 c 0
 100 50 115 75 140 75 c 2
 160 75 l 2
 200 75 200 60 230 60 c 0
 260 60 260 75 280 75 c 2
 350 75 l 2
 390 75 400 55 410 55 c 0
 420 55 430 50 440 40 c 0
 450 30 460 20 460 10 c 0
 460 5 450 0 440 0 c 2
424 90 m 2
 427 150 l 1
 427 176 410 194 410 220 c 1
 414 300 l 2
 416 335 455 355 465 355 c 0
 481 355 497 330 497 310 c 1
 484 60 l 2
 483 48 476 40 468 40 c 0
 444 40 424 70 424 90 c 2
424 450 m 2
 428 535 l 1
 430 555 450 575 452 600 c 1
 455 680 l 1
 457 700 498 725 505 725 c 0
 512 725 519 713 519 700 c 2
 503 420 l 2
 502 409 487 400 471 400 c 0
 461 400 424 430 424 450 c 2
80 760 m 2
 470 760 l 2
 485 760 495 755 495 748 c 0
 495 735 465 702 455 702 c 2
 440 702 l 2
 420 702 420 688 405 688 c 2
 300 688 l 2
 280 688 280 700 260 700 c 0
 240 700 230 688 220 688 c 2
 160 688 l 2
 140 688 130 710 110 710 c 0
 80 710 65 745 65 750 c 0
 65 755 70 760 80 760 c 2
24 440 m 2
 36 690 l 1
 38 710 45 730 53 730 c 0
 63 730 93 695 93 670 c 1
 89 590 l 1
 89 560 109 550 109 520 c 1
 106 460 l 2
 104 432 80 405 55 405 c 0
 35 405 24 425 24 440 c 2
EndSplineSet
EndChar

StartChar: ocircumflex
Encoding: 244 244 140
Width: 650
GlyphClass: 2
Flags: W
LayerCount: 2
Fore
SplineSet
3 45 m 2
 16 315 l 2
 18 336 38 355 55 355 c 0
 75 355 96 330 96 305 c 1
 92 225 l 2
 90 195 72 185 70 165 c 1
 66 80 l 2
 64 55 31 30 21 30 c 0
 14 30 3 35 3 45 c 2
440 0 m 2
 35 0 l 2
 25 0 20 5 20 10 c 0
 20 15 30 22 40 32 c 1
 50 40 60 50 80 50 c 0
 100 50 115 75 140 75 c 2
 160 75 l 2
 200 75 200 60 230 60 c 0
 260 60 260 75 280 75 c 2
 350 75 l 2
 390 75 400 55 410 55 c 0
 420 55 430 50 440 40 c 0
 450 30 460 20 460 10 c 0
 460 5 450 0 440 0 c 2
424 90 m 2
 427 150 l 1
 427 176 410 194 410 220 c 1
 414 300 l 2
 416 335 455 355 465 355 c 0
 481 355 497 330 497 310 c 1
 484 60 l 2
 483 48 476 40 468 40 c 0
 444 40 424 70 424 90 c 2
424 450 m 2
 428 535 l 1
 430 555 450 575 452 600 c 1
 455 680 l 1
 457 700 498 725 505 725 c 0
 512 725 519 713 519 700 c 2
 503 420 l 2
 502 409 487 400 471 400 c 0
 461 400 424 430 424 450 c 2
80 760 m 2
 470 760 l 2
 485 760 495 755 495 748 c 0
 495 735 465 702 455 702 c 2
 440 702 l 2
 420 702 420 688 405 688 c 2
 300 688 l 2
 280 688 280 700 260 700 c 0
 240 700 230 688 220 688 c 2
 160 688 l 2
 140 688 130 710 110 710 c 0
 80 710 65 745 65 750 c 0
 65 755 70 760 80 760 c 2
24 440 m 2
 36 690 l 1
 38 710 45 730 53 730 c 0
 63 730 93 695 93 670 c 1
 89 590 l 1
 89 560 109 550 109 520 c 1
 106 460 l 2
 104 432 80 405 55 405 c 0
 35 405 24 425 24 440 c 2
EndSplineSet
EndChar

StartChar: otilde
Encoding: 245 245 141
Width: 650
GlyphClass: 2
Flags: W
LayerCount: 2
Fore
SplineSet
3 45 m 2
 16 315 l 2
 18 336 38 355 55 355 c 0
 75 355 96 330 96 305 c 1
 92 225 l 2
 90 195 72 185 70 165 c 1
 66 80 l 2
 64 55 31 30 21 30 c 0
 14 30 3 35 3 45 c 2
440 0 m 2
 35 0 l 2
 25 0 20 5 20 10 c 0
 20 15 30 22 40 32 c 1
 50 40 60 50 80 50 c 0
 100 50 115 75 140 75 c 2
 160 75 l 2
 200 75 200 60 230 60 c 0
 260 60 260 75 280 75 c 2
 350 75 l 2
 390 75 400 55 410 55 c 0
 420 55 430 50 440 40 c 0
 450 30 460 20 460 10 c 0
 460 5 450 0 440 0 c 2
424 90 m 2
 427 150 l 1
 427 176 410 194 410 220 c 1
 414 300 l 2
 416 335 455 355 465 355 c 0
 481 355 497 330 497 310 c 1
 484 60 l 2
 483 48 476 40 468 40 c 0
 444 40 424 70 424 90 c 2
424 450 m 2
 428 535 l 1
 430 555 450 575 452 600 c 1
 455 680 l 1
 457 700 498 725 505 725 c 0
 512 725 519 713 519 700 c 2
 503 420 l 2
 502 409 487 400 471 400 c 0
 461 400 424 430 424 450 c 2
80 760 m 2
 470 760 l 2
 485 760 495 755 495 748 c 0
 495 735 465 702 455 702 c 2
 440 702 l 2
 420 702 420 688 405 688 c 2
 300 688 l 2
 280 688 280 700 260 700 c 0
 240 700 230 688 220 688 c 2
 160 688 l 2
 140 688 130 710 110 710 c 0
 80 710 65 745 65 750 c 0
 65 755 70 760 80 760 c 2
24 440 m 2
 36 690 l 1
 38 710 45 730 53 730 c 0
 63 730 93 695 93 670 c 1
 89 590 l 1
 89 560 109 550 109 520 c 1
 106 460 l 2
 104 432 80 405 55 405 c 0
 35 405 24 425 24 440 c 2
EndSplineSet
EndChar

StartChar: odieresis
Encoding: 246 246 142
Width: 650
GlyphClass: 2
Flags: W
LayerCount: 2
Fore
SplineSet
3 45 m 2
 16 315 l 2
 18 336 38 355 55 355 c 0
 75 355 96 330 96 305 c 1
 92 225 l 2
 90 195 72 185 70 165 c 1
 66 80 l 2
 64 55 31 30 21 30 c 0
 14 30 3 35 3 45 c 2
440 0 m 2
 35 0 l 2
 25 0 20 5 20 10 c 0
 20 15 30 22 40 32 c 1
 50 40 60 50 80 50 c 0
 100 50 115 75 140 75 c 2
 160 75 l 2
 200 75 200 60 230 60 c 0
 260 60 260 75 280 75 c 2
 350 75 l 2
 390 75 400 55 410 55 c 0
 420 55 430 50 440 40 c 0
 450 30 460 20 460 10 c 0
 460 5 450 0 440 0 c 2
424 90 m 2
 427 150 l 1
 427 176 410 194 410 220 c 1
 414 300 l 2
 416 335 455 355 465 355 c 0
 481 355 497 330 497 310 c 1
 484 60 l 2
 483 48 476 40 468 40 c 0
 444 40 424 70 424 90 c 2
424 450 m 2
 428 535 l 1
 430 555 450 575 452 600 c 1
 455 680 l 1
 457 700 498 725 505 725 c 0
 512 725 519 713 519 700 c 2
 503 420 l 2
 502 409 487 400 471 400 c 0
 461 400 424 430 424 450 c 2
80 760 m 2
 470 760 l 2
 485 760 495 755 495 748 c 0
 495 735 465 702 455 702 c 2
 440 702 l 2
 420 702 420 688 405 688 c 2
 300 688 l 2
 280 688 280 700 260 700 c 0
 240 700 230 688 220 688 c 2
 160 688 l 2
 140 688 130 710 110 710 c 0
 80 710 65 745 65 750 c 0
 65 755 70 760 80 760 c 2
24 440 m 2
 36 690 l 1
 38 710 45 730 53 730 c 0
 63 730 93 695 93 670 c 1
 89 590 l 1
 89 560 109 550 109 520 c 1
 106 460 l 2
 104 432 80 405 55 405 c 0
 35 405 24 425 24 440 c 2
EndSplineSet
EndChar

StartChar: oslash
Encoding: 248 248 143
Width: 650
GlyphClass: 2
Flags: W
LayerCount: 2
Fore
SplineSet
3 45 m 2
 16 315 l 2
 18 336 38 355 55 355 c 0
 75 355 96 330 96 305 c 1
 92 225 l 2
 90 195 72 185 70 165 c 1
 66 80 l 2
 64 55 31 30 21 30 c 0
 14 30 3 35 3 45 c 2
440 0 m 2
 35 0 l 2
 25 0 20 5 20 10 c 0
 20 15 30 22 40 32 c 1
 50 40 60 50 80 50 c 0
 100 50 115 75 140 75 c 2
 160 75 l 2
 200 75 200 60 230 60 c 0
 260 60 260 75 280 75 c 2
 350 75 l 2
 390 75 400 55 410 55 c 0
 420 55 430 50 440 40 c 0
 450 30 460 20 460 10 c 0
 460 5 450 0 440 0 c 2
424 90 m 2
 427 150 l 1
 427 176 410 194 410 220 c 1
 414 300 l 2
 416 335 455 355 465 355 c 0
 481 355 497 330 497 310 c 1
 484 60 l 2
 483 48 476 40 468 40 c 0
 444 40 424 70 424 90 c 2
424 450 m 2
 428 535 l 1
 430 555 450 575 452 600 c 1
 455 680 l 1
 457 700 498 725 505 725 c 0
 512 725 519 713 519 700 c 2
 503 420 l 2
 502 409 487 400 471 400 c 0
 461 400 424 430 424 450 c 2
80 760 m 2
 470 760 l 2
 485 760 495 755 495 748 c 0
 495 735 465 702 455 702 c 2
 440 702 l 2
 420 702 420 688 405 688 c 2
 300 688 l 2
 280 688 280 700 260 700 c 0
 240 700 230 688 220 688 c 2
 160 688 l 2
 140 688 130 710 110 710 c 0
 80 710 65 745 65 750 c 0
 65 755 70 760 80 760 c 2
24 440 m 2
 36 690 l 1
 38 710 45 730 53 730 c 0
 63 730 93 695 93 670 c 1
 89 590 l 1
 89 560 109 550 109 520 c 1
 106 460 l 2
 104 432 80 405 55 405 c 0
 35 405 24 425 24 440 c 2
EndSplineSet
EndChar

StartChar: ugrave
Encoding: 249 249 144
Width: 650
GlyphClass: 2
Flags: W
LayerCount: 2
Fore
SplineSet
24 440 m 2
 36 690 l 1
 38 710 45 730 53 730 c 0
 63 730 93 695 93 670 c 1
 89 590 l 1
 89 560 109 550 109 520 c 1
 106 460 l 2
 104 432 80 405 55 405 c 0
 35 405 24 425 24 440 c 2
3 45 m 2
 16 315 l 2
 18 336 38 355 55 355 c 0
 75 355 96 330 96 305 c 1
 92 225 l 2
 90 195 72 185 70 165 c 1
 66 80 l 2
 64 55 31 30 21 30 c 0
 14 30 3 35 3 45 c 2
440 0 m 2
 35 0 l 2
 25 0 20 5 20 10 c 0
 20 15 30 22 40 32 c 1
 50 40 60 50 80 50 c 0
 100 50 115 75 140 75 c 2
 160 75 l 2
 200 75 200 60 230 60 c 0
 260 60 260 75 280 75 c 2
 350 75 l 2
 390 75 400 55 410 55 c 0
 420 55 430 50 440 40 c 0
 450 30 460 20 460 10 c 0
 460 5 450 0 440 0 c 2
424 90 m 2
 427 150 l 1
 427 176 410 194 410 220 c 1
 414 300 l 2
 416 335 455 355 465 355 c 0
 481 355 497 330 497 310 c 1
 484 60 l 2
 483 48 476 40 468 40 c 0
 444 40 424 70 424 90 c 2
424 450 m 2
 428 535 l 1
 430 555 450 575 452 600 c 1
 455 680 l 1
 457 700 498 725 505 725 c 0
 512 725 519 713 519 700 c 2
 503 420 l 2
 502 409 487 400 471 400 c 0
 461 400 424 430 424 450 c 2
EndSplineSet
EndChar

StartChar: uacute
Encoding: 250 250 145
Width: 650
GlyphClass: 2
Flags: W
LayerCount: 2
Fore
SplineSet
24 440 m 2
 36 690 l 1
 38 710 45 730 53 730 c 0
 63 730 93 695 93 670 c 1
 89 590 l 1
 89 560 109 550 109 520 c 1
 106 460 l 2
 104 432 80 405 55 405 c 0
 35 405 24 425 24 440 c 2
3 45 m 2
 16 315 l 2
 18 336 38 355 55 355 c 0
 75 355 96 330 96 305 c 1
 92 225 l 2
 90 195 72 185 70 165 c 1
 66 80 l 2
 64 55 31 30 21 30 c 0
 14 30 3 35 3 45 c 2
440 0 m 2
 35 0 l 2
 25 0 20 5 20 10 c 0
 20 15 30 22 40 32 c 1
 50 40 60 50 80 50 c 0
 100 50 115 75 140 75 c 2
 160 75 l 2
 200 75 200 60 230 60 c 0
 260 60 260 75 280 75 c 2
 350 75 l 2
 390 75 400 55 410 55 c 0
 420 55 430 50 440 40 c 0
 450 30 460 20 460 10 c 0
 460 5 450 0 440 0 c 2
424 90 m 2
 427 150 l 1
 427 176 410 194 410 220 c 1
 414 300 l 2
 416 335 455 355 465 355 c 0
 481 355 497 330 497 310 c 1
 484 60 l 2
 483 48 476 40 468 40 c 0
 444 40 424 70 424 90 c 2
424 450 m 2
 428 535 l 1
 430 555 450 575 452 600 c 1
 455 680 l 1
 457 700 498 725 505 725 c 0
 512 725 519 713 519 700 c 2
 503 420 l 2
 502 409 487 400 471 400 c 0
 461 400 424 430 424 450 c 2
EndSplineSet
EndChar

StartChar: ucircumflex
Encoding: 251 251 146
Width: 650
GlyphClass: 2
Flags: W
LayerCount: 2
Fore
SplineSet
24 440 m 2
 36 690 l 1
 38 710 45 730 53 730 c 0
 63 730 93 695 93 670 c 1
 89 590 l 1
 89 560 109 550 109 520 c 1
 106 460 l 2
 104 432 80 405 55 405 c 0
 35 405 24 425 24 440 c 2
3 45 m 2
 16 315 l 2
 18 336 38 355 55 355 c 0
 75 355 96 330 96 305 c 1
 92 225 l 2
 90 195 72 185 70 165 c 1
 66 80 l 2
 64 55 31 30 21 30 c 0
 14 30 3 35 3 45 c 2
440 0 m 2
 35 0 l 2
 25 0 20 5 20 10 c 0
 20 15 30 22 40 32 c 1
 50 40 60 50 80 50 c 0
 100 50 115 75 140 75 c 2
 160 75 l 2
 200 75 200 60 230 60 c 0
 260 60 260 75 280 75 c 2
 350 75 l 2
 390 75 400 55 410 55 c 0
 420 55 430 50 440 40 c 0
 450 30 460 20 460 10 c 0
 460 5 450 0 440 0 c 2
424 90 m 2
 427 150 l 1
 427 176 410 194 410 220 c 1
 414 300 l 2
 416 335 455 355 465 355 c 0
 481 355 497 330 497 310 c 1
 484 60 l 2
 483 48 476 40 468 40 c 0
 444 40 424 70 424 90 c 2
424 450 m 2
 428 535 l 1
 430 555 450 575 452 600 c 1
 455 680 l 1
 457 700 498 725 505 725 c 0
 512 725 519 713 519 700 c 2
 503 420 l 2
 502 409 487 400 471 400 c 0
 461 400 424 430 424 450 c 2
EndSplineSet
EndChar

StartChar: udieresis
Encoding: 252 252 147
Width: 650
GlyphClass: 2
Flags: W
LayerCount: 2
Fore
SplineSet
24 440 m 2
 36 690 l 1
 38 710 45 730 53 730 c 0
 63 730 93 695 93 670 c 1
 89 590 l 1
 89 560 109 550 109 520 c 1
 106 460 l 2
 104 432 80 405 55 405 c 0
 35 405 24 425 24 440 c 2
3 45 m 2
 16 315 l 2
 18 336 38 355 55 355 c 0
 75 355 96 330 96 305 c 1
 92 225 l 2
 90 195 72 185 70 165 c 1
 66 80 l 2
 64 55 31 30 21 30 c 0
 14 30 3 35 3 45 c 2
440 0 m 2
 35 0 l 2
 25 0 20 5 20 10 c 0
 20 15 30 22 40 32 c 1
 50 40 60 50 80 50 c 0
 100 50 115 75 140 75 c 2
 160 75 l 2
 200 75 200 60 230 60 c 0
 260 60 260 75 280 75 c 2
 350 75 l 2
 390 75 400 55 410 55 c 0
 420 55 430 50 440 40 c 0
 450 30 460 20 460 10 c 0
 460 5 450 0 440 0 c 2
424 90 m 2
 427 150 l 1
 427 176 410 194 410 220 c 1
 414 300 l 2
 416 335 455 355 465 355 c 0
 481 355 497 330 497 310 c 1
 484 60 l 2
 483 48 476 40 468 40 c 0
 444 40 424 70 424 90 c 2
424 450 m 2
 428 535 l 1
 430 555 450 575 452 600 c 1
 455 680 l 1
 457 700 498 725 505 725 c 0
 512 725 519 713 519 700 c 2
 503 420 l 2
 502 409 487 400 471 400 c 0
 461 400 424 430 424 450 c 2
EndSplineSet
EndChar

StartChar: yacute
Encoding: 253 253 148
Width: 650
GlyphClass: 2
Flags: W
LayerCount: 2
Fore
SplineSet
174 440 m 1
 111 553 l 2
 104 564 99 580 99 600 c 2
 102 680 l 2
 103 690 110 700 117 700 c 0
 125 700 132 690 137 680 c 2
 192 565 l 1
 202 547 210 535 210 515 c 1
 206 440 l 2
 205 430 199 420 194 420 c 0
 189 420 184 425 174 440 c 1
323 427 m 2
 295 427 l 2
 280 427 273 435 273 450 c 1
 275 470 282 485 295 500 c 1
 403 663 l 2
 413 678 423 688 431 688 c 0
 441 688 447 673 447 653 c 1
 444 603 l 2
 442 576 433 566 423 553 c 1
 355 445 l 2
 348 435 338 427 323 427 c 2
225 70 m 0
 207 70 185 95 185 110 c 2
 188 170 l 2
 191 215 205 215 205 250 c 1
 207 280 l 2
 209 320 213 350 235 350 c 0
 252 350 260 300 260 280 c 0
 260 255 265 230 265 200 c 2
 262 110 l 2
 261 90 245 70 225 70 c 0
EndSplineSet
EndChar

StartChar: ydieresis
Encoding: 255 255 149
Width: 650
GlyphClass: 2
Flags: W
LayerCount: 2
Fore
SplineSet
174 440 m 1
 111 553 l 2
 104 564 99 580 99 600 c 2
 102 680 l 2
 103 690 110 700 117 700 c 0
 125 700 132 690 137 680 c 2
 192 565 l 1
 202 547 210 535 210 515 c 1
 206 440 l 2
 205 430 199 420 194 420 c 0
 189 420 184 425 174 440 c 1
323 427 m 2
 295 427 l 2
 280 427 273 435 273 450 c 1
 275 470 282 485 295 500 c 1
 403 663 l 2
 413 678 423 688 431 688 c 0
 441 688 447 673 447 653 c 1
 444 603 l 2
 442 576 433 566 423 553 c 1
 355 445 l 2
 348 435 338 427 323 427 c 2
225 70 m 0
 207 70 185 95 185 110 c 2
 188 170 l 2
 191 215 205 215 205 250 c 1
 207 280 l 2
 209 320 213 350 235 350 c 0
 252 350 260 300 260 280 c 0
 260 255 265 230 265 200 c 2
 262 110 l 2
 261 90 245 70 225 70 c 0
EndSplineSet
EndChar

StartChar: quoteleft
Encoding: 8216 8216 150
Width: 650
GlyphClass: 2
Flags: W
LayerCount: 2
Fore
SplineSet
174 440 m 1
 111 553 l 2
 104 564 99 580 99 600 c 2
 102 680 l 2
 103 690 110 700 117 700 c 0
 125 700 132 690 137 680 c 2
 192 565 l 1
 202 547 210 535 210 515 c 1
 206 440 l 2
 205 430 199 420 194 420 c 0
 189 420 184 425 174 440 c 1
EndSplineSet
EndChar

StartChar: minus
Encoding: 8722 8722 151
Width: 650
GlyphClass: 2
Flags: W
LayerCount: 2
Fore
SplineSet
165 340 m 2
 119 340 l 2
 93 340 69 359 69 380 c 0
 69 401 92 420 117 420 c 2
 167 420 l 2
 192 420 215 401 215 380 c 0
 215 359 191 340 165 340 c 2
405 340 m 2
 309 340 l 2
 283 340 259 359 259 380 c 0
 259 401 282 420 307 420 c 2
 407 420 l 2
 432 420 455 401 455 380 c 0
 455 359 431 340 405 340 c 2
EndSplineSet
EndChar
